<svg width="320" height="433" viewBox="0 0 320 433" fill="none" xmlns="http://www.w3.org/2000/svg">
<g clip-path="url(#clip0_4_31)">
<path fill-rule="evenodd" clip-rule="evenodd" d="M186.637 78.3167C185.776 80.1836 185.095 81.4173 184.617 82.7113C177.785 102.067 164.294 114.986 145.52 122.583C142.41 123.844 138.821 124.06 135.432 124.567C130.652 125.259 130.01 125.684 128.83 129.916C123.87 147.562 108.739 159.883 90.5169 160.178C78.9476 160.353 79.4164 162.207 80.1973 171.576C81.1039 182.477 82.8219 193.244 85.5832 203.821C86.5768 207.675 87.9462 211.534 89.7243 215.08C92.8292 221.242 96.1962 227.263 99.7963 233.142C104.077 240.099 110.229 245.403 116.882 249.962C122.789 253.992 129.168 257.277 136.001 261.29C134.395 269.647 131.286 277.812 123.814 283.411C115.116 289.976 106.218 296.337 97.064 302.29C83.5377 311.078 70.4955 320.478 58.6491 331.395C53.9692 335.699 48.763 335.779 43.4036 334.211C32.224 330.925 23.6019 324.262 17.685 313.963C8.73819 298.457 6.91796 281.911 10.7433 264.829C13.3138 253.365 16.5486 241.966 20.7611 231.012C27.1848 214.28 31.1276 197.055 34.7263 179.594C38.755 160.088 40.6742 140.47 40.8614 120.599C40.9927 105.262 43.3164 90.3568 49.4781 76.1054C55.4611 62.2851 64.2469 50.9836 76.5862 42.2967C90.7628 32.3615 106.071 24.4912 121.493 16.7378C132.55 11.1836 144.318 11.3287 156.067 13.0046C161.349 13.763 166.069 13.2435 171.176 11.8333C188.907 6.85246 205.934 9.63325 222.082 18.0648C239.292 27.0872 252.78 40.1943 263.105 56.5265C266.934 62.582 270.325 68.9498 273.601 75.3162C280.577 88.8341 283.695 103.373 283.913 118.483C284.075 128.826 284.207 139.198 283.444 149.472C281.989 169.009 285.604 187.772 290.927 206.353C295.03 220.702 299.249 235.024 303.555 249.318C306.917 260.422 308.454 271.765 307.849 283.311C307.284 293.992 304.554 304.271 301.421 314.429C300.397 317.738 298.396 320.573 295.592 322.82C290.452 326.917 285.823 331.799 279.15 333.537C276.946 334.116 274.684 334.579 272.426 334.811C270.37 335.017 268.615 334.273 267.103 332.608C258.803 323.32 248.682 316.205 238.503 309.176C232.138 304.764 225.891 300.152 219.643 295.569C213.711 291.192 209.444 285.449 206.723 278.656C204.17 272.27 201.937 265.772 199.448 258.895C201.051 257.875 202.337 256.764 203.819 256.147C216.056 251.127 226.3 243.512 234.095 232.805C237.478 228.167 240.66 223.383 243.67 218.509C249.276 209.45 250.617 199.155 251.814 188.857C252.301 184.588 252.123 180.253 252.205 175.95C252.25 172.311 250.929 169.175 248.241 166.745C245.037 163.874 241.923 160.861 238.396 158.42C228.36 151.508 219.847 143.026 211.774 134.001C206.126 127.692 201.876 120.591 199.431 112.502C197.209 105.08 195.278 97.5745 193.172 90.1249C192.396 87.3712 191.679 84.5604 190.496 81.975C189.876 80.6386 188.239 79.7807 186.608 78.3163L186.637 78.3167ZM148.667 54.9421C147.244 55.4445 146.057 55.5165 145.82 56.0046C144.721 58.3308 143.796 60.7169 142.956 63.1619C141.936 66.1534 141.175 69.2059 140.155 72.1974C137.005 81.4309 130.46 86.8674 120.98 88.8303C118.747 89.2938 116.404 89.3805 114.172 89.844C109.62 90.7411 108.709 91.9431 108.562 96.8518C108.167 110.134 100.37 120.986 87.7913 125.597C84.567 126.77 81.1745 127.508 77.8937 128.566C76.9935 128.872 76.261 129.643 74.9485 130.551C76.2975 131.377 76.8975 131.962 77.6182 132.144C82.576 133.447 87.33 132.524 91.8947 130.529C103.524 125.502 110.374 116.372 113.76 104.426C114.517 101.72 114.869 98.9227 115.425 96.0988C118.585 95.4445 121.424 95.0173 124.209 94.3006C131.695 92.2843 137.988 88.4334 141.948 81.6074C146.616 73.5192 147.884 64.5225 148.696 54.9424L148.667 54.9421ZM275.059 304.196C277.141 304.222 278.294 304.525 279.223 304.19C282.448 303.016 284.157 300.409 285.092 297.243C288.204 286.478 287.259 276.298 280.607 266.973C279.3 265.137 277.904 263.387 276.482 261.52C277.573 259.801 278.429 258.367 279.343 256.934C283.59 250.256 283.444 243.35 279.913 236.519C277.965 232.711 275.492 229.185 273.166 225.574C272.371 224.351 271.113 223.209 269.682 224.289C269.04 224.773 268.962 226.389 269.152 227.431C269.395 228.821 270.073 230.129 270.693 231.408C271.934 233.994 273.349 236.496 274.561 239.081C277.209 244.747 276.94 250.174 273.06 255.239C272.207 256.384 271.24 257.469 270.502 258.674C268.849 261.34 269.059 263.133 271.283 265.645C272.224 266.725 273.341 267.634 274.311 268.686C278.135 272.864 280.128 277.741 280.433 283.436C280.859 291.096 280.034 294.754 275.03 304.196L275.059 304.196ZM80.4329 272.073C80.7844 271.701 81.136 271.33 81.4876 270.959C80.3885 268.635 79.289 266.339 78.1899 264.015C73.1697 253.698 71.2497 242.9 72.8071 231.51C73.0919 229.52 73.3189 227.53 73.6901 225.57C74.5581 220.843 73.8579 216.646 70.7548 212.68C67.2529 208.217 66.0466 202.858 66.8386 197.264C67.5663 192.189 68.7559 187.178 69.8587 182.165C70.1963 180.581 70.9088 179.087 71.9282 176.154C69.7461 177.224 68.4422 177.439 68.1159 178.1C66.3655 181.689 64.4709 185.247 63.3541 189.046C60.6964 198.199 60.7003 207.27 66.6742 215.287C69.2633 218.727 68.8161 222.159 68.3654 225.88C67.7173 231.533 66.8372 237.242 66.9116 242.933C67.019 252.987 70.7262 261.901 77.283 269.549C78.1383 270.542 79.3734 271.222 80.4332 272.044L80.4329 272.073ZM257.044 125.864C258.407 123.252 259.051 122.567 259.09 121.817C259.519 115.149 258.906 108.556 256.176 102.456C249.056 86.5967 238.757 72.8645 226.707 60.4395C225.85 59.5623 224.466 59.1986 223.432 58.6659C221.846 60.6395 222.902 61.7502 223.727 62.8869C229.413 70.7851 235.274 78.5987 240.755 86.6676C246.72 95.4647 251.927 104.686 253.761 115.425C254.273 118.435 255.597 121.311 257.073 125.894L257.044 125.864ZM48.8734 240.053C45.36 241.223 45.3028 241.165 44.3855 242.858C38.5828 253.792 36.1851 265.316 38.2015 277.676C39.0087 282.567 40.4263 287.206 43.4723 291.115C45.3796 293.565 47.6653 295.817 50.1583 297.667C53.139 299.842 54.4722 299.598 58.1681 297.708C46.8462 289.539 42.6639 281.63 42.8888 268.085C43.0139 260.288 44.4947 252.767 47.62 245.555C48.3638 243.86 50.2053 242.265 48.8734 240.053ZM70.6255 82.4611C71.1427 82.7274 71.66 82.9938 72.1768 83.289C73.8484 81.4032 75.52 79.5173 77.1919 77.6026C78.8931 75.6593 80.5368 73.6865 82.3237 71.831C83.9057 70.1751 85.5448 68.5777 87.2407 67.0677C89.1703 65.3583 91.1571 63.7074 93.1721 62.1147C95.187 60.5219 97.3448 59.0754 99.388 57.5407C101.314 56.0913 104.067 55.6342 105.281 53.3961C103.752 50.7486 102.004 51.767 100.607 52.5008C89.5467 58.2859 80.0537 65.968 73.1572 76.4841C71.9786 78.2604 71.4596 80.4782 70.6544 82.4614L70.6255 82.4611ZM225.864 109.968C226.335 109.31 226.685 109.054 226.659 108.851C226.416 107.462 226.231 106.044 225.727 104.738C222.25 95.914 217.463 87.7669 212.239 79.8745C211.615 78.9424 210.728 78.1516 209.84 77.4763C209.467 77.1828 208.514 77.0844 208.28 77.3126C207.782 77.8842 207.396 78.6593 207.3 79.4092C207.236 79.8995 207.663 80.4824 207.946 80.977C212.987 89.6182 218.027 98.2883 223.126 106.901C223.806 108.036 224.894 108.916 225.836 109.968L225.864 109.968ZM252.009 273.871C254.084 269.794 252.97 266.314 251.509 262.888C249.26 257.632 246.581 254.421 242.105 251.564C241.901 251.735 241.668 251.876 241.492 252.077C241.345 252.277 241.08 252.62 241.165 252.795C243.916 259.53 248.265 265.592 249.853 272.862C249.907 273.18 250.773 273.306 251.98 273.87L252.009 273.871Z" fill="white"/>
<path fill-rule="evenodd" clip-rule="evenodd" d="M134.145 153.899C133.07 149.553 129.647 150.464 127.581 149.138C130.457 143.368 133.245 137.77 136.239 131.769C143.306 130.932 150.331 128.708 156.913 124.976C163.203 121.385 169.096 117.241 173.818 111.811C178.629 106.295 182.896 100.282 187.862 93.9012C188.423 95.3235 189.019 96.2552 189.151 97.239C191.902 118.013 201.028 135.428 216.82 149.257C222.428 154.179 228.211 158.872 233.906 163.708C237.398 166.669 240.918 169.658 244.38 172.647C246.24 174.259 246.995 176.29 246.762 178.772C246.006 186.186 245.595 193.662 243.194 200.796C242.744 202.149 242.12 203.498 241.9 204.882C240.392 214.656 235.09 222.476 228.87 229.737C224.968 234.281 221.352 239.09 216.248 242.608C210.297 246.752 204.209 250.317 197.215 252.368C190.888 254.254 184.727 256.663 178.401 258.491C175.411 259.35 172.168 259.714 169.044 259.762C143.734 260.346 122.385 251.59 105.794 232.205C104.141 230.249 102.664 228.036 101.594 225.712C97.8765 217.636 93.8687 209.643 90.9065 201.287C87.1328 190.726 85.3891 179.699 86.4593 167.956C88.3144 167.603 89.9403 167.075 91.5309 167.065C101.104 166.981 109.702 163.823 116.976 157.876C121.153 154.49 125.163 152.922 130.351 154.314C131.303 154.557 132.466 154.052 134.146 153.812L134.145 153.899ZM163.579 170.611C163.227 166.361 163.034 163.239 162.668 160.114C162.589 159.449 161.563 158.281 161.33 158.365C160.372 158.7 159.005 159.289 158.823 160.038C158.243 162.515 157.951 165.053 157.804 167.594C157.473 173.367 157.43 179.172 150.746 181.863C149.787 182.255 149.078 183.402 148.431 184.318C146.548 186.924 145.212 189.738 145.807 193.067C146.835 198.857 154.797 205.108 160.989 204.838C161.451 204.843 162.395 203.353 162.226 202.975C161.634 201.726 160.781 200.531 159.752 199.594C157.865 197.867 155.685 196.424 153.827 194.668C151.854 192.824 151.709 190.54 153.468 188.569C154.787 187.112 156.364 185.861 158.026 184.812C160.648 183.169 162.151 180.906 162.622 177.936C163.032 175.14 163.356 172.313 163.58 170.553L163.579 170.611ZM164.3 227.092C166.153 226.941 169.857 226.727 173.506 226.281C176.141 225.967 178.468 224.869 179.828 222.43C180.183 221.799 180.168 220.73 179.857 220.091C179.519 219.422 178.688 218.806 177.967 218.623C177.217 218.441 176.289 218.66 175.505 218.94C166.503 221.977 157.547 221.289 148.524 219.011C146.621 218.526 144.689 218.098 142.753 217.929C142.262 217.894 141.526 218.983 141.17 219.672C140.963 220.045 141.155 220.914 141.44 221.235C142.24 222.025 143.157 222.729 144.134 223.261C149.851 226.278 156.12 226.76 164.271 227.091L164.3 227.092ZM118.499 179.79C118.714 181.121 118.816 182.249 119.091 183.35C119.586 185.407 121.501 187.279 123.179 187.213C125.349 187.125 126.925 185.96 127.903 184.036C129.473 180.994 129.193 177.929 127.899 174.937C127.168 173.253 125.734 172.34 123.796 172.345C121.887 172.35 120.458 173.372 119.744 175.01C119.088 176.562 118.864 178.292 118.47 179.789L118.499 179.79ZM195.278 179.581C195.661 181.406 195.762 182.562 196.125 183.607C196.711 185.318 197.795 186.574 199.7 186.886C201.546 187.198 203.558 185.923 204.42 183.969C205.909 180.521 205.139 177.276 203.268 174.249C202.332 172.736 198.951 172.549 197.978 174.097C196.798 175.931 196.02 178.059 195.307 179.582L195.278 179.581ZM192.567 148.582C198.282 149.404 202.67 150.064 207.317 150.728C207.544 146.398 204.721 145.497 202.01 144.943C198.75 144.297 195.37 143.995 192.595 148.583L192.567 148.582Z" fill="white"/>
<path fill-rule="evenodd" clip-rule="evenodd" d="M191.617 300.596C189.691 304.356 188.855 306.484 187.589 308.346C183.231 314.705 175.253 314.375 171.461 307.656C170.216 305.474 169.465 303.009 168.258 300.077C166.945 301.014 165.608 301.546 164.902 302.549C162.37 306.186 159.071 308.774 155.285 310.951C151.906 312.874 148.67 312.661 145.543 310.629C142.531 308.685 141.991 305.53 142.234 302.298C142.341 300.624 143.171 298.988 143.423 297.316C143.58 296.278 143.246 295.205 143.093 293.556C141.032 294.195 139.409 294.522 137.954 295.226C135.889 296.212 133.993 297.546 131.985 298.59C129.598 299.831 127.079 300.06 124.456 299.392C121.141 298.543 120.141 295.18 122.542 292.812C123.332 292.013 124.267 291.302 125.2 290.678C128.057 288.749 130.914 286.878 134.354 284.638C135.532 285.288 136.998 286 138.405 286.826C142.682 289.421 147.439 290.577 152.292 290.983C160.294 291.66 168.329 292.019 176.335 292.32C183.33 292.579 189.921 290.436 196.509 288.467C198.135 287.996 199.704 287.38 200.894 286.99C205.013 290.68 208.788 294.106 212.592 297.475C215.796 300.317 215.163 304.786 211.123 306.412C209.35 307.141 207.058 307.777 205.358 307.265C200.776 305.937 195.419 306.536 191.617 300.625L191.617 300.596Z" fill="white"/>
<path fill-rule="evenodd" clip-rule="evenodd" d="M143.293 263.258C160.378 266.039 176.615 267.308 192.599 260.861C194.995 263.577 194.954 266.841 195.873 269.741C196.819 272.728 197.707 275.772 198.763 279.222C197.451 280.101 196.221 281.357 194.74 281.888C186.288 284.845 177.677 286.675 168.583 285.465C163.473 284.795 158.267 284.875 153.123 284.581C147.575 284.253 142.415 282.918 137.927 278.645C139.636 273.785 141.314 269.01 143.322 263.258L143.293 263.258Z" fill="white"/>
<path fill-rule="evenodd" clip-rule="evenodd" d="M97.9562 323.734C100.238 323.964 102.374 326.648 101.626 328.69C99.9801 333.147 97.2752 336.753 92.4856 338.225C90.5987 338.808 88.4223 337.077 88.303 335.025C88.0937 330.892 92.2435 325.021 96.3075 323.772C96.83 323.605 97.4362 323.699 97.9569 323.676L97.9562 323.734Z" fill="white"/>
<path fill-rule="evenodd" clip-rule="evenodd" d="M55.4361 369.167C54.5519 368.174 52.9742 367.144 52.5865 365.752C51.3684 361.347 55.4011 355.59 59.8631 354.894C61.9491 354.573 64.6953 357.005 64.2073 359.05C63.2619 363.024 61.2255 366.35 57.6128 368.53C57.1467 368.813 56.5388 368.863 55.4361 369.167Z" fill="white"/>
<path fill-rule="evenodd" clip-rule="evenodd" d="M170.492 339.331C170.19 340.425 169.729 342.644 168.979 344.772C168.289 346.786 166.165 347.886 164.261 347.516C162.299 347.145 160.528 345.39 160.698 343.312C160.902 340.831 161.367 338.266 162.235 335.937C162.953 334.01 164.645 332.789 166.983 333.107C169.12 333.393 170.541 335.404 170.521 339.361L170.492 339.331Z" fill="white"/>
<path fill-rule="evenodd" clip-rule="evenodd" d="M272.679 368.177C272.441 371.092 270.281 372.712 268.319 372.37C263.298 371.47 259.968 364.843 262.279 360.337C263.138 358.672 265.896 357.839 267.473 358.927C271.028 361.369 272.313 365.024 272.679 368.177Z" fill="white"/>
<path fill-rule="evenodd" clip-rule="evenodd" d="M100.841 359.501C101.468 360.26 102.844 361.173 103.033 362.301C103.654 365.862 102.314 369.023 99.8523 371.65C97.7428 373.877 93.7644 372.875 92.9616 369.976C91.8528 366.092 94.6933 360.87 98.5537 359.704C99.0763 359.537 99.6828 359.603 100.84 359.53L100.841 359.501Z" fill="white"/>
<path fill-rule="evenodd" clip-rule="evenodd" d="M245.094 335.196C245.308 338.925 242.801 340.512 240.473 339.357C236.593 337.46 234.581 334.142 234.198 329.978C234.096 328.908 235.27 327.478 236.234 326.652C237.433 325.627 238.99 325.993 240.105 326.989C242.937 329.479 244.692 332.621 245.065 335.196L245.094 335.196Z" fill="white"/>
<path fill-rule="evenodd" clip-rule="evenodd" d="M142.993 372.066C142.871 367.877 143.632 364.795 146.031 362.514C146.88 361.716 148.765 361.219 149.831 361.579C150.954 361.939 152.553 363.605 152.426 364.499C151.984 367.527 151.223 370.637 149.888 373.365C149.354 374.456 146.827 375.349 145.501 375.044C144.29 374.769 143.505 372.708 142.964 372.037L142.993 372.066Z" fill="white"/>
<path fill-rule="evenodd" clip-rule="evenodd" d="M232.468 360.027C236.944 360.544 240.199 366.304 238.536 369.865C237.467 372.105 234.187 373.075 231.976 371.806C228.588 369.887 227.526 364.472 230.108 361.5C230.783 360.728 231.944 360.367 232.497 360.027L232.468 360.027Z" fill="white"/>
<path fill-rule="evenodd" clip-rule="evenodd" d="M131.623 332.613C133.533 332.492 135.533 334.481 135.393 336.443C135.182 339.445 133.995 341.943 131.514 343.761C129.034 345.551 125.496 344.034 124.869 340.964C124.105 337.2 127.658 332.824 131.623 332.613Z" fill="white"/>
<path fill-rule="evenodd" clip-rule="evenodd" d="M203.501 331.217C204.826 331.667 205.808 331.737 206.38 332.264C209.126 334.666 210.303 337.771 209.94 341.378C209.743 343.282 207.008 344.606 205.284 343.747C202.065 342.176 199.601 337.928 200.452 334.588C200.786 333.263 202.505 332.274 203.472 331.246L203.501 331.217Z" fill="white"/>
<path fill-rule="evenodd" clip-rule="evenodd" d="M190.042 362.71C190.615 363.15 191.995 363.745 192.648 364.793C193.328 365.899 193.598 367.433 193.61 368.791C193.634 371.593 191.432 374.224 189.349 374.313C186.716 374.425 184.072 370.753 184.487 367.581C184.871 364.582 186.833 362.584 190.013 362.681L190.042 362.71Z" fill="white"/>
<path fill-rule="evenodd" clip-rule="evenodd" d="M161.316 9.45856C172.97 2.38083 185.529 1.69801 198.234 3.27008C211.862 4.94019 224.233 10.1477 235.677 17.7414C253.833 29.8373 266.875 46.2897 277.341 65.1656C287.78 83.9834 292.506 104.088 292.358 125.462C292.321 133.203 292.514 141.004 291.898 148.709C290.298 168.245 293.97 187.009 299.323 205.59C303.233 219.099 307.173 232.58 311.2 246.061C313.755 254.643 315.15 263.413 315.967 272.262C316.76 280.648 315.877 288.899 314.128 297.081C313.115 301.863 311.929 306.586 310.8 311.338C308.149 322.34 301.658 330.406 291.676 335.54C287.136 337.881 282.314 339.641 277.081 341.888C278.305 343.521 279.355 345.093 280.61 346.495C286.829 353.447 291.154 361.473 294.14 370.291C299.858 387.317 302.302 404.881 302.486 422.792C302.5 423.948 302.544 425.104 302.414 426.229C302.089 429.171 300.475 431.058 297.607 431.485C295.637 431.778 293.613 431.753 291.589 431.728C205.052 430.545 118.545 429.363 32.0088 428.123C28.6259 428.081 25.1227 428.413 21.3596 426.374C20.0354 416.507 21.1406 406.613 22.7374 396.725C24.3027 387.039 27.5108 377.806 31.2368 368.782C35.0816 359.499 40.2766 350.955 46.9693 342.892C42.2485 341.13 38.3055 339.608 34.3329 338.143C25.6102 334.945 19.0902 329.001 14.0362 321.428C6.76756 310.535 2.17212 298.607 1.87404 285.258C1.67352 275.723 2.10803 266.283 4.88168 257.102C8.1982 246.109 11.4283 235.086 15.3781 224.331C19.4189 213.231 22.9978 202.067 25.1364 190.453C27.5844 177.195 30.2344 163.97 32.1341 150.619C33.3379 142.112 33.4158 133.448 33.7532 124.844C34.1805 113.642 34.6653 102.469 37.2587 91.4953C39.6393 81.3568 43.6601 71.8741 48.7169 62.8086C53.3892 54.4315 59.3509 47.0236 67.1127 41.3711C74.7582 35.7749 82.6315 30.4703 90.7025 25.5437C97.8118 21.2119 105.403 17.6948 112.654 13.6246C128.349 4.83471 144.567 2.89715 161.345 9.43003L161.316 9.45856ZM186.637 78.3167C188.268 79.7811 189.905 80.639 190.525 81.9753C191.737 84.5611 192.425 87.3715 193.201 90.1252C195.307 97.5748 197.238 105.08 199.46 112.502C201.905 120.591 206.126 127.721 211.803 134.001C219.876 142.997 228.389 151.508 238.425 158.42C241.952 160.832 245.096 163.846 248.27 166.745C250.958 169.176 252.279 172.312 252.234 175.951C252.181 180.254 252.359 184.589 251.843 188.858C250.647 199.126 249.305 209.451 243.699 218.51C240.689 223.383 237.507 228.168 234.124 232.805C226.329 243.513 216.085 251.128 203.848 256.147C202.366 256.765 201.109 257.847 199.477 258.895C201.995 265.743 204.199 272.27 206.752 278.656C209.473 285.449 213.74 291.192 219.672 295.569C225.92 300.153 232.167 304.765 238.532 309.176C248.711 316.205 258.802 323.349 267.132 332.608C268.644 334.302 270.399 335.017 272.455 334.812C274.713 334.608 276.975 334.116 279.179 333.537C285.852 331.799 290.481 326.917 295.621 322.821C298.425 320.573 300.426 317.767 301.451 314.429C304.583 304.271 307.313 293.993 307.878 283.312C308.484 271.736 306.917 260.422 303.584 249.318C299.278 235.024 295.059 220.703 290.956 206.354C285.633 187.772 282.047 169.01 283.473 149.472C284.237 139.169 284.104 128.798 283.942 118.483C283.695 103.373 280.578 88.8341 273.63 75.3165C270.354 68.9501 266.963 62.5823 263.134 56.5269C252.78 40.2232 239.292 27.0872 222.111 18.0652C205.963 9.60471 188.936 6.8528 171.205 11.8336C166.098 13.2727 161.378 13.7633 156.096 13.0049C144.347 11.3291 132.579 11.184 121.522 16.7381C106.129 24.4919 90.7919 32.3619 76.6153 42.2971C64.247 50.9836 55.4612 62.2851 49.5072 76.1057C43.3455 90.3571 41.0217 105.262 40.8904 120.599C40.7032 140.47 38.7841 160.089 34.7553 179.595C31.1566 197.055 27.1845 214.309 20.7901 231.013C16.6066 241.966 13.3429 253.365 10.7724 264.83C6.94737 281.883 8.7676 298.428 17.7141 313.963C23.6313 324.233 32.2534 330.896 43.4326 334.212C48.792 335.78 53.9982 335.7 58.6782 331.395C70.5249 320.449 83.5957 311.078 97.093 302.29C106.218 296.337 115.116 289.976 123.844 283.411C131.287 277.783 134.424 269.647 136.03 261.29C129.197 257.307 122.818 253.993 116.911 249.963C110.258 245.432 104.106 240.099 99.8253 233.143C96.2249 227.292 92.8583 221.242 89.7533 215.08C87.9752 211.534 86.6058 207.676 85.6123 203.822C82.8509 193.244 81.133 182.478 80.2263 171.576C79.4454 162.208 78.9767 160.353 90.546 160.178C108.768 159.883 123.899 147.562 128.859 129.916C130.039 125.685 130.681 125.259 135.461 124.567C138.85 124.06 142.41 123.844 145.549 122.583C164.323 114.986 177.785 102.067 184.646 82.7116C185.095 81.4173 185.805 80.184 186.666 78.317L186.637 78.3167ZM134.145 153.899C132.494 154.138 131.33 154.673 130.35 154.401C125.162 153.008 121.124 154.547 116.975 157.962C109.673 163.909 101.103 167.068 91.53 167.152C89.9104 167.161 88.3134 167.69 86.4583 168.043C85.3885 179.757 87.1322 190.784 90.9055 201.374C93.8678 209.729 97.8756 217.722 101.593 225.798C102.663 228.123 104.111 230.336 105.793 232.292C122.413 251.677 143.733 260.432 169.044 259.849C172.168 259.772 175.411 259.436 178.4 258.578C184.726 256.749 190.887 254.341 197.214 252.455C204.209 250.375 210.297 246.81 216.247 242.695C221.322 239.147 224.967 234.368 228.869 229.823C235.06 222.591 240.39 214.771 241.899 204.969C242.119 203.556 242.743 202.235 243.193 200.883C245.595 193.72 246.005 186.273 246.761 178.858C247.024 176.349 246.239 174.346 244.379 172.734C240.917 169.745 237.397 166.755 233.905 163.795C228.21 158.987 222.427 154.265 216.819 149.343C201.027 135.515 191.902 118.099 189.15 97.3256C189.018 96.3418 188.422 95.3813 187.861 93.9878C182.924 100.368 178.657 106.382 173.818 111.897C169.095 117.327 163.202 121.501 156.912 125.063C150.33 128.795 143.305 131.019 136.238 131.856C133.244 137.856 130.456 143.455 127.58 149.225C129.646 150.522 133.07 149.639 134.144 153.986L134.145 153.899ZM191.618 300.596C195.42 306.507 200.777 305.88 205.358 307.236C207.058 307.748 209.351 307.083 211.124 306.383C215.192 304.758 215.797 300.288 212.593 297.446C208.788 294.077 205.013 290.651 200.895 286.961C199.704 287.38 198.106 287.966 196.51 288.438C189.922 290.379 183.302 292.55 176.336 292.291C168.3 291.989 160.294 291.631 152.292 290.954C147.439 290.548 142.682 289.392 138.405 286.797C137.028 285.942 135.533 285.231 134.355 284.609C130.915 286.878 128.029 288.749 125.2 290.649C124.267 291.273 123.333 291.984 122.542 292.783C120.142 295.151 121.17 298.543 124.456 299.364C127.08 300.031 129.598 299.802 131.985 298.561C134.023 297.488 135.889 296.183 137.955 295.197C139.409 294.493 141.061 294.196 143.094 293.527C143.276 295.176 143.58 296.277 143.423 297.287C143.171 298.988 142.341 300.595 142.234 302.269C142.021 305.502 142.531 308.657 145.544 310.6C148.671 312.603 151.907 312.845 155.285 310.922C159.071 308.774 162.4 306.157 164.903 302.52C165.609 301.517 166.946 300.985 168.259 300.048C169.495 303.01 170.245 305.445 171.462 307.627C175.254 314.346 183.231 314.676 187.589 308.317C188.856 306.484 189.692 304.328 191.618 300.567L191.618 300.596ZM143.293 263.258C141.285 269.01 139.607 273.784 137.899 278.645C142.386 282.889 147.546 284.252 153.094 284.581C158.266 284.904 163.473 284.795 168.554 285.464C177.648 286.674 186.259 284.874 194.711 281.887C196.192 281.357 197.422 280.101 198.735 279.222C197.678 275.771 196.819 272.728 195.844 269.74C194.925 266.869 194.965 263.606 192.57 260.861C176.615 267.308 160.35 266.01 143.265 263.257L143.293 263.258ZM97.9564 323.734C97.4359 323.728 96.8295 323.662 96.3069 323.829C92.243 325.079 88.0932 330.949 88.3024 335.083C88.4217 337.135 90.5985 338.837 92.485 338.283C97.3039 336.782 100.008 333.205 101.625 328.748C102.373 326.706 100.237 324.022 97.9557 323.792L97.9564 323.734ZM55.4363 369.167C56.5389 368.863 57.1468 368.813 57.613 368.529C61.2257 366.35 63.262 363.024 64.2075 359.05C64.6954 357.005 61.9496 354.544 59.8632 354.894C55.4013 355.59 51.3686 361.347 52.5866 365.752C52.9747 367.115 54.5524 368.145 55.4363 369.167ZM170.492 339.331C170.541 335.404 169.091 333.364 166.955 333.077C164.616 332.76 162.924 333.981 162.206 335.907C161.368 338.237 160.874 340.801 160.67 343.283C160.528 345.361 162.3 347.087 164.232 347.487C166.136 347.857 168.261 346.756 168.951 344.743C169.7 342.615 170.161 340.396 170.464 339.302L170.492 339.331ZM272.68 368.177C272.314 365.024 271.057 361.369 267.473 358.927C265.896 357.839 263.109 358.671 262.279 360.337C259.997 364.844 263.298 371.47 268.319 372.37C270.281 372.712 272.441 371.092 272.68 368.177ZM100.841 359.501C99.6829 359.603 99.1054 359.538 98.5542 359.675C94.6649 360.841 91.8533 366.063 92.9621 369.947C93.7939 372.846 97.7433 373.848 99.8528 371.621C102.314 369.023 103.654 365.862 103.033 362.272C102.845 361.144 101.468 360.231 100.841 359.472L100.841 359.501ZM245.094 335.196C244.721 332.621 242.966 329.508 240.134 326.989C239.019 325.993 237.433 325.627 236.264 326.653C235.299 327.479 234.125 328.908 234.227 329.978C234.581 334.142 236.593 337.46 240.502 339.357C242.83 340.512 245.337 338.926 245.123 335.197L245.094 335.196ZM142.993 372.066C143.505 372.737 144.318 374.798 145.529 375.073C146.856 375.378 149.383 374.485 149.917 373.394C151.252 370.666 152.042 367.556 152.455 364.528C152.582 363.635 150.983 361.968 149.86 361.608C148.765 361.248 146.909 361.716 146.06 362.543C143.66 364.824 142.9 367.906 143.021 372.096L142.993 372.066ZM232.469 360.027C231.915 360.367 230.754 360.728 230.079 361.499C227.498 364.472 228.559 369.886 231.947 371.806C234.158 373.075 237.438 372.076 238.507 369.865C240.199 366.304 236.944 360.544 232.44 360.026L232.469 360.027ZM131.623 332.613C127.658 332.853 124.105 337.228 124.869 340.964C125.496 344.034 129.034 345.551 131.514 343.761C133.995 341.972 135.211 339.445 135.393 336.443C135.533 334.481 133.533 332.492 131.623 332.613ZM203.501 331.217C202.505 332.245 200.816 333.235 200.481 334.559C199.601 337.928 202.094 342.147 205.313 343.718C207.067 344.577 209.772 343.282 209.969 341.349C210.332 337.743 209.156 334.638 206.409 332.235C205.837 331.737 204.855 331.667 203.53 331.189L203.501 331.217ZM190.042 362.71C186.833 362.613 184.9 364.611 184.516 367.61C184.101 370.754 186.745 374.426 189.378 374.343C191.461 374.253 193.633 371.622 193.639 368.82C193.656 367.463 193.386 365.929 192.676 364.822C192.024 363.774 190.643 363.18 190.07 362.739L190.042 362.71Z" fill="#1D262D"/>
<path fill-rule="evenodd" clip-rule="evenodd" d="M148.667 54.9421C147.855 64.551 146.616 73.5192 141.919 81.6071C137.959 88.4619 131.665 92.3128 124.18 94.3002C121.424 95.0462 118.584 95.4733 115.396 96.0984C114.84 98.9223 114.487 101.749 113.731 104.426C110.345 116.372 103.495 125.502 91.8658 130.529C87.3014 132.495 82.5471 133.447 77.5893 132.144C76.8686 131.962 76.2686 131.376 74.9196 130.551C76.2321 129.643 76.9646 128.872 77.8648 128.565C81.1456 127.508 84.5091 126.77 87.7624 125.597C100.369 121.015 108.137 110.163 108.533 96.8514C108.68 91.9427 109.591 90.7407 114.143 89.8436C116.404 89.4093 118.718 89.2934 120.951 88.8299C130.431 86.867 136.976 81.4306 140.126 72.1971C141.146 69.2055 141.907 66.153 142.927 63.1615C143.767 60.7166 144.693 58.3016 145.791 56.0043C146.029 55.4873 147.215 55.4441 148.638 54.9417L148.667 54.9421Z" fill="#1D262D"/>
<path fill-rule="evenodd" clip-rule="evenodd" d="M275.059 304.196C280.091 294.755 280.888 291.096 280.462 283.436C280.156 277.771 278.164 272.864 274.34 268.687C273.37 267.635 272.253 266.725 271.312 265.645C269.117 263.134 268.907 261.369 270.531 258.674C271.268 257.47 272.236 256.384 273.089 255.239C276.94 250.174 277.238 244.747 274.589 239.082C273.378 236.496 271.963 233.994 270.722 231.408C270.102 230.13 269.424 228.792 269.181 227.432C268.991 226.418 269.098 224.802 269.711 224.29C271.113 223.181 272.4 224.323 273.194 225.575C275.521 229.185 277.994 232.711 279.942 236.519C283.472 243.351 283.619 250.227 279.372 256.934C278.458 258.367 277.573 259.801 276.511 261.521C277.933 263.416 279.328 265.166 280.636 266.973C287.288 276.299 288.233 286.478 285.121 297.243C284.215 300.409 282.476 303.016 279.252 304.19C278.323 304.525 277.17 304.222 275.088 304.196L275.059 304.196Z" fill="#1D262D"/>
<path fill-rule="evenodd" clip-rule="evenodd" d="M100.953 259.673C99.8933 258.852 98.6582 258.172 97.8029 257.179C91.2461 249.53 87.5389 240.617 87.4315 230.563C87.3571 224.872 88.2368 219.192 88.8853 213.51C89.3071 209.789 89.7542 206.357 87.1941 202.917C81.2202 194.899 81.1874 185.829 83.874 176.676C84.9908 172.877 86.8858 169.29 88.6358 165.73C88.9621 165.069 90.266 164.854 92.4481 163.783C91.4287 166.717 90.7159 168.239 90.3786 169.795C89.2758 174.808 88.0862 179.819 87.3585 184.894C86.5665 190.488 87.7728 195.847 91.2747 200.309C94.3782 204.247 95.1069 208.474 94.21 213.2C93.8388 215.159 93.6118 217.15 93.327 219.139C91.7407 230.53 93.6603 241.357 98.7098 251.644C99.8382 253.94 100.908 256.264 102.008 258.589C101.656 258.96 101.304 259.331 100.953 259.702L100.953 259.673Z" fill="#1D262D"/>
<path fill-rule="evenodd" clip-rule="evenodd" d="M257.044 125.864C255.568 121.282 254.245 118.406 253.732 115.396C251.898 104.656 246.72 95.4358 240.727 86.6384C235.245 78.5695 229.384 70.7847 223.698 62.8576C222.874 61.7209 221.817 60.6103 223.403 58.6367C224.437 59.1983 225.85 59.5334 226.678 60.4102C238.728 72.8641 249.027 86.5674 256.148 102.427C258.906 108.527 259.519 115.12 259.061 121.787C259.023 122.538 258.349 123.223 257.016 125.835L257.044 125.864Z" fill="#1D262D"/>
<path fill-rule="evenodd" clip-rule="evenodd" d="M48.8734 240.053C50.2053 242.265 48.3638 243.86 47.62 245.555C44.4947 252.767 43.0135 260.317 42.8888 268.085C42.6639 281.63 46.8173 289.538 58.1681 297.708C54.5011 299.599 53.139 299.842 50.1583 297.667C47.6649 295.846 45.3796 293.565 43.4723 291.115C40.4263 287.206 38.9798 282.567 38.2015 277.675C36.1851 265.316 38.5828 253.792 44.3855 242.858C45.2739 241.164 45.36 241.223 48.8734 240.053Z" fill="#1D262D"/>
<path fill-rule="evenodd" clip-rule="evenodd" d="M70.6255 82.4611C71.46 80.4494 71.9786 78.2605 73.1283 76.4837C80.0251 65.9388 89.5178 58.2856 100.578 52.5004C101.975 51.7666 103.723 50.7483 105.252 53.3957C104.067 55.6342 101.286 56.0621 99.3591 57.5404C97.3155 59.1039 95.1867 60.5508 93.1431 62.1143C91.1282 63.7071 89.1414 65.358 87.2117 67.0673C85.5159 68.5773 83.8479 70.1744 82.2948 71.8306C80.5368 73.6865 78.8928 75.6882 77.163 77.6022C75.4914 79.4881 73.8198 81.3739 72.1479 83.2887C71.6307 83.0223 71.1138 82.7271 70.5966 82.4607L70.6255 82.4611Z" fill="#1D262D"/>
<path fill-rule="evenodd" clip-rule="evenodd" d="M225.864 109.968C224.895 108.887 223.807 108.007 223.155 106.902C218.056 98.2887 213.016 89.6186 207.975 80.9773C207.692 80.4828 207.236 79.8995 207.329 79.4095C207.454 78.6601 207.811 77.8557 208.309 77.313C208.514 77.0844 209.496 77.1832 209.869 77.4766C210.756 78.1808 211.644 78.9428 212.268 79.8748C217.492 87.7673 222.278 95.9143 225.755 104.738C226.26 106.045 226.445 107.462 226.688 108.852C226.714 109.054 226.393 109.31 225.893 109.968L225.864 109.968Z" fill="#1D262D"/>
<path fill-rule="evenodd" clip-rule="evenodd" d="M252.009 273.871C250.773 273.306 249.936 273.181 249.882 272.862C248.294 265.592 243.945 259.53 241.194 252.795C241.138 252.621 241.373 252.306 241.521 252.077C241.668 251.876 241.93 251.735 242.134 251.564C246.61 254.422 249.289 257.632 251.537 262.888C252.999 266.315 254.084 269.794 252.038 273.871L252.009 273.871Z" fill="#1D262D"/>
<path fill-rule="evenodd" clip-rule="evenodd" d="M163.579 170.611C163.355 172.37 163.06 175.198 162.621 177.994C162.15 180.964 160.648 183.227 158.025 184.87C156.364 185.918 154.758 187.169 153.467 188.627C151.708 190.569 151.854 192.853 153.826 194.726C155.684 196.482 157.864 197.896 159.751 199.652C160.752 200.589 161.633 201.784 162.225 203.033C162.394 203.411 161.451 204.872 160.988 204.895C154.796 205.137 146.863 198.915 145.806 193.125C145.212 189.767 146.518 186.981 148.43 184.376C149.107 183.46 149.786 182.284 150.745 181.921C157.429 179.23 157.472 173.424 157.803 167.651C157.95 165.111 158.213 162.544 158.822 160.096C159.005 159.347 160.371 158.757 161.33 158.423C161.562 158.339 162.589 159.507 162.667 160.172C163.062 163.297 163.226 166.418 163.579 170.669L163.579 170.611Z" fill="#1D262D"/>
<path fill-rule="evenodd" clip-rule="evenodd" d="M164.3 227.092C156.12 226.76 149.88 226.278 144.162 223.262C143.186 222.73 142.269 222.025 141.469 221.235C141.155 220.914 140.992 220.074 141.199 219.672C141.555 218.983 142.291 217.895 142.782 217.93C144.718 218.069 146.65 218.526 148.553 219.012C157.547 221.289 166.532 221.978 175.534 218.94C176.318 218.69 177.246 218.441 177.996 218.624C178.716 218.806 179.576 219.423 179.886 220.091C180.196 220.731 180.212 221.829 179.857 222.431C178.497 224.84 176.142 225.938 173.535 226.281C169.857 226.727 166.153 226.941 164.329 227.092L164.3 227.092Z" fill="#1D262D"/>
<path fill-rule="evenodd" clip-rule="evenodd" d="M118.499 179.79C118.864 178.292 119.089 176.533 119.772 175.01C120.487 173.373 121.887 172.35 123.825 172.345C125.734 172.34 127.197 173.253 127.928 174.938C129.222 177.929 129.531 180.995 127.932 184.037C126.925 185.96 125.378 187.125 123.208 187.214C121.53 187.28 119.615 185.407 119.12 183.35C118.845 182.249 118.743 181.093 118.528 179.79L118.499 179.79Z" fill="#1D262D"/>
<path fill-rule="evenodd" clip-rule="evenodd" d="M195.278 179.581C196.02 178.059 196.769 175.931 197.949 174.097C198.951 172.578 202.332 172.764 203.239 174.249C205.11 177.276 205.851 180.52 204.391 183.969C203.558 185.923 201.518 187.197 199.671 186.886C197.795 186.574 196.683 185.318 196.096 183.606C195.734 182.533 195.632 181.405 195.25 179.581L195.278 179.581Z" fill="#1D262D"/>
<path fill-rule="evenodd" clip-rule="evenodd" d="M192.567 148.582C195.341 143.995 198.75 144.297 201.981 144.943C204.692 145.496 207.515 146.427 207.288 150.728C202.641 150.064 198.282 149.404 192.538 148.582L192.567 148.582Z" fill="#1D262D"/>
</g>
<defs>
<clipPath id="clip0_4_31">
<rect width="314.342" height="427.881" fill="white" transform="translate(5.30086 0.313293) rotate(0.70649)"/>
</clipPath>
</defs>
</svg>
