<svg width="275" height="463" viewBox="0 0 275 463" fill="none" xmlns="http://www.w3.org/2000/svg">
<g clip-path="url(#clip0_4_2)">
<path fill-rule="evenodd" clip-rule="evenodd" d="M265.505 422.77C264.522 409.095 260.618 396.143 255.796 383.394C252.772 375.366 247.532 368.891 241.352 363.372C236.802 359.315 231.374 356.855 224.62 358.809C214.029 361.912 203.094 363.763 193.049 368.756C181.423 374.515 169.457 379.636 157.775 385.313C154.223 387.044 150.768 387.13 147.303 386.129C142.805 384.831 138.387 383.114 134.052 381.34C130.976 380.086 128.036 378.523 125.124 376.932C113.839 370.816 101.821 366.77 89.2846 364.093C89.0055 364.039 88.6716 364.098 88.4756 363.988C81.4155 359.731 73.5394 360.915 65.8991 360.396C60.3778 359.999 54.8269 359.407 49.4381 358.228C44.5239 357.156 40.5504 358.473 37.3185 361.734C34.0313 365.051 30.9422 368.701 28.3849 372.625C24.3153 378.875 20.6383 385.401 19.367 392.964C18.9957 395.113 18.0663 397.184 17.3044 399.281C13.5509 409.792 11.6678 420.677 11.0408 431.802C10.8497 435.426 10.4356 439.053 10.0511 442.874C14.0283 445.152 18.2803 446.982 22.5584 448.617C42.8301 456.325 65.2595 459.027 86.7854 460.399C113.553 462.115 140.496 461.516 167.199 458.997C192.009 456.633 216.975 453.126 240.907 445.977C249.69 443.363 258.47 440.36 266.598 436.109C266.225 431.681 265.851 427.253 265.534 422.825L265.505 422.77ZM36.442 414.301C35.9021 416.284 35.2365 419.829 33.8999 423.129C32.4272 426.793 29.04 428.244 25.8817 427.185C22.7793 426.153 21.0783 422.852 21.9651 419.11C22.8517 415.34 24.0455 411.651 26.6666 408.646C28.6257 406.427 31.1556 405.736 33.3098 406.692C35.6879 407.758 36.7363 409.728 36.442 414.301ZM40.9024 385.892C40.8117 385.085 40.888 384.248 40.8748 382.743C41.1381 380.985 41.3671 378.503 41.9036 376.129C42.3597 374.119 43.7696 372.825 45.9133 372.583C48.0846 372.313 49.627 373.414 50.6458 375.189C52.6548 378.655 52.8558 382.499 52.4158 386.348C52.0797 389.333 49.7566 391.36 46.8869 391.441C43.8225 391.551 41.238 389.205 40.8748 385.92L40.9024 385.892ZM53.7075 444.637C50.498 444.108 47.9645 441.204 47.7391 437.75C47.4832 433.99 49.9053 430.541 53.354 429.758C55.7736 429.208 58.4888 430.577 59.2896 432.911C59.633 433.939 59.7262 435.025 59.9308 436.11C60.1351 437.168 60.3676 438.252 60.5431 439.198C60.5727 442.57 57.1403 445.22 53.7077 444.665L53.7075 444.637ZM68.4473 406.273C67.6292 408.314 66.7001 410.412 65.3494 412.096C64.4122 413.275 62.6892 413.82 61.8576 414.329C58.2647 414.555 55.6546 412.46 55.2119 409.649C54.6231 406.06 56.7841 401.442 59.8618 399.66C62.0522 398.386 65.0084 398.639 66.8064 400.295C68.5766 401.952 69.375 404.007 68.4197 406.301L68.4473 406.273ZM74.0654 389.112C70.471 385.995 69.9308 378.419 73.0754 374.741C74.5926 372.972 76.5906 372.007 78.9372 372.655C81.1718 373.249 82.9399 374.655 83.5174 376.963C84.0376 379.076 84.1684 381.276 84.2894 382.362C84.304 384.034 84.3368 384.591 84.3136 385.121C84.1669 387.463 83.3486 389.477 80.9873 390.334C78.5149 391.219 76.1155 390.906 74.0375 389.113L74.0654 389.112ZM97.0379 431.493C95.2396 432.986 93.1563 433.757 90.9461 432.773C86.1342 430.641 83.0915 426.878 82.2655 421.674C81.6762 418.028 84.243 415.191 88.4773 415.015C89.1757 415.204 90.7361 415.19 91.7459 415.934C95.1115 418.384 97.7864 421.51 98.9091 425.597C99.5141 427.849 98.8917 429.972 97.0101 431.493L97.0379 431.493ZM116.346 446.902C116.137 451.614 113.212 454.928 109.669 454.485C106.237 454.041 104.119 450.911 104.221 446.59C104.282 443.998 105.127 441.817 107.09 440.1C110.381 437.228 114.964 438.637 116.004 442.892C116.264 443.949 116.33 445.035 116.36 445.313C116.37 446.4 116.372 446.679 116.374 446.93L116.346 446.902ZM115.112 401.544C113.304 401.894 111.159 402.052 109.537 401.398C105.818 399.87 103.422 396.825 102.246 392.99C101.442 390.349 102.312 387.833 104.278 386.339C106.271 384.845 109.027 384.542 111.133 386.335C113.604 388.431 115.716 390.976 117.8 393.466C118.448 394.241 118.515 395.494 118.658 395.911C118.738 398.725 117.282 401.107 115.112 401.516L115.112 401.544ZM128.122 429.632C125.285 430.298 122.036 428.431 121.144 425.151C120.568 423.066 120.464 420.781 120.585 418.635C120.73 416.153 122.529 414.744 124.78 414.027C126.642 413.426 129.466 414.432 130.514 416.429C131.62 418.566 132.198 420.985 132.598 422.096C132.526 426.584 130.764 429.024 128.122 429.66L128.122 429.632ZM140.14 401.882C140.455 399.649 140.473 398.507 140.77 397.473C141.475 395.237 142.91 393.636 145.331 393.225C147.752 392.813 149.739 393.688 151.066 395.683C153.269 399.035 153.943 402.819 153.643 406.751C153.443 409.401 151.567 411.479 149.119 412.002C146.393 412.584 143.905 411.686 142.686 409.384C141.298 406.776 140.742 403.771 140.112 401.882L140.14 401.882ZM160.372 430.464C158.036 434.135 155.84 437.944 153.082 441.285C151.097 443.699 147.724 443.617 145.702 441.851C143.905 440.306 143.211 437.442 144.668 435.088C146.536 432.09 148.713 429.256 151.059 426.616C152.769 424.678 155.298 423.792 157.785 424.634C159.071 425.069 160.004 426.593 160.903 427.449C160.693 428.873 160.785 429.819 160.372 430.464ZM170.915 406.07C170.668 403.314 173.236 400.644 176.302 400.7C176.833 400.835 177.78 400.827 178.425 401.267C182.181 403.742 185.192 407.004 186.817 411.226C188.015 414.337 184.423 417.824 180.906 417.214C176.692 416.498 171.288 410.47 170.915 406.07ZM197.776 440.614C196.148 442.496 194.094 443.322 191 443.293C187.486 443.017 183.831 442.464 181.133 439.868C180.093 438.846 179.351 436.958 179.394 435.508C179.46 433.473 181.034 431.843 183.094 431.546C188.187 430.833 192.965 432.24 197.307 434.794C199.268 435.947 199.349 438.817 197.776 440.642L197.776 440.614ZM201.203 389.725C198.976 393.144 194.202 392.183 192.72 388.35C191.436 385.045 193.21 377.589 195.782 375.281C198.104 373.198 202.207 373.859 203.541 376.662C204.109 377.855 204.344 379.247 204.918 381.165C203.799 383.822 202.936 387.09 201.176 389.753L201.203 389.725ZM218.249 417.276C217.541 419.122 215.824 420.335 213.735 420.437C211.256 420.598 209.405 419.332 208.411 417.195C206.395 412.866 206.83 408.542 209.303 404.535C211.282 401.341 216.438 401.407 218.472 404.594C219.32 405.952 219.669 407.621 220.325 409.316C219.652 411.969 219.23 414.704 218.249 417.248L218.249 417.276ZM225.653 374.935C227.434 371.52 232.53 371.001 234.509 374.3C235.867 376.601 236.504 379.327 237.274 381.355C237.011 383.113 236.937 384.228 236.64 385.262C235.72 388.475 232.193 389.815 229.391 388.056C225.356 385.556 223.515 379.051 225.653 374.935ZM245.579 422.666C244.783 427.187 242.315 431.779 238.783 435.795C236.769 438.07 233.539 438.377 231.213 436.949C228.888 435.548 228.138 432.684 229.672 429.605C231.288 426.386 233.156 423.304 235.108 420.277C235.822 419.156 236.9 418.144 238.036 417.381C239.671 416.28 241.476 415.568 243.466 416.832C245.091 417.877 245.83 419.459 245.607 422.638L245.579 422.666ZM251.424 409.126C248.124 410.939 244.414 410.581 242.276 408.231C240.39 406.158 241.164 402.277 243.747 401.196C244.746 400.769 245.86 400.675 246.305 400.56C250.513 400.579 252.894 401.923 253.639 404.286C254.184 406.092 253.282 408.079 251.424 409.098L251.424 409.126Z" fill="white"/>
<path fill-rule="evenodd" clip-rule="evenodd" d="M59.1923 193.108C61.7535 192.806 63.8965 192.481 66.0409 192.323C67.684 192.197 69.3865 192.489 71.001 192.279C76.5963 191.589 80.8121 189.295 82.5989 183.316C84.3314 177.504 86.6506 171.854 88.83 166.15C89.6203 164.109 90.662 162.149 91.7835 159.742C96.5629 158.168 101.509 156.564 106.372 154.988C107.19 152.835 105.952 151.564 104.305 151.188C101.931 150.68 99.4517 150.729 96.6353 150.531C96.9313 149.33 96.9773 148.215 97.4153 147.32C104.51 133.268 111.576 119.188 118.866 105.218C121.69 99.8424 125.129 94.7681 128.204 89.5298C130.565 85.4961 134.083 83.0686 138.78 81.6061C143.835 86.0485 148.032 91.1115 151.315 96.8793C156.126 105.309 160.771 113.796 165.388 122.311C169.609 130.105 173.719 137.955 177.828 145.778C178.707 147.47 179.419 149.248 180.214 150.968C178.947 152.652 177.594 154.029 176.772 155.68C176.471 156.296 177.24 158.129 177.854 158.318C179.643 158.86 181.593 158.843 183.936 159.101C187.375 166.735 191.51 174.251 193.951 182.45C195.53 187.731 198.84 190.21 203.946 190.946C207.239 191.419 210.557 191.64 213.823 192.225C220.158 193.34 222.417 196.636 220.993 202.752C217.585 217.635 212.918 232.028 204.784 245.198C196.019 259.404 184.379 269.901 168.372 275.057C159.869 277.779 151.013 278.526 142.122 278.381C135.768 278.269 129.409 277.684 123.052 277.433C113.992 277.067 105.799 273.85 97.7945 269.963C94.0163 268.129 90.7052 265.539 88.2229 262.133C82.2145 253.853 76.3167 245.489 70.3911 237.124C69.9116 236.46 69.487 235.711 69.2015 234.933C64.5499 222.489 60.3429 209.902 58.8606 196.594C58.7699 195.787 58.9577 194.949 59.0806 193.081L59.1923 193.108ZM119.695 240.928C121.482 244.563 123.157 248.06 124.915 251.5C130.557 262.458 149.34 265.721 157.674 253.163C158.582 251.79 159.601 250.443 160.425 249.015C165.366 240.444 162.984 235.811 153.282 235.394C148.32 235.187 143.304 235.203 138.346 235.469C133.667 235.733 128.991 236.443 124.341 236.93C122.226 237.171 120.758 238.243 119.695 240.928ZM155.058 215.453C154.12 216.548 153.571 217.5 152.74 218.065C151.189 219.165 149.3 219.851 147.862 221.09C146.949 221.878 145.987 223.335 146.052 224.45C146.153 226.372 147.941 226.913 149.698 227.009C155.358 227.378 158.98 224.113 161.925 219.907C164.072 216.851 163.82 213.537 161.482 210.715C159.933 208.833 157.94 207.262 155.949 205.831C153.313 203.931 151.731 201.548 151.369 198.346C150.973 194.504 150.661 190.689 150.209 186.847C150.028 185.232 149.735 183.618 149.192 182.09C148.992 181.507 147.983 180.903 147.286 180.853C146.589 180.831 145.562 181.286 145.233 181.847C144.574 182.995 143.945 184.338 143.873 185.649C143.653 189.218 143.824 192.811 143.688 196.379C143.467 202.93 145.798 208.177 151.182 212.031C152.473 212.967 153.57 214.156 155.03 215.453L155.058 215.453ZM174.858 194.796C175.324 197.077 175.481 199.027 176.137 200.804C177.564 204.61 182.279 205.181 184.73 201.955C187.65 198.084 187.616 191.006 184.685 187.213C182.374 184.252 178.168 184.539 176.582 187.981C175.598 190.164 175.369 192.674 174.858 194.768L174.858 194.796ZM112.033 196.685C111.568 194.487 111.326 192.316 110.584 190.288C109.299 186.788 105.225 186.155 102.657 188.908C99.2611 192.533 99.2728 200.225 102.679 204.068C104.846 206.502 108.827 206.021 110.193 202.999C111.068 201.041 111.411 198.864 112.033 196.685Z" fill="white"/>
<path fill-rule="evenodd" clip-rule="evenodd" d="M227.43 351.929C224.791 352.871 221.781 352.898 218.855 352.951C215.177 353.012 211.844 354.183 208.426 355.328C190.781 361.168 174.131 369.256 157.596 377.623C153.545 379.665 149.956 380.365 145.788 378.534C140.221 376.103 134.462 374.091 129.032 371.408C120.328 367.109 111.488 363.285 101.939 361.223C100.069 360.821 98.1962 360.225 96.4888 359.376C89.1272 355.678 81.2327 354.772 73.1751 354.341C67.3759 354.03 61.576 353.635 55.8034 353.184C54.7995 353.109 53.8469 352.532 52.03 351.907C58.5046 346.611 63.7783 341.019 70.1774 336.643C78.8479 330.715 87.3773 324.565 95.9349 318.47C98.1781 316.862 100.365 315.143 102.551 313.452C109.112 308.406 113.569 301.901 115.98 293.966C116.927 290.808 117.987 287.678 119.099 284.156C120.519 284.06 121.854 283.742 123.109 283.926C136.672 286.037 150.125 285.306 163.504 282.318C164.505 282.086 165.621 282.271 167.07 282.259C167.788 284.705 168.394 287.096 169.195 289.402C170.825 294.097 172.371 298.821 174.306 303.403C177.038 309.872 181.128 315.465 186.767 319.708C192.49 324.033 198.406 328.133 204.239 332.318C210.97 337.164 217.728 341.981 224.376 346.939C225.779 347.986 227.877 348.859 227.43 351.929Z" fill="white"/>
<path fill-rule="evenodd" clip-rule="evenodd" d="M128.594 242.048C137.954 241.66 146.618 241.249 155.404 242.147C153.08 250.417 148.879 254.383 142.665 254.521C135.7 254.694 131.405 251.109 128.566 242.048L128.594 242.048Z" fill="white"/>
<path fill-rule="evenodd" clip-rule="evenodd" d="M273.866 441.897L267.764 441.951C267.366 441.118 266.944 440.648 266.912 440.147C266.415 434.355 265.918 428.563 265.505 422.742C264.521 409.067 260.618 396.115 255.796 383.366C252.772 375.338 247.532 368.863 241.352 363.344C236.802 359.287 231.374 356.827 224.619 358.781C214.029 361.884 203.093 363.735 193.049 368.728C181.423 374.487 169.457 379.609 157.774 385.285C154.222 387.016 150.768 387.102 147.303 386.101C142.805 384.803 138.387 383.086 134.052 381.313C130.975 380.058 128.036 378.495 125.123 376.904C113.839 370.789 101.82 366.742 89.2844 364.065C89.0052 364.012 88.6713 364.07 88.4753 363.96C81.4153 359.703 73.5391 360.887 65.8988 360.369C60.3775 359.971 54.8266 359.379 49.4378 358.2C44.5237 357.128 40.5502 358.445 37.3183 361.706C34.0311 365.023 30.9419 368.673 28.3847 372.597C24.3151 378.848 20.638 385.373 19.3667 392.936C18.9954 395.086 18.0661 397.156 17.3042 399.253C13.5507 409.764 11.6676 420.649 11.0406 431.774C10.8006 436.179 10.254 440.587 9.8221 445.356C8.0123 445.539 6.5364 445.664 4.72661 445.847C4.39955 443.509 3.96494 441.618 3.89283 439.751C3.46384 425.793 4.95952 412.041 9.69274 398.846C12.5492 390.906 13.3969 382.706 13.8261 374.453C15.3267 345.373 13.3716 316.296 13.1167 287.232C12.8737 259.533 13.1601 231.83 13.363 204.127C13.4644 190.276 14.151 176.42 14.0295 162.57C13.7929 141.95 16.039 121.615 20.0704 101.486C23.4605 84.485 30.1775 68.7085 39.5523 54.107C41.7791 50.6318 44.5097 47.403 47.4099 44.4514C56.2489 35.484 58.97 34.3454 71.3078 33.4847C71.7507 33.1464 72.3061 32.9186 72.6089 32.4979C81.3626 20.1592 93.7873 13.3061 107.85 8.94682C113.937 7.05413 120.023 5.21718 126.11 3.35236C134.809 0.684312 143.584 0.272916 152.329 2.87153C163.45 6.20173 174.572 9.64341 185.556 13.3928C192.936 15.9198 199.74 19.6223 205.693 24.7535C206.535 25.4707 207.378 26.1879 208.303 26.7929C229.969 41.0384 242.277 62.1102 250.483 85.8375C252.971 93.0614 253.264 101.057 254.362 108.739C257.211 128.5 258.751 148.384 260.096 168.298C262.018 196.763 264.497 225.194 266.502 253.658C267.107 262.208 267.043 270.82 267.174 279.402C267.469 297.123 267.485 314.875 268.058 332.594C268.672 351.706 269.759 370.786 270.595 389.869C270.665 391.484 270.653 393.24 270.136 394.749C268.914 398.327 269.25 401.724 270.062 405.312C272.672 416.966 273.167 428.861 273.95 441.869L273.866 441.897ZM59.1923 193.108C59.0691 194.948 58.8816 195.814 58.9723 196.621C60.4546 209.929 64.6616 222.516 69.3132 234.96C69.5987 235.738 70.0509 236.459 70.5029 237.151C76.4282 245.488 82.3259 253.852 88.3347 262.16C90.8169 265.566 94.128 268.156 97.9062 269.99C105.91 273.849 114.104 277.094 123.164 277.46C129.52 277.711 135.879 278.296 142.234 278.408C151.125 278.581 159.981 277.806 168.484 275.084C184.491 269.955 196.131 259.458 204.896 245.225C213.029 232.055 217.669 217.69 221.105 202.779C222.501 196.663 220.242 193.367 213.934 192.252C210.669 191.667 207.35 191.446 204.058 190.973C198.952 190.265 195.641 187.758 194.062 182.477C191.622 174.278 187.487 166.762 184.048 159.128C181.677 158.87 179.754 158.887 177.966 158.345C177.351 158.156 176.611 156.295 176.884 155.707C177.706 154.056 179.031 152.651 180.326 150.995C179.531 149.274 178.818 147.497 177.94 145.805C173.83 137.954 169.72 130.104 165.5 122.338C160.883 113.823 156.21 105.336 151.427 96.9062C148.143 91.1385 143.974 86.0752 138.891 81.633C134.195 83.0955 130.704 85.4949 128.315 89.5567C125.24 94.8229 121.801 99.8693 118.978 105.245C111.688 119.215 104.621 133.294 97.527 147.346C97.0611 148.242 97.0152 149.357 96.747 150.558C99.5636 150.784 102.043 150.707 104.416 151.215C106.064 151.563 107.329 152.834 106.484 155.015C101.621 156.591 96.6749 158.222 91.8952 159.769C90.7738 162.176 89.7041 164.136 88.9417 166.177C86.79 171.853 84.4429 177.503 82.7106 183.343C80.9238 189.322 76.7078 191.588 71.1127 192.306C69.4703 192.516 67.7957 192.224 66.1526 192.35C64.0082 192.508 61.8652 192.833 59.304 193.135L59.1923 193.108ZM227.43 351.929C227.877 348.859 225.807 347.986 224.376 346.939C217.728 341.981 210.97 337.164 204.239 332.318C198.405 328.105 192.49 324.033 186.767 319.708C181.128 315.465 177.038 309.872 174.306 303.403C172.371 298.821 170.825 294.097 169.195 289.402C168.394 287.096 167.788 284.705 167.07 282.259C165.621 282.271 164.533 282.086 163.504 282.318C150.125 285.278 136.699 286.009 123.109 283.926C121.854 283.742 120.519 284.06 119.099 284.156C117.959 287.678 116.927 290.808 115.98 293.966C113.569 301.901 109.112 308.406 102.551 313.452C100.365 315.143 98.206 316.862 95.9349 318.47C87.3773 324.565 78.8482 330.743 70.1774 336.643C63.7783 341.019 58.5046 346.611 52.03 351.907C53.8469 352.532 54.7995 353.109 55.8034 353.183C61.576 353.634 67.3762 354.057 73.1751 354.341C81.2327 354.772 89.1272 355.678 96.4889 359.376C98.1962 360.225 100.069 360.821 101.939 361.223C111.488 363.285 120.328 367.109 129.032 371.408C134.462 374.091 140.221 376.103 145.788 378.534C149.956 380.365 153.545 379.665 157.596 377.623C174.104 369.257 190.781 361.168 208.426 355.328C211.844 354.183 215.178 353.039 218.855 352.951C221.781 352.926 224.791 352.899 227.43 351.929Z" fill="#1D262D"/>
<path fill-rule="evenodd" clip-rule="evenodd" d="M36.442 414.301C35.9021 416.284 35.2365 419.829 33.8999 423.129C32.4272 426.793 29.04 428.244 25.8817 427.185C22.7793 426.153 21.0783 422.852 21.9651 419.11C22.8517 415.34 24.0455 411.651 26.6666 408.646C28.6257 406.427 31.1556 405.736 33.3098 406.692C35.6879 407.758 36.7363 409.728 36.442 414.301Z" fill="#1D262D"/>
<path fill-rule="evenodd" clip-rule="evenodd" d="M245.579 422.666C244.783 427.187 242.315 431.779 238.783 435.795C236.769 438.07 233.539 438.377 231.213 436.949C228.888 435.548 228.138 432.684 229.672 429.605C231.288 426.386 233.156 423.304 235.108 420.277C235.822 419.156 236.9 418.144 238.036 417.381C239.671 416.28 241.476 415.568 243.466 416.832C245.091 417.877 245.83 419.459 245.607 422.638L245.579 422.666Z" fill="#1D262D"/>
<path fill-rule="evenodd" clip-rule="evenodd" d="M88.4773 415.015C89.1757 415.204 90.7361 415.19 91.7459 415.934C95.1115 418.384 97.7864 421.51 98.9091 425.597C99.514 427.849 98.8917 429.972 97.0101 431.493C95.2117 432.986 93.1284 433.757 90.9183 432.773C86.1063 430.642 83.0636 426.878 82.2376 421.674C81.6483 418.029 84.2151 415.191 88.4494 415.015L88.4773 415.015Z" fill="#1D262D"/>
<path fill-rule="evenodd" clip-rule="evenodd" d="M140.14 401.882C140.455 399.649 140.473 398.507 140.77 397.473C141.475 395.237 142.91 393.636 145.331 393.225C147.752 392.813 149.739 393.688 151.066 395.683C153.269 399.035 153.943 402.819 153.643 406.751C153.443 409.401 151.567 411.479 149.119 412.002C146.393 412.584 143.905 411.686 142.686 409.384C141.298 406.776 140.742 403.771 140.112 401.882L140.14 401.882Z" fill="#1D262D"/>
<path fill-rule="evenodd" clip-rule="evenodd" d="M118.658 395.967C118.739 398.781 117.282 401.162 115.112 401.572C113.304 401.922 111.16 402.08 109.538 401.425C105.818 399.897 103.422 396.853 102.246 393.018C101.443 390.377 102.312 387.861 104.278 386.367C106.271 384.873 109.027 384.57 111.133 386.363C113.604 388.459 115.716 391.004 117.8 393.494C118.448 394.269 118.515 395.522 118.658 395.939L118.658 395.967Z" fill="#1D262D"/>
<path fill-rule="evenodd" clip-rule="evenodd" d="M160.903 427.477C160.693 428.9 160.785 429.847 160.372 430.492C158.036 434.163 155.84 437.972 153.082 441.313C151.097 443.727 147.724 443.645 145.702 441.879C143.905 440.334 143.211 437.47 144.668 435.116C146.536 432.118 148.713 429.284 151.059 426.644C152.77 424.706 155.298 423.82 157.785 424.662C159.071 425.097 160.004 426.621 160.903 427.477Z" fill="#1D262D"/>
<path fill-rule="evenodd" clip-rule="evenodd" d="M84.3172 382.362C84.3319 384.034 84.3647 384.591 84.3414 385.121C84.1948 387.463 83.3764 389.477 81.0152 390.333C78.5427 391.219 76.1433 390.906 74.0654 389.112C70.471 385.995 69.9308 378.42 73.0754 374.741C74.5926 372.972 76.5906 372.007 78.9372 372.655C81.1718 373.249 82.9398 374.655 83.5174 376.963C84.0376 379.076 84.1684 381.276 84.2894 382.362L84.3172 382.362Z" fill="#1D262D"/>
<path fill-rule="evenodd" clip-rule="evenodd" d="M220.325 409.316C219.652 411.969 219.23 414.704 218.249 417.248C217.541 419.094 215.824 420.307 213.734 420.409C211.256 420.57 209.405 419.304 208.411 417.167C206.394 412.838 206.83 408.514 209.303 404.507C211.282 401.313 216.438 401.379 218.472 404.566C219.32 405.924 219.669 407.593 220.325 409.288L220.325 409.316Z" fill="#1D262D"/>
<path fill-rule="evenodd" clip-rule="evenodd" d="M40.8469 382.743C41.1102 380.985 41.3392 378.503 41.8758 376.13C42.3319 374.119 43.7418 372.825 45.8855 372.583C48.0568 372.313 49.5992 373.414 50.618 375.189C52.627 378.655 52.8279 382.499 52.3879 386.349C52.0518 389.333 49.7287 391.36 46.8591 391.441C43.7946 391.552 41.2102 389.206 40.8469 385.92C40.7563 385.113 40.8325 384.276 40.8193 382.771L40.8469 382.743Z" fill="#1D262D"/>
<path fill-rule="evenodd" clip-rule="evenodd" d="M176.302 400.7C176.833 400.835 177.78 400.827 178.425 401.267C182.181 403.742 185.192 407.004 186.817 411.226C188.015 414.337 184.423 417.824 180.906 417.214C176.692 416.498 171.288 410.47 170.915 406.07C170.668 403.314 173.236 400.644 176.302 400.7Z" fill="#1D262D"/>
<path fill-rule="evenodd" clip-rule="evenodd" d="M191 443.293C187.486 443.017 183.831 442.464 181.133 439.868C180.093 438.846 179.351 436.958 179.394 435.508C179.46 433.473 181.034 431.843 183.094 431.546C188.187 430.833 192.965 432.24 197.307 434.794C199.268 435.947 199.349 438.817 197.776 440.642C196.149 442.523 194.094 443.35 191 443.321L191 443.293Z" fill="#1D262D"/>
<path fill-rule="evenodd" clip-rule="evenodd" d="M204.918 381.137C203.799 383.794 202.936 387.062 201.175 389.725C198.948 393.145 194.174 392.183 192.692 388.35C191.409 385.045 193.182 377.589 195.754 375.281C198.077 373.199 202.179 373.859 203.513 376.662C204.081 377.856 204.316 379.247 204.89 381.165L204.918 381.137Z" fill="#1D262D"/>
<path fill-rule="evenodd" clip-rule="evenodd" d="M237.275 381.382C237.011 383.14 236.937 384.256 236.64 385.289C235.721 388.502 232.193 389.843 229.391 388.084C225.356 385.584 223.516 379.079 225.653 374.963C227.435 371.548 232.53 371.029 234.51 374.328C235.867 376.629 236.504 379.355 237.275 381.382Z" fill="#1D262D"/>
<path fill-rule="evenodd" clip-rule="evenodd" d="M116.332 445.286C116.341 446.373 116.344 446.651 116.346 446.902C116.137 451.614 113.212 454.928 109.669 454.485C106.237 454.041 104.119 450.911 104.221 446.59C104.282 443.998 105.127 441.817 107.09 440.1C110.381 437.228 114.964 438.637 116.004 442.892C116.264 443.949 116.33 445.035 116.36 445.313L116.332 445.286Z" fill="#1D262D"/>
<path fill-rule="evenodd" clip-rule="evenodd" d="M61.8576 414.329C58.2647 414.555 55.6546 412.46 55.2119 409.649C54.6231 406.06 56.7841 401.442 59.8618 399.66C62.0522 398.386 65.0084 398.639 66.8064 400.295C68.5766 401.952 69.375 404.007 68.4197 406.301C67.6016 408.342 66.6725 410.441 65.3217 412.125C64.3846 413.303 62.6616 413.848 61.83 414.357L61.8576 414.329Z" fill="#1D262D"/>
<path fill-rule="evenodd" clip-rule="evenodd" d="M60.5431 439.198C60.5727 442.57 57.1403 445.22 53.7077 444.665C50.4983 444.136 47.9647 441.232 47.7393 437.778C47.4834 434.018 49.9055 430.569 53.3542 429.786C55.7739 429.236 58.4891 430.605 59.2898 432.939C59.6333 433.967 59.7264 435.053 59.931 436.138C60.1353 437.195 60.3678 438.28 60.5433 439.226L60.5431 439.198Z" fill="#1D262D"/>
<path fill-rule="evenodd" clip-rule="evenodd" d="M132.598 422.041C132.526 426.528 130.764 428.968 128.122 429.604C125.285 430.27 122.036 428.403 121.143 425.123C120.568 423.038 120.464 420.754 120.585 418.607C120.73 416.125 122.529 414.716 124.78 414C126.642 413.398 129.465 414.404 130.514 416.402C131.62 418.538 132.198 420.957 132.598 422.068L132.598 422.041Z" fill="#1D262D"/>
<path fill-rule="evenodd" clip-rule="evenodd" d="M246.305 400.56C250.513 400.579 252.894 401.923 253.639 404.286C254.184 406.092 253.282 408.079 251.424 409.098C248.123 410.911 244.414 410.553 242.275 408.203C240.39 406.13 241.164 402.249 243.746 401.168C244.746 400.741 245.86 400.647 246.305 400.532L246.305 400.56Z" fill="#1D262D"/>
<path fill-rule="evenodd" clip-rule="evenodd" d="M119.695 240.928C120.758 238.271 122.226 237.171 124.341 236.93C129.019 236.415 133.666 235.706 138.346 235.469C143.304 235.203 148.32 235.159 153.282 235.394C162.984 235.811 165.366 240.444 160.425 249.015C159.601 250.443 158.582 251.762 157.674 253.163C149.34 265.721 130.557 262.458 124.915 251.5C123.129 248.06 121.482 244.563 119.695 240.928ZM128.594 242.048C131.433 251.108 135.728 254.666 142.693 254.521C148.879 254.383 153.108 250.416 155.432 242.147C146.646 241.249 137.982 241.659 128.622 242.048L128.594 242.048Z" fill="#1D262D"/>
<path fill-rule="evenodd" clip-rule="evenodd" d="M155.058 215.453C153.598 214.156 152.5 212.967 151.21 212.031C145.826 208.177 143.495 202.93 143.716 196.379C143.824 192.811 143.681 189.217 143.9 185.648C143.973 184.338 144.574 182.995 145.261 181.846C145.59 181.286 146.617 180.803 147.314 180.853C147.983 180.903 148.992 181.507 149.22 182.09C149.763 183.618 150.056 185.232 150.237 186.847C150.688 190.661 151.001 194.504 151.397 198.346C151.731 201.548 153.341 203.931 155.977 205.83C157.968 207.262 159.961 208.833 161.51 210.714C163.848 213.536 164.099 216.823 161.953 219.907C159.008 224.113 155.386 227.377 149.725 227.009C147.997 226.885 146.181 226.371 146.08 224.449C146.015 223.335 146.977 221.878 147.89 221.089C149.328 219.878 151.217 219.165 152.768 218.065C153.599 217.5 154.148 216.548 155.086 215.453L155.058 215.453Z" fill="#1D262D"/>
<path fill-rule="evenodd" clip-rule="evenodd" d="M174.858 194.796C175.369 192.702 175.598 190.191 176.582 188.009C178.14 184.54 182.374 184.28 184.685 187.241C187.644 191.005 187.679 198.111 184.731 201.983C182.307 205.209 177.564 204.638 176.137 200.832C175.481 199.054 175.324 197.105 174.858 194.824L174.858 194.796Z" fill="#1D262D"/>
<path fill-rule="evenodd" clip-rule="evenodd" d="M112.033 196.685C111.411 198.864 111.068 201.041 110.193 202.999C108.827 206.021 104.818 206.474 102.679 204.068C99.2728 200.225 99.2611 192.533 102.657 188.908C105.225 186.155 109.327 186.788 110.584 190.288C111.298 192.316 111.54 194.488 112.033 196.685Z" fill="#1D262D"/>
</g>
<defs>
<clipPath id="clip0_4_2">
<rect width="270" height="460" fill="white" transform="translate(0 2.36859) rotate(-0.502635)"/>
</clipPath>
</defs>
</svg>
