<svg width="266" height="448" viewBox="0 0 266 448" fill="none" xmlns="http://www.w3.org/2000/svg">
<g clip-path="url(#clip0_4_62)">
<path fill-rule="evenodd" clip-rule="evenodd" d="M136.462 120.179C137.478 122.432 138.302 124.437 139.29 126.332C140.664 128.997 142.009 131.689 143.684 134.161C149.918 143.501 158.925 147.072 169.827 145.808C174.66 145.259 179.411 143.775 184.217 142.786C188.473 141.907 192.73 140.836 197.014 140.314C200.144 139.93 201.517 141.111 202.314 144.187C203.22 147.621 203.275 151.384 204.758 154.488C209.316 164.048 208.41 174.129 208.547 184.183C208.767 198.824 206.241 212.944 200.913 226.596C196.382 238.161 190.066 248.654 182.212 258.158C175.512 266.234 167.383 272.745 156.948 275.354C152.225 276.535 147.282 277.03 142.394 277.442C130.393 278.458 118.393 278.293 106.447 276.59C102.63 276.041 99.362 274.667 95.9293 272.745C88.9267 268.816 82.7205 264.119 76.9811 258.625C69.2371 251.181 62.7288 242.94 58.7195 232.804C51.6894 214.976 46.0874 196.764 44.1102 177.618C43.4511 171.382 43.4786 165.119 44.3573 159.048C47.021 156.411 50.1241 155.532 53.4195 155.12C66.9029 153.39 79.3428 148.912 90.6293 141.276C104.085 132.211 119.299 126.772 134.045 120.371C134.512 120.179 135.089 120.289 136.489 120.207L136.462 120.179ZM132.947 231.513C126.191 232.337 119.161 233.106 112.159 234.15C110.072 234.452 108.012 235.441 106.062 236.348C103.893 237.391 103.014 239.342 103.069 241.732C103.152 245.138 104.14 248.324 106.694 250.549C109.111 252.664 111.774 254.917 114.74 255.933C125.23 259.614 135.666 259.01 145.607 253.901C150.275 251.511 154.119 247.995 156.564 243.215C158.513 239.369 157.36 236.32 153.378 234.644C152.389 234.232 151.346 233.793 150.275 233.656C144.618 232.886 138.933 232.227 132.919 231.485L132.947 231.513ZM151.593 207.532C151.648 202.23 149.863 198.907 146.76 196.434C142.833 193.33 141.103 189.32 140.801 184.458C140.499 179.87 140.114 175.255 139.62 170.668C139.4 168.553 138.961 166.41 138.357 164.377C138.192 163.828 137.148 163.279 136.462 163.224C135.775 163.169 134.732 163.608 134.457 164.158C133.826 165.311 133.331 166.657 133.249 167.949C133.002 172.289 132.81 176.629 132.837 180.969C132.865 189.1 134.375 196.682 141.405 202.011C141.844 202.34 142.339 202.725 142.503 203.192C142.97 204.703 143.712 206.268 143.602 207.779C143.41 210.911 141.927 213.493 139.098 215.114C137.451 216.075 135.693 216.817 134.128 217.888C132.755 218.822 131.656 220.141 132.398 222.008C133.084 223.794 134.732 224.398 136.352 224.233C138.192 224.041 140.142 223.657 141.789 222.833C148.517 219.454 151.675 213.795 151.593 207.532ZM85.0273 186.93C85.3843 188.935 85.549 191.407 86.2905 193.687C86.8946 195.528 88.4599 196.819 90.5469 197.011C92.634 197.204 94.1993 196.105 95.2703 194.429C97.6045 190.693 97.0278 183.853 94.1169 180.639C92.7164 179.101 90.8216 178.387 88.9817 179.293C87.6635 179.953 86.4552 181.244 85.7138 182.562C85.1096 183.661 85.2469 185.172 84.9998 186.957L85.0273 186.93ZM179.356 187.836C178.835 186.023 178.45 183.606 177.407 181.518C176.006 178.662 171.859 178.579 169.992 181.134C167.301 184.815 167.603 191.133 170.651 194.676C172.903 197.286 177.461 196.489 178.505 193.193C178.972 191.682 179.027 190.034 179.356 187.836ZM177.132 158.499C178.038 158.554 179.411 158.719 180.757 158.746C182.102 158.774 183.475 158.856 184.794 158.609C185.48 158.472 186.304 157.73 186.496 157.098C186.688 156.494 186.386 155.395 185.919 154.928C184.986 154.021 183.832 153.17 182.624 152.648C178.285 150.862 174.001 151.632 169.992 153.637C169.058 154.104 168.317 155.725 168.152 156.906C167.96 158.197 170.102 159.488 171.832 159.323C173.452 159.158 175.072 158.829 177.132 158.499ZM96.1765 156.356C97.3573 153.774 96.3962 152.401 94.4739 151.439C90.1625 149.269 86.0433 150.78 81.9791 152.208C81.2925 152.456 80.606 153.994 80.7159 154.818C80.8257 155.56 82.034 156.713 82.7754 156.713C87.3065 156.741 91.8376 156.494 96.1765 156.356Z" fill="white"/>
<path fill-rule="evenodd" clip-rule="evenodd" d="M169.031 279.255C170.569 286.809 171.393 293.869 173.48 300.516C175.594 307.219 178.944 313.509 182.047 320.651C181.773 322.684 179.549 323.975 177.461 325.074C167.301 330.431 157.909 336.913 148.847 343.918C147.996 344.577 146.98 345.072 146.156 345.759C139.812 351.005 133.276 350.621 126.466 346.72C120.809 343.479 115.042 340.402 109.358 337.161C100.405 332.079 91.5081 326.914 82.1438 321.558C83.9563 318.701 86.0159 315.927 87.6361 312.905C89.421 309.554 90.9314 306.038 92.3594 302.522C93.6775 299.253 94.9956 295.956 95.8469 292.55C96.6982 289.171 96.9728 285.628 97.577 281.617C101.806 282.167 105.733 282.606 109.66 283.238C124.873 285.683 140.087 285.106 155.245 282.826C159.749 282.139 164.115 280.601 169.058 279.31L169.031 279.255Z" fill="white"/>
<path fill-rule="evenodd" clip-rule="evenodd" d="M239.002 417.289C241.446 421.025 242.132 424.047 240.677 426.794C238.672 430.584 235.212 432.919 230.928 433.469C226.864 433.991 222.745 433.963 218.845 432.26C215.605 430.832 212.145 429.705 209.261 427.755C204.538 424.569 200.309 424.871 195.558 427.7C192.318 429.623 188.611 430.859 185.068 432.205C176.143 435.639 167.466 435.172 159.145 430.255C158.211 429.705 157.223 429.238 156.316 428.607C150.769 424.678 145.332 425.2 139.428 428.195C133.853 431.024 127.922 433.139 122.045 435.282C113.12 438.523 104.305 437.617 95.8469 433.524C91.92 431.628 88.048 429.568 84.4506 427.123C79.0682 423.497 73.7407 423.607 68.2485 426.491C65.3376 428.002 62.4267 429.513 59.6806 431.271C50.2065 437.342 41.0894 436.298 32.192 430.145C30.4345 428.936 28.8692 427.425 27.0019 425.887C27.4962 423.085 27.9355 420.448 28.5122 417.207C30.0775 417.948 31.2858 418.388 32.3019 419.075C33.8946 420.118 35.3226 421.41 36.8604 422.508C42.7371 426.766 48.7236 427.535 55.0397 423.25C57.9506 421.272 61.1086 419.569 64.2941 418.031C72.6972 414.02 81.0454 413.746 89.3112 418.663C92.5791 420.613 96.0117 422.316 99.4169 424.019C106.09 427.343 112.983 428.002 120.013 425.255C124.818 423.36 129.789 421.712 134.32 419.294C143.822 414.213 152.994 413.8 162.083 420.064C167.054 423.497 172.546 424.953 178.395 423.47C182.322 422.453 186.057 420.64 189.819 419.075C191.824 418.251 193.718 417.097 195.696 416.218C200.748 413.993 205.691 414.103 210.634 416.74C214.232 418.663 217.912 420.448 221.619 422.124C225.628 423.937 229.418 424.019 232.988 420.778C234.526 419.377 236.64 418.635 238.947 417.317L239.002 417.289Z" fill="white"/>
<path fill-rule="evenodd" clip-rule="evenodd" d="M64.5412 335.705C68.6055 332.546 72.2029 329.744 75.6081 327.079C80.9081 328.398 85.1096 330.815 89.3112 333.315C99.6366 339.441 109.934 345.539 120.315 351.527C124.324 353.835 128.471 355.867 133.139 356.636C137.615 357.378 141.872 357.021 145.744 354.576C150.11 351.802 154.367 348.863 158.651 345.978C163.621 342.627 168.537 339.193 173.562 335.924C178.093 332.958 182.761 330.183 187.842 327.024C191.082 329.442 194.68 332.134 198.909 335.293C196.794 336.858 195.119 338.067 193.526 339.331C191.824 340.677 190.286 342.27 188.501 343.506C178.697 350.373 169.608 358.285 158.898 363.888C156.261 365.262 153.927 367.267 151.373 368.778C147.886 370.866 144.206 372.706 140.718 374.821C137.505 376.772 134.54 376.36 131.519 374.464C129.212 373.008 126.823 371.69 124.489 370.289C111.637 362.57 98.8402 354.769 85.906 347.187C80.2765 343.891 74.3449 341.089 68.578 338.04C67.4246 337.435 66.3262 336.721 64.5138 335.65L64.5412 335.705Z" fill="white"/>
<path fill-rule="evenodd" clip-rule="evenodd" d="M236.201 403.802C236.613 404.983 237.134 406.466 237.629 407.84C235.267 411.163 231.807 411.356 228.649 411.411C224.859 411.493 221.042 410.642 217.884 408.142C215.33 406.109 212.722 404.131 210.25 401.961C205.252 397.566 200.172 397.154 194.735 401.192C192.318 402.978 189.682 404.406 187.1 405.944C182.102 408.938 176.94 409.653 171.475 407.18C167.74 405.505 163.868 404.131 160.271 402.208C154.806 399.269 149.259 399.242 143.684 401.247C140.114 402.538 136.764 404.378 133.276 405.944C128.581 408.087 123.912 410.312 119.134 412.262C111.967 415.229 105.266 413.416 98.8402 409.762C96.4785 408.416 94.1993 406.878 91.7827 405.697C86.3728 403.06 80.7982 402.648 75.1687 404.983C69.649 407.29 64.0195 409.405 58.6646 412.042C48.5863 417.042 40.8423 415.888 32.6863 407.922C30.5718 405.834 30.407 403.747 31.8899 401.274C34.8832 401.357 36.5034 403.939 38.8101 405.23C40.9247 406.411 43.0392 407.867 45.3184 408.526C48.5314 409.46 51.6345 408.719 54.7651 407.153C60.3671 404.351 66.1614 401.961 71.9008 399.461C80.8806 395.561 89.4759 396.907 97.7418 401.577C99.3894 402.511 100.927 403.664 102.575 404.626C107.298 407.373 112.296 408.362 117.459 406.274C121.99 404.433 126.521 402.483 130.805 400.148C135.391 397.648 140.087 395.588 145.167 394.38C150.632 393.061 155.959 393.226 161.15 395.671C164.335 397.181 167.685 398.418 170.843 400.038C176.198 402.785 181.196 402.758 186.139 398.994C188.528 397.181 191.219 395.808 193.773 394.242C199.732 390.589 205.582 390.561 211.321 394.737C213.957 396.66 216.813 398.39 219.175 400.588C223.376 404.543 227.935 405.889 233.372 403.719C233.867 403.527 234.416 403.39 234.965 403.307C235.185 403.28 235.459 403.444 236.173 403.664L236.201 403.802Z" fill="white"/>
<path fill-rule="evenodd" clip-rule="evenodd" d="M38.7003 185.199C31.8899 183.798 27.6884 181.051 23.8438 175.75C20.7133 171.41 19.0107 166.685 19.5874 161.246C19.9443 157.812 21.1526 154.955 24.8874 153.17C28.7868 154.9 32.9609 156.768 37.5744 158.801V166.053C35.1578 164.762 33.1532 163.444 30.9563 162.702C30.105 162.4 28.8143 163.389 27.0842 164.048C32.8236 170.558 39.3045 175.97 38.6728 185.227L38.7003 185.199Z" fill="white"/>
<path fill-rule="evenodd" clip-rule="evenodd" d="M216.099 179.898C215.934 178.387 215.797 176.766 215.605 175.146C215.138 171.465 216.154 168.415 218.433 165.366C221.015 161.933 222.91 157.95 225.134 154.214C226.068 152.648 227.139 151.137 228.237 149.489C232.741 155.367 233.839 162.674 231.45 169.459C229.143 176.025 224.09 179.266 217.637 180.667C217.253 180.749 216.731 180.227 216.099 179.898Z" fill="white"/>
<path fill-rule="evenodd" clip-rule="evenodd" d="M149.698 240.605C146.787 245.825 142.394 248.022 137.753 249.341C131.958 250.989 125.972 251.154 120.013 249.89C116.745 249.203 113.807 247.747 111.802 245C110.923 243.792 110.648 242.171 110.099 240.715C119.326 237.501 139.071 237.419 149.698 240.605Z" fill="white"/>
<path fill-rule="evenodd" clip-rule="evenodd" d="M231.587 141.111C235.569 146.412 238.013 151.824 238.892 157.922C240.677 170.036 235.816 181.876 222.333 186.326C220.521 186.93 218.763 187.617 216.758 188.358C214.946 191.215 215.495 194.621 215.166 197.78C213.545 214.29 209.179 229.975 201.051 244.479C194.487 256.181 187.073 267.306 176.198 275.492C175.512 283.54 176.281 291.232 179.027 298.346C183.723 310.46 190.588 321.311 201.682 328.727C211.486 335.265 220.603 342.6 228.841 351.033C237.848 360.235 246.197 369.959 252.046 381.551C260.943 399.159 265.337 417.866 265.282 437.617C265.282 439.787 264.98 441.929 264.843 443.77C261.081 447.203 256.989 447.973 252.43 447.973C223.486 447.918 194.542 448.027 165.598 448.027C118.64 448.027 71.6537 447.945 24.6951 447.808C18.9832 447.808 13.2713 447.148 7.55937 446.736C4.73088 446.517 2.25937 445.5 0.501861 443.138C0.419478 442.891 0.254711 442.616 0.282172 442.369C0.721551 428.167 1.3257 413.965 4.45627 400.093C8.16352 383.776 15.6055 369.327 27.9355 357.763C33.7024 352.351 39.5516 346.995 45.6205 341.913C53.1449 335.595 60.8065 329.442 68.6055 323.481C76.4044 317.52 82.1988 310.158 85.6314 300.928C88.1029 294.308 91.5355 287.99 91.3982 280.161C90.2449 279.337 89.0366 278.266 87.691 277.497C79.7822 272.937 73.3288 266.701 67.3972 259.861C55.1495 245.742 46.8013 229.755 43.6159 211.185C42.6547 205.582 41.1993 200.033 39.9635 194.347C37.9039 193.632 36.0915 193.083 34.334 192.424C25.1894 188.99 18.434 182.974 14.6443 173.909C11.2392 165.778 11.4589 157.977 17.1433 150.78C17.6376 150.176 18.0221 149.462 18.6537 148.473C17.1433 146.303 15.7977 143.94 13.9853 141.962C5.99409 133.172 5.19772 122.871 7.88891 112.021C9.17958 106.746 11.2117 101.637 13.134 96.5278C14.2874 93.3963 15.0288 90.5944 13.9578 87.0783C12.6946 82.9029 13.134 78.3979 14.3697 74.1402C17.0884 64.6907 20.1915 55.3785 24.6677 46.5883C29.0614 37.9628 35.3226 30.7109 42.4625 24.283C53.1449 14.6687 65.3651 7.52664 79.0407 3.04911C91.6179 -1.04384 104.223 -1.09878 116.717 3.81826C123.363 6.42786 129.707 9.55938 135.336 13.982C137.588 15.74 139.647 15.74 142.119 14.5039C145.524 12.8008 148.984 11.1251 152.582 9.88902C166.559 5.16426 179.96 6.53774 192.757 13.982C200.309 18.3496 206.158 24.2556 209.921 32.1393C211.458 35.3807 213.381 38.2101 215.989 40.7373C220.932 45.5444 224.667 51.3405 227.194 57.7409C230.791 66.8882 233.455 76.3377 234.938 86.0894C235.734 91.2262 236.475 96.3355 237.189 101.472C238.562 111.334 238.37 121.086 235.13 130.617C233.976 133.969 232.878 137.32 231.587 141.193V141.111ZM136.462 120.179C135.061 120.261 134.485 120.152 134.018 120.344C119.271 126.744 104.058 132.183 90.6019 141.248C79.3153 148.857 66.8754 153.362 53.392 155.093C50.1241 155.505 46.9936 156.384 44.3298 159.021C43.4511 165.092 43.4511 171.355 44.0827 177.59C46.0599 196.737 51.662 214.949 58.692 232.777C62.7013 242.885 69.2096 251.154 76.9537 258.598C82.6931 264.092 88.8993 268.816 95.9019 272.717C99.3345 274.64 102.602 276.041 106.419 276.563C118.365 278.239 130.366 278.431 142.366 277.414C147.254 277.002 152.197 276.508 156.921 275.327C167.356 272.717 175.484 266.234 182.185 258.131C190.039 248.626 196.382 238.133 200.886 226.568C206.241 212.916 208.74 198.797 208.52 184.156C208.383 174.102 209.261 164.02 204.73 154.461C203.247 151.357 203.193 147.566 202.286 144.16C201.49 141.111 200.117 139.902 196.986 140.287C192.675 140.809 188.446 141.88 184.189 142.759C179.384 143.748 174.66 145.231 169.8 145.781C158.898 147.044 149.89 143.473 143.657 134.134C142.009 131.661 140.664 128.942 139.263 126.305C138.274 124.382 137.451 122.404 136.435 120.152L136.462 120.179ZM169.031 279.255C164.088 280.546 159.722 282.112 155.218 282.771C140.059 285.051 124.873 285.628 109.632 283.183C105.733 282.551 101.779 282.139 97.5495 281.562C96.9454 285.573 96.6708 289.116 95.8195 292.495C94.9682 295.901 93.65 299.198 92.3319 302.467C90.9039 305.983 89.3936 309.499 87.6086 312.85C85.9884 315.872 83.9563 318.674 82.1164 321.503C91.4806 326.887 100.405 332.024 109.33 337.106C115.015 340.347 120.782 343.424 126.439 346.665C133.249 350.566 139.785 350.95 146.128 345.704C146.952 345.017 147.968 344.522 148.819 343.863C157.882 336.858 167.273 330.348 177.434 325.019C179.521 323.92 181.773 322.602 182.02 320.596C178.917 313.454 175.567 307.164 173.452 300.461C171.365 293.814 170.514 286.754 169.003 279.2L169.031 279.255ZM239.002 417.289C236.695 418.608 234.553 419.349 233.043 420.75C229.473 423.992 225.683 423.909 221.674 422.096C217.967 420.421 214.287 418.608 210.689 416.712C205.746 414.075 200.803 413.965 195.751 416.19C193.746 417.069 191.879 418.196 189.874 419.047C186.112 420.613 182.377 422.426 178.45 423.442C172.601 424.953 167.109 423.47 162.138 420.036C153.049 413.773 143.904 414.185 134.375 419.267C129.844 421.684 124.873 423.36 120.068 425.228C113.038 427.975 106.145 427.315 99.4718 423.992C96.0666 422.289 92.634 420.585 89.3661 418.635C81.1278 413.718 72.7521 413.993 64.349 418.003C61.1635 419.542 58.0055 421.217 55.0946 423.223C48.7785 427.508 42.792 426.739 36.9153 422.481C35.3775 421.355 33.9221 420.091 32.3568 419.047C31.3407 418.36 30.1324 417.948 28.5671 417.179C28.0179 420.421 27.5511 423.058 27.0568 425.86C28.9241 427.398 30.4894 428.909 32.2469 430.117C41.1443 436.298 50.2614 437.314 59.7355 431.244C62.4817 429.486 65.3925 427.975 68.3034 426.464C73.7956 423.58 79.1231 423.47 84.5055 427.096C88.1029 429.513 91.9749 431.601 95.9019 433.496C104.36 437.589 113.175 438.496 122.1 435.254C127.976 433.112 133.908 430.996 139.483 428.167C145.387 425.173 150.824 424.678 156.371 428.579C157.25 429.211 158.266 429.678 159.2 430.227C167.521 435.144 176.198 435.611 185.123 432.178C188.666 430.804 192.373 429.595 195.613 427.673C200.364 424.843 204.566 424.541 209.316 427.728C212.227 429.678 215.66 430.804 218.9 432.233C222.772 433.936 226.891 433.963 230.983 433.441C235.295 432.892 238.755 430.557 240.732 426.766C242.187 424.019 241.501 420.997 239.057 417.262L239.002 417.289ZM64.5412 335.705C66.3537 336.776 67.4521 337.463 68.6055 338.095C74.3723 341.144 80.3039 343.946 85.9335 347.242C98.8677 354.823 111.665 362.625 124.516 370.344C126.851 371.745 129.24 373.063 131.546 374.519C134.567 376.414 137.533 376.827 140.746 374.876C144.233 372.761 147.886 370.921 151.401 368.833C153.982 367.295 156.289 365.317 158.925 363.943C169.635 358.367 178.725 350.456 188.528 343.561C190.313 342.325 191.851 340.732 193.554 339.386C195.146 338.095 196.822 336.913 198.936 335.348C194.707 332.189 191.11 329.497 187.869 327.079C182.789 330.238 178.121 333.013 173.589 335.979C168.564 339.248 163.648 342.682 158.678 346.033C154.394 348.918 150.138 351.857 145.771 354.631C141.899 357.076 137.643 357.433 133.167 356.691C128.498 355.895 124.352 353.89 120.342 351.582C109.962 345.566 99.664 339.468 89.3386 333.37C85.1371 330.87 80.9081 328.425 75.6355 327.134C72.2304 329.799 68.6329 332.601 64.5687 335.76L64.5412 335.705ZM236.201 403.802C235.459 403.582 235.212 403.417 234.993 403.444C234.443 403.527 233.922 403.637 233.4 403.857C227.935 406.027 223.404 404.681 219.202 400.725C216.841 398.5 213.985 396.797 211.348 394.874C205.609 390.699 199.76 390.726 193.801 394.38C191.247 395.945 188.556 397.319 186.167 399.132C181.224 402.895 176.226 402.923 170.871 400.176C167.713 398.555 164.39 397.319 161.177 395.808C156.014 393.336 150.659 393.198 145.195 394.517C140.114 395.726 135.418 397.786 130.832 400.285C126.548 402.62 122.017 404.571 117.486 406.411C112.324 408.499 107.298 407.51 102.602 404.763C100.955 403.802 99.4169 402.648 97.7692 401.714C89.5034 397.017 80.8806 395.698 71.9283 399.599C66.1889 402.098 60.3946 404.488 54.7925 407.29C51.6894 408.856 48.5863 409.598 45.3459 408.664C43.0392 408.004 40.9521 406.549 38.8376 405.367C36.5309 404.076 34.9107 401.494 31.9174 401.412C30.4345 403.884 30.5993 405.972 32.7138 408.059C40.8697 416.053 48.6138 417.179 58.692 412.18C64.0469 409.515 69.6765 407.428 75.1962 405.12C80.8257 402.758 86.4003 403.17 91.8102 405.834C94.2542 407.016 96.506 408.554 98.8677 409.9C105.266 413.526 111.967 415.366 119.161 412.4C123.94 410.449 128.608 408.224 133.304 406.082C136.764 404.516 140.142 402.648 143.712 401.384C149.286 399.379 154.833 399.406 160.298 402.346C163.896 404.269 167.768 405.642 171.502 407.318C176.94 409.762 182.13 409.048 187.128 406.082C189.709 404.543 192.345 403.115 194.762 401.329C200.199 397.291 205.28 397.703 210.278 402.099C212.722 404.269 215.33 406.219 217.912 408.279C221.07 410.779 224.859 411.63 228.676 411.548C231.835 411.493 235.295 411.273 237.656 407.977C237.162 406.603 236.64 405.148 236.228 403.939L236.201 403.802ZM38.7003 185.199C39.3319 175.942 32.8511 170.531 27.1117 164.02C28.8418 163.389 30.1324 162.4 30.9837 162.674C33.1806 163.416 35.1853 164.762 37.6019 166.026V158.774C32.9884 156.713 28.8143 154.873 24.9148 153.142C21.1801 154.955 19.9718 157.785 19.6148 161.218C19.0381 166.657 20.7407 171.382 23.8713 175.722C27.7159 181.024 31.9174 183.771 38.7278 185.172L38.7003 185.199ZM216.099 179.898C216.703 180.227 217.225 180.777 217.637 180.667C224.118 179.266 229.143 176.025 231.45 169.459C233.839 162.674 232.741 155.395 228.237 149.489C227.139 151.137 226.068 152.648 225.134 154.214C222.91 157.922 221.015 161.905 218.433 165.366C216.154 168.415 215.138 171.465 215.605 175.146C215.825 176.739 215.935 178.359 216.099 179.898Z" fill="#1D262D"/>
<path fill-rule="evenodd" clip-rule="evenodd" d="M132.947 231.513C138.961 232.255 144.645 232.941 150.302 233.683C151.346 233.82 152.389 234.26 153.405 234.672C157.387 236.348 158.541 239.397 156.591 243.242C154.147 248.022 150.275 251.511 145.634 253.928C135.693 259.037 125.23 259.642 114.768 255.961C111.802 254.917 109.138 252.692 106.722 250.577C104.168 248.352 103.179 245.165 103.097 241.759C103.042 239.369 103.893 237.419 106.09 236.375C108.04 235.469 110.072 234.48 112.186 234.177C119.161 233.134 126.219 232.392 132.974 231.54L132.947 231.513ZM149.698 240.605C139.071 237.419 119.326 237.529 110.099 240.715C110.648 242.171 110.923 243.792 111.802 245C113.807 247.747 116.745 249.176 120.013 249.89C125.972 251.154 131.958 250.989 137.753 249.341C142.394 248.022 146.787 245.825 149.698 240.605Z" fill="#1D262D"/>
<path fill-rule="evenodd" clip-rule="evenodd" d="M151.593 207.532C151.675 213.795 148.517 219.454 141.789 222.833C140.142 223.657 138.192 224.069 136.352 224.233C134.704 224.398 133.084 223.767 132.398 222.008C131.684 220.141 132.782 218.822 134.128 217.888C135.693 216.817 137.451 216.075 139.098 215.114C141.899 213.493 143.41 210.911 143.602 207.779C143.684 206.268 142.97 204.703 142.503 203.192C142.366 202.725 141.844 202.34 141.405 202.011C134.375 196.682 132.865 189.1 132.837 180.969C132.837 176.629 133.002 172.289 133.249 167.948C133.331 166.657 133.826 165.311 134.457 164.158C134.759 163.608 135.803 163.196 136.462 163.224C137.121 163.251 138.192 163.828 138.357 164.377C138.961 166.438 139.4 168.553 139.62 170.668C140.114 175.255 140.499 179.843 140.801 184.458C141.103 189.32 142.833 193.33 146.76 196.434C149.89 198.879 151.648 202.23 151.593 207.532Z" fill="#1D262D"/>
<path fill-rule="evenodd" clip-rule="evenodd" d="M85.0273 186.93C85.2744 185.172 85.1371 183.634 85.7412 182.535C86.4827 181.216 87.691 179.925 89.0091 179.266C90.849 178.359 92.7438 179.074 94.1443 180.612C97.0552 183.826 97.6319 190.666 95.2977 194.402C94.2267 196.105 92.6614 197.176 90.5744 196.984C88.4874 196.791 86.9221 195.5 86.3179 193.66C85.5765 191.38 85.4117 188.908 85.0547 186.902L85.0273 186.93Z" fill="#1D262D"/>
<path fill-rule="evenodd" clip-rule="evenodd" d="M179.356 187.836C179.027 190.034 178.999 191.682 178.505 193.193C177.461 196.489 172.903 197.286 170.651 194.676C167.603 191.133 167.301 184.815 169.992 181.134C171.859 178.579 176.006 178.662 177.407 181.518C178.45 183.634 178.834 186.051 179.356 187.836Z" fill="#1D262D"/>
<path fill-rule="evenodd" clip-rule="evenodd" d="M177.132 158.499C175.072 158.829 173.452 159.158 171.832 159.323C170.102 159.488 167.96 158.197 168.152 156.906C168.317 155.725 169.031 154.104 169.992 153.637C174.001 151.659 178.285 150.89 182.624 152.648C183.832 153.142 184.958 153.994 185.919 154.928C186.386 155.395 186.688 156.466 186.496 157.098C186.304 157.73 185.453 158.472 184.794 158.609C183.503 158.884 182.102 158.801 180.757 158.746C179.411 158.719 178.038 158.554 177.132 158.499Z" fill="#1D262D"/>
<path fill-rule="evenodd" clip-rule="evenodd" d="M96.1765 156.356C91.8376 156.494 87.3065 156.741 82.7754 156.713C82.034 156.713 80.8257 155.56 80.7159 154.818C80.606 153.994 81.2925 152.428 81.9791 152.208C86.0433 150.78 90.1625 149.269 94.4739 151.439C96.3962 152.401 97.3573 153.802 96.1765 156.356Z" fill="#1D262D"/>
</g>
<defs>
<clipPath id="clip0_4_62">
<rect width="265" height="448" fill="white" transform="translate(0.309631)"/>
</clipPath>
</defs>
</svg>
