<svg width="518" height="707" viewBox="0 0 518 707" fill="none" xmlns="http://www.w3.org/2000/svg">
<g clip-path="url(#clip0_23_5)">
<g clip-path="url(#clip1_23_5)">
<path fill-rule="evenodd" clip-rule="evenodd" d="M262.462 120.179C263.478 122.432 264.302 124.437 265.29 126.332C266.664 128.997 268.009 131.689 269.684 134.161C275.918 143.501 284.925 147.072 295.827 145.808C300.66 145.259 305.411 143.775 310.217 142.786C314.473 141.907 318.73 140.836 323.014 140.314C326.144 139.93 327.517 141.111 328.314 144.187C329.22 147.621 329.275 151.384 330.758 154.488C335.316 164.048 334.41 174.129 334.547 184.183C334.767 198.824 332.241 212.944 326.913 226.596C322.382 238.161 316.066 248.654 308.212 258.158C301.512 266.234 293.383 272.745 282.948 275.354C278.225 276.535 273.282 277.03 268.394 277.442C256.393 278.458 244.393 278.293 232.447 276.59C228.63 276.041 225.362 274.667 221.929 272.745C214.927 268.816 208.721 264.119 202.981 258.625C195.237 251.181 188.729 242.94 184.719 232.804C177.689 214.976 172.087 196.764 170.11 177.618C169.451 171.382 169.479 165.119 170.357 159.048C173.021 156.411 176.124 155.532 179.419 155.12C192.903 153.39 205.343 148.912 216.629 141.276C230.085 132.211 245.299 126.772 260.045 120.371C260.512 120.179 261.089 120.289 262.489 120.207L262.462 120.179ZM258.947 231.513C252.191 232.337 245.161 233.106 238.159 234.15C236.072 234.452 234.012 235.441 232.062 236.348C229.893 237.391 229.014 239.342 229.069 241.732C229.152 245.138 230.14 248.324 232.694 250.549C235.111 252.664 237.774 254.917 240.74 255.933C251.23 259.614 261.666 259.01 271.607 253.901C276.275 251.511 280.119 247.995 282.564 243.215C284.513 239.369 283.36 236.32 279.378 234.644C278.389 234.232 277.346 233.793 276.275 233.656C270.618 232.886 264.933 232.227 258.919 231.485L258.947 231.513ZM277.593 207.532C277.648 202.23 275.863 198.907 272.76 196.434C268.833 193.33 267.103 189.32 266.801 184.458C266.499 179.87 266.114 175.255 265.62 170.668C265.4 168.553 264.961 166.41 264.357 164.377C264.192 163.828 263.148 163.279 262.462 163.224C261.775 163.169 260.732 163.608 260.457 164.158C259.826 165.311 259.331 166.657 259.249 167.949C259.002 172.289 258.81 176.629 258.837 180.969C258.865 189.1 260.375 196.682 267.405 202.011C267.844 202.34 268.339 202.725 268.503 203.192C268.97 204.703 269.712 206.268 269.602 207.779C269.41 210.911 267.927 213.493 265.098 215.114C263.451 216.075 261.693 216.817 260.128 217.888C258.755 218.822 257.656 220.141 258.398 222.008C259.084 223.794 260.732 224.398 262.352 224.233C264.192 224.041 266.142 223.657 267.789 222.833C274.517 219.454 277.675 213.795 277.593 207.532ZM211.027 186.93C211.384 188.935 211.549 191.407 212.29 193.687C212.895 195.528 214.46 196.819 216.547 197.011C218.634 197.204 220.199 196.105 221.27 194.429C223.604 190.693 223.028 183.853 220.117 180.639C218.716 179.101 216.822 178.387 214.982 179.293C213.664 179.953 212.455 181.244 211.714 182.562C211.11 183.661 211.247 185.172 211 186.957L211.027 186.93ZM305.356 187.836C304.835 186.023 304.45 183.606 303.407 181.518C302.006 178.662 297.859 178.579 295.992 181.134C293.301 184.815 293.603 191.133 296.651 194.676C298.903 197.286 303.461 196.489 304.505 193.193C304.972 191.682 305.027 190.034 305.356 187.836ZM303.132 158.499C304.038 158.554 305.411 158.719 306.757 158.746C308.102 158.774 309.475 158.856 310.794 158.609C311.48 158.472 312.304 157.73 312.496 157.098C312.688 156.494 312.386 155.395 311.919 154.928C310.986 154.021 309.832 153.17 308.624 152.648C304.285 150.862 300.001 151.632 295.992 153.637C295.058 154.104 294.317 155.725 294.152 156.906C293.96 158.197 296.102 159.488 297.832 159.323C299.452 159.158 301.072 158.829 303.132 158.499ZM222.176 156.356C223.357 153.774 222.396 152.401 220.474 151.439C216.162 149.269 212.043 150.78 207.979 152.208C207.293 152.456 206.606 153.994 206.716 154.818C206.826 155.56 208.034 156.713 208.775 156.713C213.307 156.741 217.838 156.494 222.176 156.356Z" fill="white"/>
<path fill-rule="evenodd" clip-rule="evenodd" d="M295.031 279.255C296.569 286.809 297.393 293.869 299.48 300.516C301.594 307.219 304.944 313.509 308.047 320.651C307.773 322.684 305.549 323.975 303.461 325.074C293.301 330.431 283.909 336.913 274.847 343.918C273.996 344.577 272.98 345.072 272.156 345.759C265.812 351.005 259.276 350.621 252.466 346.72C246.809 343.479 241.042 340.402 235.358 337.161C226.405 332.079 217.508 326.914 208.144 321.558C209.956 318.701 212.016 315.927 213.636 312.905C215.421 309.554 216.931 306.038 218.359 302.522C219.678 299.253 220.996 295.956 221.847 292.55C222.698 289.171 222.973 285.628 223.577 281.617C227.806 282.167 231.733 282.606 235.66 283.238C250.873 285.683 266.087 285.106 281.245 282.826C285.749 282.139 290.115 280.601 295.058 279.31L295.031 279.255Z" fill="white"/>
<path fill-rule="evenodd" clip-rule="evenodd" d="M365.002 417.289C367.446 421.025 368.132 424.047 366.677 426.794C364.672 430.584 361.212 432.919 356.928 433.469C352.864 433.991 348.745 433.963 344.845 432.26C341.605 430.832 338.145 429.705 335.261 427.755C330.538 424.569 326.309 424.871 321.558 427.7C318.318 429.623 314.611 430.859 311.068 432.205C302.143 435.639 293.466 435.172 285.145 430.255C284.211 429.705 283.223 429.238 282.316 428.607C276.769 424.678 271.332 425.2 265.428 428.195C259.853 431.024 253.922 433.139 248.045 435.282C239.12 438.523 230.305 437.617 221.847 433.524C217.92 431.628 214.048 429.568 210.451 427.123C205.068 423.497 199.741 423.607 194.248 426.491C191.338 428.002 188.427 429.513 185.681 431.271C176.207 437.342 167.089 436.298 158.192 430.145C156.435 428.936 154.869 427.425 153.002 425.887C153.496 423.085 153.936 420.448 154.512 417.207C156.078 417.948 157.286 418.388 158.302 419.075C159.895 420.118 161.323 421.41 162.86 422.508C168.737 426.766 174.724 427.535 181.04 423.25C183.951 421.272 187.109 419.569 190.294 418.031C198.697 414.02 207.045 413.746 215.311 418.663C218.579 420.613 222.012 422.316 225.417 424.019C232.09 427.343 238.983 428.002 246.013 425.255C250.818 423.36 255.789 421.712 260.32 419.294C269.822 414.213 278.994 413.8 288.083 420.064C293.054 423.497 298.546 424.953 304.395 423.47C308.322 422.453 312.057 420.64 315.819 419.075C317.824 418.251 319.718 417.097 321.696 416.218C326.748 413.993 331.691 414.103 336.634 416.74C340.232 418.663 343.912 420.448 347.619 422.124C351.628 423.937 355.418 424.019 358.988 420.778C360.526 419.377 362.64 418.635 364.947 417.317L365.002 417.289Z" fill="white"/>
<path fill-rule="evenodd" clip-rule="evenodd" d="M190.541 335.705C194.605 332.546 198.203 329.744 201.608 327.079C206.908 328.398 211.11 330.815 215.311 333.315C225.637 339.441 235.934 345.539 246.315 351.527C250.324 353.835 254.471 355.867 259.139 356.636C263.615 357.378 267.872 357.021 271.744 354.576C276.11 351.802 280.367 348.863 284.651 345.978C289.621 342.627 294.537 339.193 299.562 335.924C304.093 332.958 308.761 330.183 313.842 327.024C317.082 329.442 320.68 332.134 324.909 335.293C322.794 336.858 321.119 338.067 319.526 339.331C317.824 340.677 316.286 342.27 314.501 343.506C304.697 350.373 295.608 358.285 284.898 363.888C282.261 365.262 279.927 367.267 277.373 368.778C273.886 370.866 270.206 372.706 266.718 374.821C263.505 376.772 260.54 376.36 257.519 374.464C255.212 373.008 252.823 371.69 250.489 370.289C237.637 362.57 224.84 354.769 211.906 347.187C206.276 343.891 200.345 341.089 194.578 338.04C193.425 337.435 192.326 336.721 190.514 335.65L190.541 335.705Z" fill="white"/>
<path fill-rule="evenodd" clip-rule="evenodd" d="M362.201 403.802C362.613 404.983 363.134 406.466 363.629 407.84C361.267 411.163 357.807 411.356 354.649 411.411C350.859 411.493 347.042 410.642 343.884 408.142C341.33 406.109 338.722 404.131 336.25 401.961C331.252 397.566 326.172 397.154 320.735 401.192C318.318 402.978 315.682 404.406 313.1 405.944C308.102 408.938 302.94 409.653 297.475 407.18C293.74 405.505 289.868 404.131 286.271 402.208C280.806 399.269 275.259 399.242 269.684 401.247C266.114 402.538 262.764 404.378 259.276 405.944C254.581 408.087 249.912 410.312 245.134 412.262C237.967 415.229 231.266 413.416 224.84 409.762C222.479 408.416 220.199 406.878 217.783 405.697C212.373 403.06 206.798 402.648 201.169 404.983C195.649 407.29 190.019 409.405 184.665 412.042C174.586 417.042 166.842 415.888 158.686 407.922C156.572 405.834 156.407 403.747 157.89 401.274C160.883 401.357 162.503 403.939 164.81 405.23C166.925 406.411 169.039 407.867 171.318 408.526C174.531 409.46 177.635 408.719 180.765 407.153C186.367 404.351 192.161 401.961 197.901 399.461C206.881 395.561 215.476 396.907 223.742 401.577C225.389 402.511 226.927 403.664 228.575 404.626C233.298 407.373 238.296 408.362 243.459 406.274C247.99 404.433 252.521 402.483 256.805 400.148C261.391 397.648 266.087 395.588 271.167 394.38C276.632 393.061 281.959 393.226 287.15 395.671C290.335 397.181 293.685 398.418 296.843 400.038C302.198 402.785 307.196 402.758 312.139 398.994C314.528 397.181 317.219 395.808 319.773 394.242C325.732 390.589 331.582 390.561 337.321 394.737C339.957 396.66 342.813 398.39 345.175 400.588C349.376 404.543 353.935 405.889 359.372 403.719C359.867 403.527 360.416 403.39 360.965 403.307C361.185 403.28 361.459 403.444 362.173 403.664L362.201 403.802Z" fill="white"/>
<path fill-rule="evenodd" clip-rule="evenodd" d="M164.7 185.199C157.89 183.798 153.688 181.051 149.844 175.75C146.713 171.41 145.011 166.685 145.587 161.246C145.944 157.812 147.153 154.955 150.887 153.17C154.787 154.9 158.961 156.768 163.574 158.801V166.053C161.158 164.762 159.153 163.444 156.956 162.702C156.105 162.4 154.814 163.389 153.084 164.048C158.824 170.558 165.304 175.97 164.673 185.227L164.7 185.199Z" fill="white"/>
<path fill-rule="evenodd" clip-rule="evenodd" d="M342.099 179.898C341.934 178.387 341.797 176.766 341.605 175.146C341.138 171.465 342.154 168.415 344.433 165.366C347.015 161.933 348.91 157.95 351.134 154.214C352.068 152.648 353.139 151.137 354.237 149.489C358.741 155.367 359.839 162.674 357.45 169.459C355.143 176.025 350.09 179.266 343.637 180.667C343.253 180.749 342.731 180.227 342.099 179.898Z" fill="white"/>
<path fill-rule="evenodd" clip-rule="evenodd" d="M275.698 240.605C272.787 245.825 268.394 248.022 263.753 249.341C257.958 250.989 251.972 251.154 246.013 249.89C242.745 249.203 239.807 247.747 237.802 245C236.923 243.792 236.648 242.171 236.099 240.715C245.326 237.501 265.071 237.419 275.698 240.605Z" fill="white"/>
<path fill-rule="evenodd" clip-rule="evenodd" d="M357.587 141.111C361.569 146.412 364.013 151.824 364.892 157.922C366.677 170.036 361.816 181.876 348.333 186.326C346.521 186.93 344.763 187.617 342.758 188.358C340.946 191.215 341.495 194.621 341.166 197.78C339.545 214.29 335.179 229.975 327.051 244.479C320.487 256.181 313.073 267.306 302.198 275.492C301.512 283.54 302.281 291.232 305.027 298.346C309.723 310.46 316.588 321.311 327.682 328.727C337.486 335.265 346.603 342.6 354.841 351.033C363.848 360.235 372.197 369.959 378.046 381.551C386.943 399.159 391.337 417.866 391.282 437.617C391.282 439.787 390.98 441.929 390.843 443.77C387.081 447.203 382.989 447.973 378.43 447.973C349.486 447.918 320.542 448.027 291.598 448.027C244.64 448.027 197.654 447.945 150.695 447.808C144.983 447.808 139.271 447.148 133.559 446.736C130.731 446.517 128.259 445.5 126.502 443.138C126.419 442.891 126.255 442.616 126.282 442.369C126.722 428.167 127.326 413.965 130.456 400.093C134.164 383.776 141.605 369.327 153.936 357.763C159.702 352.351 165.552 346.995 171.621 341.913C179.145 335.595 186.807 329.442 194.605 323.481C202.404 317.52 208.199 310.158 211.631 300.928C214.103 294.308 217.536 287.99 217.398 280.161C216.245 279.337 215.037 278.266 213.691 277.497C205.782 272.937 199.329 266.701 193.397 259.861C181.15 245.742 172.801 229.755 169.616 211.185C168.655 205.582 167.199 200.033 165.964 194.347C163.904 193.632 162.091 193.083 160.334 192.424C151.189 188.99 144.434 182.974 140.644 173.909C137.239 165.778 137.459 157.977 143.143 150.78C143.638 150.176 144.022 149.462 144.654 148.473C143.143 146.303 141.798 143.94 139.985 141.962C131.994 133.172 131.198 122.871 133.889 112.021C135.18 106.746 137.212 101.637 139.134 96.5278C140.287 93.3963 141.029 90.5944 139.958 87.0783C138.695 82.9029 139.134 78.3979 140.37 74.1402C143.088 64.6907 146.191 55.3785 150.668 46.5883C155.061 37.9628 161.323 30.7109 168.462 24.283C179.145 14.6687 191.365 7.52664 205.041 3.04911C217.618 -1.04384 230.223 -1.09878 242.717 3.81826C249.363 6.42786 255.707 9.55938 261.336 13.982C263.588 15.74 265.647 15.74 268.119 14.5039C271.524 12.8008 274.984 11.1251 278.582 9.88902C292.559 5.16426 305.96 6.53774 318.757 13.982C326.309 18.3496 332.158 24.2556 335.921 32.1393C337.458 35.3807 339.381 38.2101 341.989 40.7373C346.932 45.5444 350.667 51.3405 353.194 57.7409C356.791 66.8882 359.455 76.3377 360.938 86.0894C361.734 91.2262 362.475 96.3355 363.189 101.472C364.562 111.334 364.37 121.086 361.13 130.617C359.976 133.969 358.878 137.32 357.587 141.193V141.111ZM262.462 120.179C261.061 120.261 260.485 120.152 260.018 120.344C245.271 126.744 230.058 132.183 216.602 141.248C205.315 148.857 192.875 153.362 179.392 155.093C176.124 155.505 172.994 156.384 170.33 159.021C169.451 165.092 169.451 171.355 170.083 177.59C172.06 196.737 177.662 214.949 184.692 232.777C188.701 242.885 195.21 251.154 202.954 258.598C208.693 264.092 214.899 268.816 221.902 272.717C225.335 274.64 228.602 276.041 232.419 276.563C244.365 278.239 256.366 278.431 268.366 277.414C273.254 277.002 278.197 276.508 282.921 275.327C293.356 272.717 301.484 266.234 308.185 258.131C316.039 248.626 322.382 238.133 326.886 226.568C332.241 212.916 334.74 198.797 334.52 184.156C334.383 174.102 335.261 164.02 330.73 154.461C329.247 151.357 329.193 147.566 328.286 144.16C327.49 141.111 326.117 139.902 322.986 140.287C318.675 140.809 314.446 141.88 310.189 142.759C305.384 143.748 300.66 145.231 295.8 145.781C284.898 147.044 275.89 143.473 269.657 134.134C268.009 131.661 266.664 128.942 265.263 126.305C264.274 124.382 263.451 122.404 262.435 120.152L262.462 120.179ZM295.031 279.255C290.088 280.546 285.722 282.112 281.218 282.771C266.059 285.051 250.873 285.628 235.632 283.183C231.733 282.551 227.779 282.139 223.55 281.562C222.945 285.573 222.671 289.116 221.819 292.495C220.968 295.901 219.65 299.198 218.332 302.467C216.904 305.983 215.394 309.499 213.609 312.85C211.988 315.872 209.956 318.674 208.116 321.503C217.481 326.887 226.405 332.024 235.33 337.106C241.015 340.347 246.782 343.424 252.439 346.665C259.249 350.566 265.785 350.95 272.128 345.704C272.952 345.017 273.968 344.522 274.819 343.863C283.882 336.858 293.273 330.348 303.434 325.019C305.521 323.92 307.773 322.602 308.02 320.596C304.917 313.454 301.567 307.164 299.452 300.461C297.365 293.814 296.514 286.754 295.003 279.2L295.031 279.255ZM365.002 417.289C362.695 418.608 360.553 419.349 359.043 420.75C355.473 423.992 351.683 423.909 347.674 422.096C343.967 420.421 340.287 418.608 336.689 416.712C331.746 414.075 326.803 413.965 321.751 416.19C319.746 417.069 317.879 418.196 315.874 419.047C312.112 420.613 308.377 422.426 304.45 423.442C298.601 424.953 293.109 423.47 288.138 420.036C279.049 413.773 269.904 414.185 260.375 419.267C255.844 421.684 250.873 423.36 246.068 425.228C239.038 427.975 232.145 427.315 225.472 423.992C222.067 422.289 218.634 420.585 215.366 418.635C207.128 413.718 198.752 413.993 190.349 418.003C187.164 419.542 184.005 421.217 181.095 423.223C174.779 427.508 168.792 426.739 162.915 422.481C161.378 421.355 159.922 420.091 158.357 419.047C157.341 418.36 156.132 417.948 154.567 417.179C154.018 420.421 153.551 423.058 153.057 425.86C154.924 427.398 156.489 428.909 158.247 430.117C167.144 436.298 176.261 437.314 185.736 431.244C188.482 429.486 191.393 427.975 194.303 426.464C199.796 423.58 205.123 423.47 210.505 427.096C214.103 429.513 217.975 431.601 221.902 433.496C230.36 437.589 239.175 438.496 248.1 435.254C253.976 433.112 259.908 430.996 265.483 428.167C271.387 425.173 276.824 424.678 282.371 428.579C283.25 429.211 284.266 429.678 285.2 430.227C293.521 435.144 302.198 435.611 311.123 432.178C314.666 430.804 318.373 429.595 321.613 427.673C326.364 424.843 330.566 424.541 335.316 427.728C338.227 429.678 341.66 430.804 344.9 432.233C348.772 433.936 352.891 433.963 356.983 433.441C361.295 432.892 364.755 430.557 366.732 426.766C368.187 424.019 367.501 420.997 365.057 417.262L365.002 417.289ZM190.541 335.705C192.354 336.776 193.452 337.463 194.605 338.095C200.372 341.144 206.304 343.946 211.933 347.242C224.868 354.823 237.665 362.625 250.516 370.344C252.851 371.745 255.24 373.063 257.546 374.519C260.567 376.414 263.533 376.827 266.746 374.876C270.233 372.761 273.886 370.921 277.401 368.833C279.982 367.295 282.289 365.317 284.925 363.943C295.635 358.367 304.725 350.456 314.528 343.561C316.313 342.325 317.851 340.732 319.554 339.386C321.146 338.095 322.822 336.913 324.936 335.348C320.707 332.189 317.11 329.497 313.869 327.079C308.789 330.238 304.121 333.013 299.589 335.979C294.564 339.248 289.648 342.682 284.678 346.033C280.394 348.918 276.138 351.857 271.771 354.631C267.899 357.076 263.643 357.433 259.167 356.691C254.498 355.895 250.352 353.89 246.342 351.582C235.962 345.566 225.664 339.468 215.339 333.37C211.137 330.87 206.908 328.425 201.636 327.134C198.23 329.799 194.633 332.601 190.569 335.76L190.541 335.705ZM362.201 403.802C361.459 403.582 361.212 403.417 360.993 403.444C360.443 403.527 359.922 403.637 359.4 403.857C353.935 406.027 349.404 404.681 345.202 400.725C342.841 398.5 339.985 396.797 337.348 394.874C331.609 390.699 325.76 390.726 319.801 394.38C317.247 395.945 314.556 397.319 312.167 399.132C307.224 402.895 302.226 402.923 296.871 400.176C293.713 398.555 290.39 397.319 287.177 395.808C282.014 393.336 276.659 393.198 271.195 394.517C266.114 395.726 261.418 397.786 256.832 400.285C252.548 402.62 248.017 404.571 243.486 406.411C238.324 408.499 233.298 407.51 228.602 404.763C226.955 403.802 225.417 402.648 223.769 401.714C215.503 397.017 206.881 395.698 197.928 399.599C192.189 402.098 186.395 404.488 180.793 407.29C177.689 408.856 174.586 409.598 171.346 408.664C169.039 408.004 166.952 406.549 164.838 405.367C162.531 404.076 160.911 401.494 157.917 401.412C156.435 403.884 156.599 405.972 158.714 408.059C166.87 416.053 174.614 417.179 184.692 412.18C190.047 409.515 195.676 407.428 201.196 405.12C206.826 402.758 212.4 403.17 217.81 405.834C220.254 407.016 222.506 408.554 224.868 409.9C231.266 413.526 237.967 415.366 245.161 412.4C249.94 410.449 254.608 408.224 259.304 406.082C262.764 404.516 266.142 402.648 269.712 401.384C275.286 399.379 280.833 399.406 286.298 402.346C289.896 404.269 293.768 405.642 297.502 407.318C302.94 409.762 308.13 409.048 313.128 406.082C315.709 404.543 318.345 403.115 320.762 401.329C326.199 397.291 331.28 397.703 336.278 402.099C338.722 404.269 341.33 406.219 343.912 408.279C347.07 410.779 350.859 411.63 354.676 411.548C357.835 411.493 361.295 411.273 363.656 407.977C363.162 406.603 362.64 405.148 362.228 403.939L362.201 403.802ZM164.7 185.199C165.332 175.942 158.851 170.531 153.112 164.02C154.842 163.389 156.132 162.4 156.984 162.674C159.181 163.416 161.185 164.762 163.602 166.026V158.774C158.988 156.713 154.814 154.873 150.915 153.142C147.18 154.955 145.972 157.785 145.615 161.218C145.038 166.657 146.741 171.382 149.871 175.722C153.716 181.024 157.917 183.771 164.728 185.172L164.7 185.199ZM342.099 179.898C342.703 180.227 343.225 180.777 343.637 180.667C350.118 179.266 355.143 176.025 357.45 169.459C359.839 162.674 358.741 155.395 354.237 149.489C353.139 151.137 352.068 152.648 351.134 154.214C348.91 157.922 347.015 161.905 344.433 165.366C342.154 168.415 341.138 171.465 341.605 175.146C341.825 176.739 341.935 178.359 342.099 179.898Z" fill="#1D262D"/>
<path fill-rule="evenodd" clip-rule="evenodd" d="M258.947 231.513C264.961 232.255 270.645 232.941 276.302 233.683C277.346 233.82 278.389 234.26 279.405 234.672C283.387 236.348 284.541 239.397 282.591 243.242C280.147 248.022 276.275 251.511 271.634 253.928C261.693 259.037 251.23 259.642 240.768 255.961C237.802 254.917 235.138 252.692 232.722 250.577C230.168 248.352 229.179 245.165 229.097 241.759C229.042 239.369 229.893 237.419 232.09 236.375C234.04 235.469 236.072 234.48 238.186 234.177C245.161 233.134 252.219 232.392 258.974 231.54L258.947 231.513ZM275.698 240.605C265.071 237.419 245.326 237.529 236.099 240.715C236.648 242.171 236.923 243.792 237.802 245C239.807 247.747 242.745 249.176 246.013 249.89C251.972 251.154 257.958 250.989 263.753 249.341C268.394 248.022 272.787 245.825 275.698 240.605Z" fill="#1D262D"/>
<path fill-rule="evenodd" clip-rule="evenodd" d="M277.593 207.532C277.675 213.795 274.517 219.454 267.789 222.833C266.142 223.657 264.192 224.069 262.352 224.233C260.704 224.398 259.084 223.767 258.398 222.008C257.684 220.141 258.782 218.822 260.128 217.888C261.693 216.817 263.451 216.075 265.098 215.114C267.899 213.493 269.41 210.911 269.602 207.779C269.684 206.268 268.97 204.703 268.503 203.192C268.366 202.725 267.844 202.34 267.405 202.011C260.375 196.682 258.865 189.1 258.837 180.969C258.837 176.629 259.002 172.289 259.249 167.948C259.331 166.657 259.826 165.311 260.457 164.158C260.759 163.608 261.803 163.196 262.462 163.224C263.121 163.251 264.192 163.828 264.357 164.377C264.961 166.438 265.4 168.553 265.62 170.668C266.114 175.255 266.499 179.843 266.801 184.458C267.103 189.32 268.833 193.33 272.76 196.434C275.89 198.879 277.648 202.23 277.593 207.532Z" fill="#1D262D"/>
<path fill-rule="evenodd" clip-rule="evenodd" d="M211.027 186.93C211.274 185.172 211.137 183.634 211.741 182.535C212.483 181.216 213.691 179.925 215.009 179.266C216.849 178.359 218.744 179.074 220.144 180.612C223.055 183.826 223.632 190.666 221.298 194.402C220.227 196.105 218.661 197.176 216.574 196.984C214.487 196.791 212.922 195.5 212.318 193.66C211.576 191.38 211.412 188.908 211.055 186.902L211.027 186.93Z" fill="#1D262D"/>
<path fill-rule="evenodd" clip-rule="evenodd" d="M305.356 187.836C305.027 190.034 304.999 191.682 304.505 193.193C303.461 196.489 298.903 197.286 296.651 194.676C293.603 191.133 293.301 184.815 295.992 181.134C297.859 178.579 302.006 178.662 303.407 181.518C304.45 183.634 304.834 186.051 305.356 187.836Z" fill="#1D262D"/>
<path fill-rule="evenodd" clip-rule="evenodd" d="M303.132 158.499C301.072 158.829 299.452 159.158 297.832 159.323C296.102 159.488 293.96 158.197 294.152 156.906C294.317 155.725 295.031 154.104 295.992 153.637C300.001 151.659 304.285 150.89 308.624 152.648C309.832 153.142 310.958 153.994 311.919 154.928C312.386 155.395 312.688 156.466 312.496 157.098C312.304 157.73 311.453 158.472 310.794 158.609C309.503 158.884 308.102 158.801 306.757 158.746C305.411 158.719 304.038 158.554 303.132 158.499Z" fill="#1D262D"/>
<path fill-rule="evenodd" clip-rule="evenodd" d="M222.176 156.356C217.838 156.494 213.307 156.741 208.775 156.713C208.034 156.713 206.826 155.56 206.716 154.818C206.606 153.994 207.293 152.428 207.979 152.208C212.043 150.78 216.162 149.269 220.474 151.439C222.396 152.401 223.357 153.802 222.176 156.356Z" fill="#1D262D"/>
</g>
<g clip-path="url(#clip2_23_5)">
<path fill-rule="evenodd" clip-rule="evenodd" d="M265.505 666.77C264.522 653.095 260.618 640.143 255.796 627.394C252.772 619.366 247.532 612.891 241.352 607.372C236.802 603.315 231.374 600.855 224.62 602.809C214.029 605.912 203.094 607.763 193.049 612.756C181.423 618.515 169.457 623.636 157.775 629.313C154.223 631.044 150.768 631.13 147.303 630.129C142.805 628.831 138.387 627.114 134.052 625.34C130.976 624.086 128.036 622.523 125.124 620.932C113.839 614.816 101.821 610.77 89.2846 608.093C89.0055 608.039 88.6716 608.098 88.4756 607.988C81.4155 603.731 73.5394 604.915 65.8991 604.396C60.3778 603.999 54.8269 603.407 49.4381 602.228C44.5239 601.156 40.5504 602.473 37.3185 605.734C34.0313 609.051 30.9422 612.701 28.3849 616.625C24.3153 622.875 20.6383 629.401 19.367 636.964C18.9957 639.113 18.0663 641.184 17.3044 643.281C13.5509 653.792 11.6678 664.677 11.0408 675.802C10.8497 679.426 10.4356 683.053 10.0511 686.874C14.0283 689.152 18.2803 690.982 22.5584 692.617C42.8301 700.325 65.2595 703.027 86.7854 704.399C113.553 706.115 140.496 705.516 167.199 702.997C192.009 700.633 216.975 697.126 240.907 689.977C249.69 687.363 258.47 684.36 266.598 680.109C266.225 675.681 265.851 671.253 265.534 666.825L265.505 666.77ZM36.442 658.301C35.9021 660.284 35.2365 663.829 33.8999 667.129C32.4272 670.793 29.04 672.244 25.8817 671.185C22.7793 670.153 21.0783 666.852 21.9651 663.11C22.8517 659.34 24.0455 655.651 26.6666 652.646C28.6257 650.427 31.1556 649.736 33.3098 650.692C35.6879 651.758 36.7363 653.728 36.442 658.301ZM40.9024 629.892C40.8117 629.085 40.888 628.248 40.8748 626.743C41.1381 624.985 41.3671 622.503 41.9036 620.129C42.3597 618.119 43.7696 616.825 45.9133 616.583C48.0846 616.313 49.627 617.414 50.6458 619.189C52.6548 622.655 52.8558 626.499 52.4158 630.348C52.0797 633.333 49.7566 635.36 46.8869 635.441C43.8225 635.551 41.238 633.205 40.8748 629.92L40.9024 629.892ZM53.7075 688.637C50.498 688.108 47.9645 685.204 47.7391 681.75C47.4832 677.99 49.9053 674.541 53.354 673.758C55.7736 673.208 58.4888 674.577 59.2896 676.911C59.633 677.939 59.7262 679.025 59.9308 680.11C60.1351 681.168 60.3676 682.252 60.5431 683.198C60.5727 686.57 57.1403 689.22 53.7077 688.665L53.7075 688.637ZM68.4473 650.273C67.6292 652.314 66.7001 654.412 65.3494 656.096C64.4122 657.275 62.6892 657.82 61.8576 658.329C58.2647 658.555 55.6546 656.46 55.2119 653.649C54.6231 650.06 56.7841 645.442 59.8618 643.66C62.0522 642.386 65.0084 642.639 66.8064 644.295C68.5766 645.952 69.375 648.007 68.4197 650.301L68.4473 650.273ZM74.0654 633.112C70.471 629.995 69.9308 622.419 73.0754 618.741C74.5926 616.972 76.5906 616.007 78.9372 616.655C81.1718 617.249 82.9399 618.655 83.5174 620.963C84.0376 623.076 84.1684 625.276 84.2894 626.362C84.304 628.034 84.3368 628.591 84.3136 629.121C84.1669 631.463 83.3486 633.477 80.9873 634.334C78.5149 635.219 76.1155 634.906 74.0375 633.113L74.0654 633.112ZM97.0379 675.493C95.2396 676.986 93.1563 677.757 90.9461 676.773C86.1342 674.641 83.0915 670.878 82.2655 665.674C81.6762 662.028 84.243 659.191 88.4773 659.015C89.1757 659.204 90.7361 659.19 91.7459 659.934C95.1115 662.384 97.7864 665.51 98.9091 669.597C99.5141 671.849 98.8917 673.972 97.0101 675.493L97.0379 675.493ZM116.346 690.902C116.137 695.614 113.212 698.928 109.669 698.485C106.237 698.041 104.119 694.911 104.221 690.59C104.282 687.998 105.127 685.817 107.09 684.1C110.381 681.228 114.964 682.637 116.004 686.892C116.264 687.949 116.33 689.035 116.36 689.313C116.37 690.4 116.372 690.679 116.374 690.93L116.346 690.902ZM115.112 645.544C113.304 645.894 111.159 646.052 109.537 645.398C105.818 643.87 103.422 640.825 102.246 636.99C101.442 634.349 102.312 631.833 104.278 630.339C106.271 628.845 109.027 628.542 111.133 630.335C113.604 632.431 115.716 634.976 117.8 637.466C118.448 638.241 118.515 639.494 118.658 639.911C118.738 642.725 117.282 645.107 115.112 645.516L115.112 645.544ZM128.122 673.632C125.285 674.298 122.036 672.431 121.144 669.151C120.568 667.066 120.464 664.781 120.585 662.635C120.73 660.153 122.529 658.744 124.78 658.027C126.642 657.426 129.466 658.432 130.514 660.429C131.62 662.566 132.198 664.985 132.598 666.096C132.526 670.584 130.764 673.024 128.122 673.66L128.122 673.632ZM140.14 645.882C140.455 643.649 140.473 642.507 140.77 641.473C141.475 639.237 142.91 637.636 145.331 637.225C147.752 636.813 149.739 637.688 151.066 639.683C153.269 643.035 153.943 646.819 153.643 650.751C153.443 653.401 151.567 655.479 149.119 656.002C146.393 656.584 143.905 655.686 142.686 653.384C141.298 650.776 140.742 647.771 140.112 645.882L140.14 645.882ZM160.372 674.464C158.036 678.135 155.84 681.944 153.082 685.285C151.097 687.699 147.724 687.617 145.702 685.851C143.905 684.306 143.211 681.442 144.668 679.088C146.536 676.09 148.713 673.256 151.059 670.616C152.769 668.678 155.298 667.792 157.785 668.634C159.071 669.069 160.004 670.593 160.903 671.449C160.693 672.873 160.785 673.819 160.372 674.464ZM170.915 650.07C170.668 647.314 173.236 644.644 176.302 644.7C176.833 644.835 177.78 644.827 178.425 645.267C182.181 647.742 185.192 651.004 186.817 655.226C188.015 658.337 184.423 661.824 180.906 661.214C176.692 660.498 171.288 654.47 170.915 650.07ZM197.776 684.614C196.148 686.496 194.094 687.322 191 687.293C187.486 687.017 183.831 686.464 181.133 683.868C180.093 682.846 179.351 680.958 179.394 679.508C179.46 677.473 181.034 675.843 183.094 675.546C188.187 674.833 192.965 676.24 197.307 678.794C199.268 679.947 199.349 682.817 197.776 684.642L197.776 684.614ZM201.203 633.725C198.976 637.144 194.202 636.183 192.72 632.35C191.436 629.045 193.21 621.589 195.782 619.281C198.104 617.198 202.207 617.859 203.541 620.662C204.109 621.855 204.344 623.247 204.918 625.165C203.799 627.822 202.936 631.09 201.176 633.753L201.203 633.725ZM218.249 661.276C217.541 663.122 215.824 664.335 213.735 664.437C211.256 664.598 209.405 663.332 208.411 661.195C206.395 656.866 206.83 652.542 209.303 648.535C211.282 645.341 216.438 645.407 218.472 648.594C219.32 649.952 219.669 651.621 220.325 653.316C219.652 655.969 219.23 658.704 218.249 661.248L218.249 661.276ZM225.653 618.935C227.434 615.52 232.53 615.001 234.509 618.3C235.867 620.601 236.504 623.327 237.274 625.355C237.011 627.113 236.937 628.228 236.64 629.262C235.72 632.475 232.193 633.815 229.391 632.056C225.356 629.556 223.515 623.051 225.653 618.935ZM245.579 666.666C244.783 671.187 242.315 675.779 238.783 679.795C236.769 682.07 233.539 682.377 231.213 680.949C228.888 679.548 228.138 676.684 229.672 673.605C231.288 670.386 233.156 667.304 235.108 664.277C235.822 663.156 236.9 662.144 238.036 661.381C239.671 660.28 241.476 659.568 243.466 660.832C245.091 661.877 245.83 663.459 245.607 666.638L245.579 666.666ZM251.424 653.126C248.124 654.939 244.414 654.581 242.276 652.231C240.39 650.158 241.164 646.277 243.747 645.196C244.746 644.769 245.86 644.675 246.305 644.56C250.513 644.579 252.894 645.923 253.639 648.286C254.184 650.092 253.282 652.079 251.424 653.098L251.424 653.126Z" fill="white"/>
<path fill-rule="evenodd" clip-rule="evenodd" d="M59.1923 437.108C61.7535 436.806 63.8965 436.481 66.0409 436.323C67.684 436.197 69.3865 436.489 71.001 436.279C76.5963 435.589 80.8121 433.295 82.5989 427.316C84.3314 421.504 86.6506 415.854 88.83 410.15C89.6203 408.109 90.662 406.149 91.7835 403.742C96.5629 402.168 101.509 400.564 106.372 398.988C107.19 396.835 105.952 395.564 104.305 395.188C101.931 394.68 99.4517 394.729 96.6353 394.531C96.9313 393.33 96.9773 392.215 97.4153 391.32C104.51 377.268 111.576 363.188 118.866 349.218C121.69 343.842 125.129 338.768 128.204 333.53C130.565 329.496 134.083 327.069 138.78 325.606C143.835 330.049 148.032 335.112 151.315 340.879C156.126 349.309 160.771 357.796 165.388 366.311C169.609 374.105 173.719 381.955 177.828 389.778C178.707 391.47 179.419 393.248 180.214 394.968C178.947 396.652 177.594 398.029 176.772 399.68C176.471 400.296 177.24 402.129 177.854 402.318C179.643 402.86 181.593 402.843 183.936 403.101C187.375 410.735 191.51 418.251 193.951 426.45C195.53 431.731 198.84 434.21 203.946 434.946C207.239 435.419 210.557 435.64 213.823 436.225C220.158 437.34 222.417 440.636 220.993 446.752C217.585 461.635 212.918 476.028 204.784 489.198C196.019 503.404 184.379 513.901 168.372 519.057C159.869 521.779 151.013 522.526 142.122 522.381C135.768 522.269 129.409 521.684 123.052 521.433C113.992 521.067 105.799 517.85 97.7945 513.963C94.0163 512.129 90.7052 509.539 88.2229 506.133C82.2145 497.853 76.3167 489.489 70.3911 481.124C69.9116 480.46 69.487 479.711 69.2015 478.933C64.5499 466.489 60.3429 453.902 58.8606 440.594C58.7699 439.787 58.9577 438.949 59.0806 437.081L59.1923 437.108ZM119.695 484.928C121.482 488.563 123.157 492.06 124.915 495.5C130.557 506.458 149.34 509.721 157.674 497.163C158.582 495.79 159.601 494.443 160.425 493.015C165.366 484.444 162.984 479.811 153.282 479.394C148.32 479.187 143.304 479.203 138.346 479.469C133.667 479.733 128.991 480.443 124.341 480.93C122.226 481.171 120.758 482.243 119.695 484.928ZM155.058 459.453C154.12 460.548 153.571 461.5 152.74 462.065C151.189 463.165 149.3 463.851 147.862 465.09C146.949 465.878 145.987 467.335 146.052 468.45C146.153 470.372 147.941 470.913 149.698 471.009C155.358 471.378 158.98 468.113 161.925 463.907C164.072 460.851 163.82 457.537 161.482 454.715C159.933 452.833 157.94 451.262 155.949 449.831C153.313 447.931 151.731 445.548 151.369 442.346C150.973 438.504 150.661 434.689 150.209 430.847C150.028 429.232 149.735 427.618 149.192 426.09C148.992 425.507 147.983 424.903 147.286 424.853C146.589 424.831 145.562 425.286 145.233 425.847C144.574 426.995 143.945 428.338 143.873 429.649C143.653 433.218 143.824 436.811 143.688 440.379C143.467 446.93 145.798 452.177 151.182 456.031C152.473 456.967 153.57 458.156 155.03 459.453L155.058 459.453ZM174.858 438.796C175.324 441.077 175.481 443.027 176.137 444.804C177.564 448.61 182.279 449.181 184.73 445.955C187.65 442.084 187.616 435.006 184.685 431.213C182.374 428.252 178.168 428.539 176.582 431.981C175.598 434.164 175.369 436.674 174.858 438.768L174.858 438.796ZM112.033 440.685C111.568 438.487 111.326 436.316 110.584 434.288C109.299 430.788 105.225 430.155 102.657 432.908C99.2611 436.533 99.2728 444.225 102.679 448.068C104.846 450.502 108.827 450.021 110.193 446.999C111.068 445.041 111.411 442.864 112.033 440.685Z" fill="white"/>
<path fill-rule="evenodd" clip-rule="evenodd" d="M227.43 595.929C224.791 596.871 221.781 596.898 218.855 596.951C215.177 597.012 211.844 598.183 208.426 599.328C190.781 605.168 174.131 613.256 157.596 621.623C153.545 623.665 149.956 624.365 145.788 622.534C140.221 620.103 134.462 618.091 129.032 615.408C120.328 611.109 111.488 607.285 101.939 605.223C100.069 604.821 98.1962 604.225 96.4888 603.376C89.1272 599.678 81.2327 598.772 73.1751 598.341C67.3759 598.03 61.576 597.635 55.8034 597.184C54.7995 597.109 53.8469 596.532 52.03 595.907C58.5046 590.611 63.7783 585.019 70.1774 580.643C78.8479 574.715 87.3773 568.565 95.9349 562.47C98.1781 560.862 100.365 559.143 102.551 557.452C109.112 552.406 113.569 545.901 115.98 537.966C116.927 534.808 117.987 531.678 119.099 528.156C120.519 528.06 121.854 527.742 123.109 527.926C136.672 530.037 150.125 529.306 163.504 526.318C164.505 526.086 165.621 526.271 167.07 526.259C167.788 528.705 168.394 531.096 169.195 533.402C170.825 538.097 172.371 542.821 174.306 547.403C177.038 553.872 181.128 559.465 186.767 563.708C192.49 568.033 198.406 572.133 204.239 576.318C210.97 581.164 217.728 585.981 224.376 590.939C225.779 591.986 227.877 592.859 227.43 595.929Z" fill="white"/>
<path fill-rule="evenodd" clip-rule="evenodd" d="M128.594 486.048C137.954 485.66 146.618 485.249 155.404 486.147C153.08 494.417 148.879 498.383 142.665 498.521C135.7 498.694 131.405 495.109 128.566 486.048L128.594 486.048Z" fill="white"/>
<path fill-rule="evenodd" clip-rule="evenodd" d="M273.866 685.897L267.764 685.951C267.366 685.118 266.944 684.648 266.912 684.147C266.415 678.355 265.918 672.563 265.505 666.742C264.521 653.067 260.618 640.115 255.796 627.366C252.772 619.338 247.532 612.863 241.352 607.344C236.802 603.287 231.374 600.827 224.619 602.781C214.029 605.884 203.093 607.735 193.049 612.728C181.423 618.487 169.457 623.609 157.774 629.285C154.222 631.016 150.768 631.102 147.303 630.101C142.805 628.803 138.387 627.086 134.052 625.313C130.975 624.058 128.036 622.495 125.123 620.904C113.839 614.789 101.82 610.742 89.2844 608.065C89.0052 608.012 88.6713 608.07 88.4753 607.96C81.4153 603.703 73.5391 604.887 65.8988 604.369C60.3775 603.971 54.8266 603.379 49.4378 602.2C44.5237 601.128 40.5502 602.445 37.3183 605.706C34.0311 609.023 30.9419 612.673 28.3847 616.597C24.3151 622.848 20.638 629.373 19.3667 636.936C18.9954 639.086 18.0661 641.156 17.3042 643.253C13.5507 653.764 11.6676 664.649 11.0406 675.774C10.8006 680.179 10.254 684.587 9.8221 689.356C8.0123 689.539 6.5364 689.664 4.72661 689.847C4.39955 687.509 3.96494 685.618 3.89283 683.751C3.46384 669.793 4.95952 656.041 9.69274 642.846C12.5492 634.906 13.3969 626.706 13.8261 618.453C15.3267 589.373 13.3716 560.296 13.1167 531.232C12.8737 503.533 13.1601 475.83 13.363 448.127C13.4644 434.276 14.151 420.42 14.0295 406.57C13.7929 385.95 16.039 365.615 20.0704 345.486C23.4605 328.485 30.1775 312.708 39.5523 298.107C41.7791 294.632 44.5097 291.403 47.4099 288.451C56.2489 279.484 58.97 278.345 71.3078 277.485C71.7507 277.146 72.3061 276.919 72.6089 276.498C81.3626 264.159 93.7873 257.306 107.85 252.947C113.937 251.054 120.023 249.217 126.11 247.352C134.809 244.684 143.584 244.273 152.329 246.872C163.45 250.202 174.572 253.643 185.556 257.393C192.936 259.92 199.74 263.622 205.693 268.754C206.535 269.471 207.378 270.188 208.303 270.793C229.969 285.038 242.277 306.11 250.483 329.837C252.971 337.061 253.264 345.057 254.362 352.739C257.211 372.5 258.751 392.384 260.096 412.298C262.018 440.763 264.497 469.194 266.502 497.658C267.107 506.208 267.043 514.82 267.174 523.402C267.469 541.123 267.485 558.875 268.058 576.594C268.672 595.706 269.759 614.786 270.595 633.869C270.665 635.484 270.653 637.24 270.136 638.749C268.914 642.327 269.25 645.724 270.062 649.312C272.672 660.966 273.167 672.861 273.95 685.869L273.866 685.897ZM59.1923 437.108C59.0691 438.948 58.8816 439.814 58.9723 440.621C60.4546 453.929 64.6616 466.516 69.3132 478.96C69.5987 479.738 70.0509 480.459 70.5029 481.151C76.4282 489.488 82.3259 497.852 88.3347 506.16C90.8169 509.566 94.128 512.156 97.9062 513.99C105.91 517.849 114.104 521.094 123.164 521.46C129.52 521.711 135.879 522.296 142.234 522.408C151.125 522.581 159.981 521.806 168.484 519.084C184.491 513.955 196.131 503.458 204.896 489.225C213.029 476.055 217.669 461.69 221.105 446.779C222.501 440.663 220.242 437.367 213.934 436.252C210.669 435.667 207.35 435.446 204.058 434.973C198.952 434.265 195.641 431.758 194.062 426.477C191.622 418.278 187.487 410.762 184.048 403.128C181.677 402.87 179.754 402.887 177.966 402.345C177.351 402.156 176.611 400.295 176.884 399.707C177.706 398.056 179.031 396.651 180.326 394.995C179.531 393.274 178.818 391.497 177.94 389.805C173.83 381.954 169.72 374.104 165.5 366.338C160.883 357.823 156.21 349.336 151.427 340.906C148.143 335.138 143.974 330.075 138.891 325.633C134.195 327.095 130.704 329.495 128.315 333.557C125.24 338.823 121.801 343.869 118.978 349.245C111.688 363.215 104.621 377.294 97.527 391.346C97.0611 392.242 97.0152 393.357 96.747 394.558C99.5636 394.784 102.043 394.707 104.416 395.215C106.064 395.563 107.329 396.834 106.484 399.015C101.621 400.591 96.6749 402.222 91.8952 403.769C90.7738 406.176 89.7041 408.136 88.9417 410.177C86.79 415.853 84.4429 421.503 82.7106 427.343C80.9238 433.322 76.7078 435.588 71.1127 436.306C69.4703 436.516 67.7957 436.224 66.1526 436.35C64.0082 436.508 61.8652 436.833 59.304 437.135L59.1923 437.108ZM227.43 595.929C227.877 592.859 225.807 591.986 224.376 590.939C217.728 585.981 210.97 581.164 204.239 576.318C198.405 572.105 192.49 568.033 186.767 563.708C181.128 559.465 177.038 553.872 174.306 547.403C172.371 542.821 170.825 538.097 169.195 533.402C168.394 531.096 167.788 528.705 167.07 526.259C165.621 526.271 164.533 526.086 163.504 526.318C150.125 529.278 136.699 530.009 123.109 527.926C121.854 527.742 120.519 528.06 119.099 528.156C117.959 531.678 116.927 534.808 115.98 537.966C113.569 545.901 109.112 552.406 102.551 557.452C100.365 559.143 98.206 560.862 95.9349 562.47C87.3773 568.565 78.8482 574.743 70.1774 580.643C63.7783 585.019 58.5046 590.611 52.03 595.907C53.8469 596.532 54.7995 597.109 55.8034 597.183C61.576 597.634 67.3762 598.057 73.1751 598.341C81.2327 598.772 89.1272 599.678 96.4889 603.376C98.1962 604.225 100.069 604.821 101.939 605.223C111.488 607.285 120.328 611.109 129.032 615.408C134.462 618.091 140.221 620.103 145.788 622.534C149.956 624.365 153.545 623.665 157.596 621.623C174.104 613.257 190.781 605.168 208.426 599.328C211.844 598.183 215.178 597.039 218.855 596.951C221.781 596.926 224.791 596.899 227.43 595.929Z" fill="#1D262D"/>
<path fill-rule="evenodd" clip-rule="evenodd" d="M36.442 658.301C35.9021 660.284 35.2365 663.829 33.8999 667.129C32.4272 670.793 29.04 672.244 25.8817 671.185C22.7793 670.153 21.0783 666.852 21.9651 663.11C22.8517 659.34 24.0455 655.651 26.6666 652.646C28.6257 650.427 31.1556 649.736 33.3098 650.692C35.6879 651.758 36.7363 653.728 36.442 658.301Z" fill="#1D262D"/>
<path fill-rule="evenodd" clip-rule="evenodd" d="M245.579 666.666C244.783 671.187 242.315 675.779 238.783 679.795C236.769 682.07 233.539 682.377 231.213 680.949C228.888 679.548 228.138 676.684 229.672 673.605C231.288 670.386 233.156 667.304 235.108 664.277C235.822 663.156 236.9 662.144 238.036 661.381C239.671 660.28 241.476 659.568 243.466 660.832C245.091 661.877 245.83 663.459 245.607 666.638L245.579 666.666Z" fill="#1D262D"/>
<path fill-rule="evenodd" clip-rule="evenodd" d="M88.4773 659.015C89.1757 659.204 90.7361 659.19 91.7459 659.934C95.1115 662.384 97.7864 665.51 98.9091 669.597C99.514 671.849 98.8917 673.972 97.0101 675.493C95.2117 676.986 93.1284 677.757 90.9183 676.773C86.1063 674.642 83.0636 670.878 82.2376 665.674C81.6483 662.029 84.2151 659.191 88.4494 659.015L88.4773 659.015Z" fill="#1D262D"/>
<path fill-rule="evenodd" clip-rule="evenodd" d="M140.14 645.882C140.455 643.649 140.473 642.507 140.77 641.473C141.475 639.237 142.91 637.636 145.331 637.225C147.752 636.813 149.739 637.688 151.066 639.683C153.269 643.035 153.943 646.819 153.643 650.751C153.443 653.401 151.567 655.479 149.119 656.002C146.393 656.584 143.905 655.686 142.686 653.384C141.298 650.776 140.742 647.771 140.112 645.882L140.14 645.882Z" fill="#1D262D"/>
<path fill-rule="evenodd" clip-rule="evenodd" d="M118.658 639.967C118.739 642.781 117.282 645.162 115.112 645.572C113.304 645.922 111.16 646.08 109.538 645.425C105.818 643.897 103.422 640.853 102.246 637.018C101.443 634.377 102.312 631.861 104.278 630.367C106.271 628.873 109.027 628.57 111.133 630.363C113.604 632.459 115.716 635.004 117.8 637.494C118.448 638.269 118.515 639.522 118.658 639.939L118.658 639.967Z" fill="#1D262D"/>
<path fill-rule="evenodd" clip-rule="evenodd" d="M160.903 671.477C160.693 672.9 160.785 673.847 160.372 674.492C158.036 678.163 155.84 681.972 153.082 685.313C151.097 687.727 147.724 687.645 145.702 685.879C143.905 684.334 143.211 681.47 144.668 679.116C146.536 676.118 148.713 673.284 151.059 670.644C152.77 668.706 155.298 667.82 157.785 668.662C159.071 669.097 160.004 670.621 160.903 671.477Z" fill="#1D262D"/>
<path fill-rule="evenodd" clip-rule="evenodd" d="M84.3172 626.362C84.3319 628.034 84.3647 628.591 84.3414 629.121C84.1948 631.463 83.3764 633.477 81.0152 634.333C78.5427 635.219 76.1433 634.906 74.0654 633.112C70.471 629.995 69.9308 622.42 73.0754 618.741C74.5926 616.972 76.5906 616.007 78.9372 616.655C81.1718 617.249 82.9398 618.655 83.5174 620.963C84.0376 623.076 84.1684 625.276 84.2894 626.362L84.3172 626.362Z" fill="#1D262D"/>
<path fill-rule="evenodd" clip-rule="evenodd" d="M220.325 653.316C219.652 655.969 219.23 658.704 218.249 661.248C217.541 663.094 215.824 664.307 213.734 664.409C211.256 664.57 209.405 663.304 208.411 661.167C206.394 656.838 206.83 652.514 209.303 648.507C211.282 645.313 216.438 645.379 218.472 648.566C219.32 649.924 219.669 651.593 220.325 653.288L220.325 653.316Z" fill="#1D262D"/>
<path fill-rule="evenodd" clip-rule="evenodd" d="M40.8469 626.743C41.1102 624.985 41.3392 622.503 41.8758 620.13C42.3319 618.119 43.7418 616.825 45.8855 616.583C48.0568 616.313 49.5992 617.414 50.618 619.189C52.627 622.655 52.8279 626.499 52.3879 630.349C52.0518 633.333 49.7287 635.36 46.8591 635.441C43.7946 635.552 41.2102 633.206 40.8469 629.92C40.7563 629.113 40.8325 628.276 40.8193 626.771L40.8469 626.743Z" fill="#1D262D"/>
<path fill-rule="evenodd" clip-rule="evenodd" d="M176.302 644.7C176.833 644.835 177.78 644.827 178.425 645.267C182.181 647.742 185.192 651.004 186.817 655.226C188.015 658.337 184.423 661.824 180.906 661.214C176.692 660.498 171.288 654.47 170.915 650.07C170.668 647.314 173.236 644.644 176.302 644.7Z" fill="#1D262D"/>
<path fill-rule="evenodd" clip-rule="evenodd" d="M191 687.293C187.486 687.017 183.831 686.464 181.133 683.868C180.093 682.846 179.351 680.958 179.394 679.508C179.46 677.473 181.034 675.843 183.094 675.546C188.187 674.833 192.965 676.24 197.307 678.794C199.268 679.947 199.349 682.817 197.776 684.642C196.149 686.523 194.094 687.35 191 687.321L191 687.293Z" fill="#1D262D"/>
<path fill-rule="evenodd" clip-rule="evenodd" d="M204.918 625.137C203.799 627.794 202.936 631.062 201.175 633.725C198.948 637.145 194.174 636.183 192.692 632.35C191.409 629.045 193.182 621.589 195.754 619.281C198.077 617.199 202.179 617.859 203.513 620.662C204.081 621.856 204.316 623.247 204.89 625.165L204.918 625.137Z" fill="#1D262D"/>
<path fill-rule="evenodd" clip-rule="evenodd" d="M237.275 625.382C237.011 627.14 236.937 628.256 236.64 629.289C235.721 632.502 232.193 633.843 229.391 632.084C225.356 629.584 223.516 623.079 225.653 618.963C227.435 615.548 232.53 615.029 234.51 618.328C235.867 620.629 236.504 623.355 237.275 625.382Z" fill="#1D262D"/>
<path fill-rule="evenodd" clip-rule="evenodd" d="M116.332 689.286C116.341 690.373 116.344 690.651 116.346 690.902C116.137 695.614 113.212 698.928 109.669 698.485C106.237 698.041 104.119 694.911 104.221 690.59C104.282 687.998 105.127 685.817 107.09 684.1C110.381 681.228 114.964 682.637 116.004 686.892C116.264 687.949 116.33 689.035 116.36 689.313L116.332 689.286Z" fill="#1D262D"/>
<path fill-rule="evenodd" clip-rule="evenodd" d="M61.8576 658.329C58.2647 658.555 55.6546 656.46 55.2119 653.649C54.6231 650.06 56.7841 645.442 59.8618 643.66C62.0522 642.386 65.0084 642.639 66.8064 644.295C68.5766 645.952 69.375 648.007 68.4197 650.301C67.6016 652.342 66.6725 654.441 65.3217 656.125C64.3846 657.303 62.6616 657.848 61.83 658.357L61.8576 658.329Z" fill="#1D262D"/>
<path fill-rule="evenodd" clip-rule="evenodd" d="M60.5431 683.198C60.5727 686.57 57.1403 689.22 53.7077 688.665C50.4983 688.136 47.9647 685.232 47.7393 681.778C47.4834 678.018 49.9055 674.569 53.3542 673.786C55.7739 673.236 58.4891 674.605 59.2898 676.939C59.6333 677.967 59.7264 679.053 59.931 680.138C60.1353 681.195 60.3678 682.28 60.5433 683.226L60.5431 683.198Z" fill="#1D262D"/>
<path fill-rule="evenodd" clip-rule="evenodd" d="M132.598 666.041C132.526 670.528 130.764 672.968 128.122 673.604C125.285 674.27 122.036 672.403 121.143 669.123C120.568 667.038 120.464 664.754 120.585 662.607C120.73 660.125 122.529 658.716 124.78 658C126.642 657.398 129.465 658.404 130.514 660.402C131.62 662.538 132.198 664.957 132.598 666.068L132.598 666.041Z" fill="#1D262D"/>
<path fill-rule="evenodd" clip-rule="evenodd" d="M246.305 644.56C250.513 644.579 252.894 645.923 253.639 648.286C254.184 650.092 253.282 652.079 251.424 653.098C248.123 654.911 244.414 654.553 242.275 652.203C240.39 650.13 241.164 646.249 243.746 645.168C244.746 644.741 245.86 644.647 246.305 644.532L246.305 644.56Z" fill="#1D262D"/>
<path fill-rule="evenodd" clip-rule="evenodd" d="M119.695 484.928C120.758 482.271 122.226 481.171 124.341 480.93C129.019 480.415 133.666 479.706 138.346 479.469C143.304 479.203 148.32 479.159 153.282 479.394C162.984 479.811 165.366 484.444 160.425 493.015C159.601 494.443 158.582 495.762 157.674 497.163C149.34 509.721 130.557 506.458 124.915 495.5C123.129 492.06 121.482 488.563 119.695 484.928ZM128.594 486.048C131.433 495.108 135.728 498.666 142.693 498.521C148.879 498.383 153.108 494.416 155.432 486.147C146.646 485.249 137.982 485.659 128.622 486.048L128.594 486.048Z" fill="#1D262D"/>
<path fill-rule="evenodd" clip-rule="evenodd" d="M155.058 459.453C153.598 458.156 152.5 456.967 151.21 456.031C145.826 452.177 143.495 446.93 143.716 440.379C143.824 436.811 143.681 433.217 143.9 429.648C143.973 428.338 144.574 426.995 145.261 425.846C145.59 425.286 146.617 424.803 147.314 424.853C147.983 424.903 148.992 425.507 149.22 426.09C149.763 427.618 150.056 429.232 150.237 430.847C150.688 434.661 151.001 438.504 151.397 442.346C151.731 445.548 153.341 447.931 155.977 449.83C157.968 451.262 159.961 452.833 161.51 454.714C163.848 457.536 164.099 460.823 161.953 463.907C159.008 468.113 155.386 471.377 149.725 471.009C147.997 470.885 146.181 470.371 146.08 468.449C146.015 467.335 146.977 465.878 147.89 465.089C149.328 463.878 151.217 463.165 152.768 462.065C153.599 461.5 154.148 460.548 155.086 459.453L155.058 459.453Z" fill="#1D262D"/>
<path fill-rule="evenodd" clip-rule="evenodd" d="M174.858 438.796C175.369 436.702 175.598 434.191 176.582 432.009C178.14 428.54 182.374 428.28 184.685 431.241C187.644 435.005 187.679 442.111 184.731 445.983C182.307 449.209 177.564 448.638 176.137 444.832C175.481 443.054 175.324 441.105 174.858 438.824L174.858 438.796Z" fill="#1D262D"/>
<path fill-rule="evenodd" clip-rule="evenodd" d="M112.033 440.685C111.411 442.864 111.068 445.041 110.193 446.999C108.827 450.021 104.818 450.474 102.679 448.068C99.2728 444.225 99.2611 436.533 102.657 432.908C105.225 430.155 109.327 430.788 110.584 434.288C111.298 436.316 111.54 438.488 112.033 440.685Z" fill="#1D262D"/>
</g>
<g clip-path="url(#clip3_23_5)">
<path fill-rule="evenodd" clip-rule="evenodd" d="M384.637 337.317C383.776 339.184 383.095 340.417 382.617 341.711C375.785 361.067 362.294 373.986 343.52 381.583C340.41 382.844 336.821 383.06 333.432 383.567C328.652 384.259 328.01 384.684 326.83 388.916C321.87 406.562 306.739 418.883 288.517 419.178C276.948 419.353 277.416 421.207 278.197 430.576C279.104 441.477 280.822 452.244 283.583 462.821C284.577 466.675 285.946 470.534 287.724 474.08C290.829 480.242 294.196 486.263 297.796 492.142C302.077 499.099 308.229 504.403 314.882 508.962C320.789 512.992 327.168 516.277 334.001 520.29C332.395 528.647 329.286 536.812 321.814 542.411C313.116 548.976 304.218 555.337 295.064 561.29C281.538 570.078 268.495 579.478 256.649 590.395C251.969 594.699 246.763 594.779 241.404 593.211C230.224 589.925 221.602 583.262 215.685 572.963C206.738 557.457 204.918 540.911 208.743 523.829C211.314 512.365 214.549 500.966 218.761 490.012C225.185 473.28 229.128 456.055 232.726 438.594C236.755 419.088 238.674 399.47 238.861 379.599C238.993 364.262 241.316 349.357 247.478 335.105C253.461 321.285 262.247 309.984 274.586 301.297C288.763 291.362 304.071 283.491 319.493 275.738C330.55 270.184 342.318 270.329 354.067 272.005C359.349 272.763 364.069 272.243 369.176 270.833C386.907 265.852 403.934 268.633 420.082 277.065C437.292 286.087 450.78 299.194 461.105 315.527C464.934 321.582 468.325 327.95 471.601 334.316C478.577 347.834 481.695 362.373 481.913 377.483C482.075 387.826 482.207 398.198 481.444 408.472C479.989 428.009 483.604 446.772 488.927 465.353C493.03 479.702 497.249 494.024 501.555 508.318C504.917 519.422 506.454 530.765 505.849 542.311C505.284 552.992 502.554 563.271 499.421 573.429C498.397 576.738 496.396 579.573 493.592 581.82C488.452 585.917 483.823 590.799 477.15 592.537C474.946 593.116 472.684 593.579 470.426 593.811C468.37 594.017 466.615 593.273 465.103 591.608C456.803 582.32 446.682 575.205 436.503 568.176C430.138 563.764 423.891 559.152 417.643 554.569C411.711 550.192 407.444 544.449 404.723 537.656C402.17 531.27 399.937 524.772 397.448 517.895C399.051 516.875 400.337 515.764 401.819 515.147C414.056 510.127 424.3 502.512 432.095 491.805C435.478 487.167 438.66 482.383 441.67 477.509C447.276 468.45 448.617 458.155 449.814 447.857C450.301 443.588 450.123 439.253 450.205 434.95C450.25 431.311 448.929 428.175 446.241 425.745C443.037 422.874 439.923 419.861 436.396 417.42C426.36 410.508 417.847 402.026 409.774 393.001C404.126 386.692 399.876 379.591 397.431 371.502C395.209 364.08 393.278 356.574 391.172 349.125C390.396 346.371 389.679 343.56 388.496 340.975C387.876 339.639 386.239 338.781 384.608 337.316L384.637 337.317ZM346.667 313.942C345.244 314.444 344.057 314.517 343.82 315.005C342.721 317.331 341.796 319.717 340.956 322.162C339.936 325.153 339.175 328.206 338.155 331.197C335.005 340.431 328.46 345.867 318.98 347.83C316.747 348.294 314.404 348.38 312.172 348.844C307.62 349.741 306.709 350.943 306.562 355.852C306.167 369.134 298.37 379.986 285.791 384.597C282.567 385.77 279.174 386.508 275.894 387.566C274.993 387.872 274.261 388.643 272.949 389.551C274.297 390.377 274.898 390.962 275.618 391.144C280.576 392.447 285.33 391.524 289.895 389.529C301.524 384.502 308.374 375.372 311.76 363.426C312.517 360.72 312.869 357.923 313.425 355.099C316.585 354.444 319.424 354.017 322.209 353.301C329.695 351.284 335.988 347.433 339.948 340.607C344.616 332.519 345.884 323.522 346.696 313.942L346.667 313.942ZM473.059 563.196C475.141 563.222 476.294 563.525 477.223 563.19C480.448 562.016 482.157 559.409 483.092 556.243C486.204 545.478 485.259 535.298 478.607 525.973C477.3 524.137 475.904 522.387 474.482 520.52C475.573 518.801 476.429 517.367 477.343 515.934C481.59 509.256 481.444 502.35 477.913 495.519C475.965 491.711 473.492 488.185 471.166 484.574C470.371 483.351 469.113 482.209 467.682 483.289C467.04 483.773 466.962 485.389 467.152 486.431C467.395 487.821 468.073 489.129 468.693 490.408C469.934 492.994 471.349 495.496 472.561 498.081C475.209 503.747 474.94 509.174 471.06 514.239C470.207 515.384 469.24 516.469 468.502 517.674C466.849 520.34 467.059 522.133 469.283 524.645C470.224 525.725 471.341 526.634 472.311 527.686C476.135 531.864 478.128 536.741 478.433 542.436C478.859 550.096 478.034 553.754 473.03 563.196L473.059 563.196ZM278.433 531.073C278.784 530.701 279.136 530.33 279.488 529.959C278.389 527.635 277.289 525.339 276.19 523.015C271.17 512.698 269.25 501.9 270.807 490.51C271.092 488.52 271.319 486.53 271.69 484.57C272.558 479.843 271.858 475.646 268.755 471.68C265.253 467.217 264.047 461.858 264.839 456.264C265.566 451.189 266.756 446.178 267.859 441.165C268.196 439.581 268.909 438.087 269.928 435.154C267.746 436.224 266.442 436.439 266.116 437.1C264.366 440.689 262.471 444.247 261.354 448.046C258.696 457.199 258.7 466.27 264.674 474.287C267.263 477.727 266.816 481.159 266.365 484.88C265.717 490.533 264.837 496.242 264.912 501.933C265.019 511.987 268.726 520.901 275.283 528.549C276.138 529.542 277.373 530.222 278.433 531.044L278.433 531.073ZM455.044 384.864C456.407 382.252 457.051 381.567 457.09 380.817C457.519 374.149 456.906 367.556 454.176 361.456C447.056 345.597 436.757 331.865 424.707 319.439C423.85 318.562 422.466 318.199 421.432 317.666C419.846 319.639 420.902 320.75 421.727 321.887C427.413 329.785 433.274 337.599 438.755 345.668C444.72 354.465 449.927 363.686 451.761 374.425C452.273 377.435 453.597 380.311 455.073 384.894L455.044 384.864ZM246.873 499.053C243.36 500.223 243.303 500.165 242.386 501.858C236.583 512.792 234.185 524.316 236.202 536.676C237.009 541.567 238.426 546.206 241.472 550.115C243.38 552.565 245.665 554.817 248.158 556.667C251.139 558.842 252.472 558.598 256.168 556.708C244.846 548.539 240.664 540.63 240.889 527.085C241.014 519.288 242.495 511.767 245.62 504.555C246.364 502.86 248.205 501.265 246.873 499.053ZM268.625 341.461C269.143 341.727 269.66 341.994 270.177 342.289C271.848 340.403 273.52 338.517 275.192 336.603C276.893 334.659 278.537 332.686 280.324 330.831C281.906 329.175 283.545 327.578 285.241 326.068C287.17 324.358 289.157 322.707 291.172 321.115C293.187 319.522 295.345 318.075 297.388 316.541C299.314 315.091 302.067 314.634 303.281 312.396C301.752 309.749 300.004 310.767 298.607 311.501C287.547 317.286 278.054 324.968 271.157 335.484C269.979 337.26 269.46 339.478 268.654 341.461L268.625 341.461ZM423.864 368.968C424.335 368.31 424.685 368.054 424.659 367.851C424.416 366.462 424.231 365.044 423.727 363.738C420.25 354.914 415.463 346.767 410.239 338.874C409.615 337.942 408.728 337.152 407.84 336.476C407.467 336.183 406.514 336.084 406.28 336.313C405.782 336.884 405.396 337.659 405.3 338.409C405.236 338.899 405.663 339.482 405.946 339.977C410.987 348.618 416.027 357.288 421.126 365.901C421.806 367.036 422.894 367.916 423.836 368.968L423.864 368.968ZM450.009 532.871C452.084 528.794 450.97 525.314 449.509 521.888C447.26 516.632 444.581 513.421 440.105 510.564C439.901 510.735 439.668 510.876 439.492 511.077C439.345 511.277 439.08 511.62 439.165 511.795C441.916 518.53 446.265 524.592 447.853 531.862C447.907 532.18 448.773 532.306 449.98 532.87L450.009 532.871Z" fill="white"/>
<path fill-rule="evenodd" clip-rule="evenodd" d="M332.145 412.899C331.07 408.553 327.647 409.464 325.581 408.138C328.457 402.368 331.245 396.77 334.239 390.769C341.306 389.932 348.331 387.708 354.913 383.976C361.203 380.385 367.096 376.241 371.818 370.811C376.629 365.295 380.896 359.282 385.862 352.901C386.423 354.324 387.019 355.255 387.151 356.239C389.902 377.013 399.028 394.428 414.82 408.257C420.428 413.179 426.211 417.872 431.906 422.708C435.398 425.669 438.918 428.658 442.38 431.647C444.24 433.259 444.995 435.29 444.762 437.772C444.006 445.186 443.595 452.662 441.194 459.796C440.744 461.149 440.12 462.498 439.9 463.882C438.392 473.656 433.09 481.476 426.87 488.737C422.968 493.281 419.352 498.09 414.248 501.608C408.297 505.752 402.209 509.317 395.215 511.368C388.888 513.254 382.727 515.663 376.401 517.491C373.411 518.35 370.168 518.714 367.044 518.762C341.734 519.346 320.385 510.59 303.794 491.205C302.141 489.249 300.664 487.036 299.594 484.712C295.876 476.636 291.869 468.643 288.906 460.287C285.133 449.726 283.389 438.699 284.459 426.956C286.314 426.603 287.94 426.075 289.531 426.065C299.104 425.981 307.702 422.823 314.976 416.876C319.153 413.49 323.163 411.922 328.351 413.314C329.303 413.557 330.466 413.052 332.146 412.812L332.145 412.899ZM361.579 429.611C361.227 425.361 361.034 422.239 360.668 419.114C360.589 418.449 359.563 417.281 359.33 417.365C358.372 417.7 357.005 418.289 356.823 419.038C356.243 421.515 355.951 424.053 355.804 426.594C355.473 432.367 355.43 438.172 348.746 440.863C347.787 441.255 347.078 442.402 346.431 443.318C344.548 445.924 343.212 448.738 343.807 452.067C344.835 457.857 352.797 464.108 358.989 463.838C359.451 463.843 360.395 462.353 360.226 461.975C359.634 460.726 358.781 459.531 357.752 458.594C355.865 456.867 353.685 455.424 351.827 453.668C349.854 451.824 349.709 449.54 351.468 447.569C352.787 446.112 354.364 444.861 356.026 443.812C358.648 442.169 360.151 439.906 360.622 436.936C361.032 434.14 361.356 431.313 361.58 429.553L361.579 429.611ZM362.3 486.092C364.153 485.941 367.857 485.727 371.506 485.281C374.141 484.967 376.468 483.869 377.828 481.43C378.183 480.799 378.168 479.73 377.857 479.091C377.519 478.422 376.688 477.806 375.967 477.623C375.217 477.441 374.289 477.66 373.505 477.94C364.503 480.977 355.547 480.289 346.524 478.011C344.621 477.526 342.689 477.098 340.753 476.929C340.262 476.894 339.526 477.983 339.17 478.672C338.963 479.045 339.155 479.914 339.44 480.235C340.24 481.025 341.157 481.729 342.134 482.261C347.851 485.278 354.12 485.76 362.271 486.091L362.3 486.092ZM316.499 438.79C316.714 440.121 316.816 441.249 317.091 442.35C317.586 444.407 319.501 446.279 321.179 446.213C323.349 446.125 324.925 444.96 325.903 443.036C327.473 439.994 327.193 436.929 325.899 433.937C325.168 432.253 323.734 431.34 321.796 431.345C319.887 431.35 318.458 432.372 317.744 434.01C317.088 435.562 316.864 437.292 316.47 438.789L316.499 438.79ZM393.278 438.581C393.661 440.406 393.762 441.562 394.125 442.607C394.711 444.318 395.795 445.574 397.7 445.886C399.546 446.198 401.558 444.923 402.42 442.969C403.909 439.521 403.139 436.276 401.268 433.249C400.332 431.736 396.951 431.549 395.978 433.097C394.798 434.931 394.02 437.059 393.307 438.582L393.278 438.581ZM390.567 407.582C396.282 408.404 400.67 409.064 405.317 409.728C405.544 405.398 402.721 404.497 400.01 403.943C396.75 403.297 393.37 402.995 390.595 407.583L390.567 407.582Z" fill="white"/>
<path fill-rule="evenodd" clip-rule="evenodd" d="M389.617 559.596C387.691 563.356 386.855 565.484 385.589 567.346C381.231 573.705 373.253 573.375 369.461 566.656C368.216 564.474 367.465 562.009 366.258 559.077C364.945 560.014 363.608 560.546 362.902 561.549C360.37 565.186 357.071 567.774 353.285 569.951C349.906 571.874 346.67 571.661 343.543 569.629C340.531 567.685 339.991 564.53 340.234 561.298C340.341 559.624 341.171 557.988 341.423 556.316C341.58 555.278 341.246 554.205 341.093 552.556C339.032 553.195 337.409 553.522 335.954 554.226C333.889 555.212 331.993 556.546 329.985 557.59C327.598 558.831 325.079 559.06 322.456 558.392C319.141 557.543 318.141 554.18 320.542 551.812C321.332 551.013 322.267 550.302 323.2 549.678C326.057 547.749 328.914 545.878 332.354 543.638C333.532 544.288 334.998 545 336.405 545.826C340.682 548.421 345.439 549.577 350.292 549.983C358.294 550.66 366.329 551.019 374.335 551.32C381.33 551.579 387.921 549.436 394.509 547.467C396.135 546.996 397.704 546.38 398.894 545.99C403.013 549.68 406.788 553.106 410.592 556.475C413.796 559.317 413.163 563.786 409.123 565.412C407.35 566.141 405.058 566.777 403.358 566.265C398.776 564.937 393.419 565.536 389.617 559.625L389.617 559.596Z" fill="white"/>
<path fill-rule="evenodd" clip-rule="evenodd" d="M341.293 522.258C358.378 525.039 374.615 526.308 390.599 519.861C392.995 522.577 392.954 525.841 393.873 528.741C394.819 531.728 395.707 534.772 396.763 538.222C395.451 539.101 394.221 540.357 392.74 540.888C384.288 543.845 375.677 545.675 366.583 544.465C361.473 543.795 356.267 543.875 351.123 543.581C345.575 543.253 340.415 541.918 335.927 537.645C337.636 532.785 339.314 528.01 341.322 522.258L341.293 522.258Z" fill="white"/>
<path fill-rule="evenodd" clip-rule="evenodd" d="M295.956 582.734C298.238 582.964 300.374 585.648 299.626 587.69C297.98 592.147 295.275 595.753 290.486 597.225C288.599 597.808 286.422 596.077 286.303 594.025C286.094 589.892 290.244 584.021 294.307 582.772C294.83 582.605 295.436 582.699 295.957 582.676L295.956 582.734Z" fill="white"/>
<path fill-rule="evenodd" clip-rule="evenodd" d="M253.436 628.167C252.552 627.174 250.974 626.144 250.586 624.752C249.368 620.347 253.401 614.59 257.863 613.894C259.949 613.573 262.695 616.005 262.207 618.05C261.262 622.024 259.226 625.35 255.613 627.53C255.147 627.813 254.539 627.863 253.436 628.167Z" fill="white"/>
<path fill-rule="evenodd" clip-rule="evenodd" d="M368.492 598.331C368.19 599.425 367.729 601.644 366.979 603.772C366.289 605.786 364.165 606.886 362.261 606.516C360.299 606.145 358.528 604.39 358.698 602.312C358.902 599.831 359.367 597.266 360.235 594.937C360.953 593.01 362.645 591.789 364.983 592.107C367.12 592.393 368.541 594.404 368.521 598.361L368.492 598.331Z" fill="white"/>
<path fill-rule="evenodd" clip-rule="evenodd" d="M470.679 627.177C470.441 630.092 468.281 631.712 466.319 631.37C461.298 630.47 457.968 623.843 460.279 619.337C461.138 617.672 463.896 616.839 465.473 617.927C469.028 620.369 470.313 624.024 470.679 627.177Z" fill="white"/>
<path fill-rule="evenodd" clip-rule="evenodd" d="M298.841 618.501C299.468 619.26 300.844 620.173 301.033 621.301C301.654 624.862 300.314 628.023 297.852 630.65C295.743 632.877 291.764 631.875 290.962 628.976C289.853 625.092 292.693 619.87 296.554 618.704C297.076 618.537 297.683 618.603 298.84 618.53L298.841 618.501Z" fill="white"/>
<path fill-rule="evenodd" clip-rule="evenodd" d="M443.094 594.196C443.308 597.925 440.801 599.512 438.473 598.357C434.593 596.46 432.581 593.142 432.198 588.978C432.096 587.908 433.27 586.478 434.234 585.652C435.433 584.627 436.99 584.993 438.105 585.989C440.937 588.479 442.692 591.621 443.065 594.196L443.094 594.196Z" fill="white"/>
<path fill-rule="evenodd" clip-rule="evenodd" d="M340.993 631.066C340.871 626.877 341.632 623.795 344.031 621.514C344.88 620.716 346.765 620.219 347.831 620.579C348.954 620.939 350.553 622.605 350.426 623.499C349.984 626.527 349.223 629.637 347.888 632.365C347.354 633.456 344.827 634.349 343.501 634.044C342.29 633.769 341.505 631.708 340.964 631.037L340.993 631.066Z" fill="white"/>
<path fill-rule="evenodd" clip-rule="evenodd" d="M430.468 619.027C434.944 619.544 438.199 625.304 436.536 628.865C435.467 631.105 432.187 632.075 429.976 630.806C426.588 628.887 425.526 623.472 428.108 620.5C428.783 619.728 429.944 619.367 430.497 619.027L430.468 619.027Z" fill="white"/>
<path fill-rule="evenodd" clip-rule="evenodd" d="M329.623 591.613C331.533 591.492 333.533 593.481 333.393 595.443C333.182 598.445 331.995 600.943 329.514 602.761C327.034 604.551 323.496 603.034 322.869 599.964C322.105 596.2 325.658 591.824 329.623 591.613Z" fill="white"/>
<path fill-rule="evenodd" clip-rule="evenodd" d="M401.501 590.217C402.826 590.667 403.808 590.737 404.38 591.264C407.126 593.666 408.303 596.771 407.94 600.378C407.743 602.282 405.008 603.606 403.284 602.747C400.065 601.176 397.601 596.928 398.452 593.588C398.786 592.263 400.505 591.274 401.472 590.246L401.501 590.217Z" fill="white"/>
<path fill-rule="evenodd" clip-rule="evenodd" d="M388.042 621.71C388.615 622.15 389.995 622.745 390.648 623.793C391.328 624.899 391.598 626.433 391.61 627.791C391.634 630.593 389.432 633.224 387.349 633.313C384.716 633.425 382.072 629.753 382.487 626.581C382.871 623.582 384.833 621.584 388.013 621.681L388.042 621.71Z" fill="white"/>
<path fill-rule="evenodd" clip-rule="evenodd" d="M359.316 268.459C370.97 261.381 383.529 260.698 396.234 262.27C409.862 263.94 422.233 269.148 433.677 276.741C451.833 288.837 464.875 305.29 475.341 324.166C485.78 342.983 490.506 363.088 490.358 384.462C490.321 392.203 490.514 400.004 489.898 407.709C488.298 427.245 491.97 446.009 497.323 464.59C501.233 478.099 505.173 491.58 509.2 505.061C511.755 513.643 513.15 522.413 513.967 531.262C514.76 539.648 513.877 547.899 512.128 556.081C511.115 560.863 509.929 565.586 508.8 570.338C506.149 581.34 499.658 589.406 489.676 594.54C485.136 596.881 480.314 598.641 475.081 600.888C476.305 602.521 477.355 604.093 478.61 605.495C484.829 612.447 489.154 620.473 492.14 629.291C497.858 646.317 500.302 663.881 500.486 681.792C500.5 682.948 500.544 684.104 500.414 685.229C500.089 688.171 498.475 690.058 495.607 690.485C493.637 690.778 491.613 690.753 489.589 690.728C403.052 689.545 316.545 688.363 230.009 687.123C226.626 687.081 223.123 687.413 219.36 685.374C218.035 675.507 219.141 665.613 220.737 655.725C222.303 646.039 225.511 636.806 229.237 627.782C233.082 618.499 238.277 609.955 244.969 601.892C240.248 600.13 236.305 598.608 232.333 597.143C223.61 593.945 217.09 588.001 212.036 580.428C204.768 569.535 200.172 557.607 199.874 544.258C199.674 534.723 200.108 525.283 202.882 516.102C206.198 505.109 209.428 494.086 213.378 483.331C217.419 472.231 220.998 461.067 223.136 449.453C225.584 436.195 228.234 422.97 230.134 409.619C231.338 401.112 231.416 392.448 231.753 383.844C232.181 372.642 232.665 361.469 235.259 350.495C237.639 340.357 241.66 330.874 246.717 321.809C251.389 313.432 257.351 306.024 265.113 300.371C272.758 294.775 280.631 289.47 288.702 284.544C295.812 280.212 303.403 276.695 310.654 272.625C326.349 263.835 342.567 261.897 359.345 268.43L359.316 268.459ZM384.637 337.317C386.268 338.781 387.905 339.639 388.525 340.975C389.737 343.561 390.425 346.372 391.201 349.125C393.307 356.575 395.238 364.08 397.46 371.502C399.905 379.591 404.126 386.721 409.803 393.001C417.876 401.997 426.389 410.508 436.425 417.42C439.952 419.832 443.096 422.846 446.27 425.745C448.958 428.176 450.279 431.312 450.234 434.951C450.181 439.254 450.359 443.589 449.843 447.858C448.647 458.126 447.305 468.451 441.699 477.51C438.689 482.383 435.507 487.168 432.124 491.805C424.329 502.513 414.085 510.128 401.848 515.147C400.366 515.765 399.109 516.847 397.477 517.895C399.995 524.743 402.199 531.27 404.752 537.656C407.473 544.449 411.74 550.192 417.672 554.569C423.92 559.153 430.167 563.765 436.532 568.176C446.711 575.205 456.802 582.349 465.132 591.608C466.644 593.302 468.399 594.017 470.455 593.812C472.713 593.608 474.975 593.116 477.179 592.537C483.852 590.799 488.481 585.917 493.621 581.821C496.425 579.573 498.426 576.767 499.451 573.429C502.583 563.271 505.313 552.993 505.878 542.312C506.484 530.736 504.917 519.422 501.584 508.318C497.278 494.024 493.059 479.703 488.956 465.354C483.633 446.772 480.047 428.01 481.473 408.472C482.237 398.169 482.104 387.798 481.942 377.483C481.695 362.373 478.578 347.834 471.63 334.317C468.354 327.95 464.963 321.582 461.134 315.527C450.78 299.223 437.292 286.087 420.111 277.065C403.963 268.605 386.936 265.853 369.205 270.834C364.098 272.273 359.378 272.763 354.096 272.005C342.347 270.329 330.579 270.184 319.522 275.738C304.129 283.492 288.792 291.362 274.615 301.297C262.247 309.984 253.461 321.285 247.507 335.106C241.345 349.357 239.022 364.262 238.89 379.599C238.703 399.47 236.784 419.089 232.755 438.595C229.157 456.055 225.185 473.309 218.79 490.013C214.607 500.966 211.343 512.365 208.772 523.83C204.947 540.883 206.768 557.428 215.714 572.963C221.631 583.233 230.253 589.896 241.433 593.212C246.792 594.78 251.998 594.7 256.678 590.395C268.525 579.449 281.596 570.078 295.093 561.29C304.218 555.337 313.116 548.976 321.844 542.411C329.287 536.783 332.424 528.647 334.03 520.29C327.197 516.307 320.818 512.993 314.911 508.963C308.258 504.432 302.106 499.099 297.825 492.143C294.225 486.292 290.858 480.242 287.753 474.08C285.975 470.534 284.606 466.676 283.612 462.822C280.851 452.244 279.133 441.478 278.226 430.576C277.445 421.208 276.977 419.353 288.546 419.178C306.768 418.883 321.899 406.562 326.859 388.916C328.039 384.685 328.681 384.259 333.461 383.567C336.85 383.06 340.41 382.844 343.549 381.583C362.323 373.986 375.785 361.067 382.646 341.712C383.095 340.417 383.805 339.184 384.666 337.317L384.637 337.317ZM332.145 412.899C330.494 413.138 329.33 413.673 328.35 413.401C323.162 412.008 319.124 413.547 314.975 416.962C307.673 422.909 299.103 426.068 289.53 426.152C287.91 426.161 286.313 426.69 284.458 427.043C283.389 438.757 285.132 449.784 288.906 460.374C291.868 468.729 295.876 476.722 299.593 484.798C300.663 487.123 302.111 489.336 303.793 491.292C320.413 510.677 341.733 519.432 367.044 518.849C370.168 518.772 373.411 518.436 376.4 517.578C382.726 515.749 388.887 513.341 395.214 511.455C402.209 509.375 408.297 505.81 414.247 501.695C419.322 498.147 422.967 493.368 426.869 488.823C433.06 481.591 438.39 473.771 439.899 463.969C440.119 462.556 440.743 461.235 441.193 459.883C443.595 452.72 444.005 445.273 444.761 437.858C445.024 435.349 444.239 433.346 442.379 431.734C438.917 428.745 435.397 425.755 431.905 422.795C426.21 417.987 420.427 413.265 414.819 408.343C399.027 394.515 389.902 377.099 387.15 356.326C387.018 355.342 386.422 354.381 385.861 352.988C380.924 359.368 376.657 365.382 371.818 370.897C367.095 376.327 361.202 380.501 354.912 384.063C348.33 387.795 341.305 390.019 334.238 390.856C331.244 396.856 328.456 402.455 325.58 408.225C327.646 409.522 331.07 408.639 332.144 412.986L332.145 412.899ZM389.618 559.596C393.42 565.507 398.777 564.88 403.358 566.236C405.058 566.748 407.351 566.083 409.124 565.383C413.192 563.758 413.797 559.288 410.593 556.446C406.788 553.077 403.013 549.651 398.895 545.961C397.704 546.38 396.106 546.966 394.51 547.438C387.922 549.379 381.302 551.55 374.336 551.291C366.3 550.989 358.294 550.631 350.292 549.954C345.439 549.548 340.682 548.392 336.405 545.797C335.028 544.942 333.533 544.231 332.355 543.609C328.915 545.878 326.029 547.749 323.2 549.649C322.267 550.273 321.333 550.984 320.542 551.783C318.142 554.151 319.17 557.543 322.456 558.364C325.08 559.031 327.598 558.802 329.985 557.561C332.023 556.488 333.889 555.183 335.955 554.197C337.409 553.493 339.061 553.196 341.094 552.527C341.276 554.176 341.58 555.277 341.423 556.287C341.171 557.988 340.341 559.595 340.234 561.269C340.021 564.502 340.531 567.657 343.544 569.6C346.671 571.603 349.907 571.845 353.285 569.922C357.071 567.774 360.4 565.157 362.903 561.52C363.609 560.517 364.946 559.985 366.259 559.048C367.495 562.01 368.245 564.445 369.462 566.627C373.254 573.346 381.231 573.676 385.589 567.317C386.856 565.484 387.692 563.328 389.618 559.567L389.618 559.596ZM341.293 522.258C339.285 528.01 337.607 532.784 335.899 537.645C340.386 541.889 345.546 543.252 351.094 543.581C356.266 543.904 361.473 543.795 366.554 544.464C375.648 545.674 384.259 543.874 392.711 540.887C394.192 540.357 395.422 539.101 396.735 538.222C395.678 534.771 394.819 531.728 393.844 528.74C392.925 525.869 392.965 522.606 390.57 519.861C374.615 526.308 358.35 525.01 341.265 522.257L341.293 522.258ZM295.956 582.734C295.436 582.728 294.829 582.662 294.307 582.829C290.243 584.079 286.093 589.949 286.302 594.083C286.422 596.135 288.598 597.837 290.485 597.283C295.304 595.782 298.008 592.205 299.625 587.748C300.373 585.706 298.237 583.022 295.956 582.792L295.956 582.734ZM253.436 628.167C254.539 627.863 255.147 627.813 255.613 627.529C259.226 625.35 261.262 622.024 262.207 618.05C262.695 616.005 259.95 613.544 257.863 613.894C253.401 614.59 249.369 620.347 250.587 624.752C250.975 626.115 252.552 627.145 253.436 628.167ZM368.492 598.331C368.541 594.404 367.091 592.364 364.955 592.077C362.616 591.76 360.924 592.981 360.206 594.907C359.368 597.237 358.874 599.801 358.67 602.283C358.528 604.361 360.3 606.087 362.232 606.487C364.136 606.857 366.261 605.756 366.951 603.743C367.7 601.615 368.161 599.396 368.464 598.302L368.492 598.331ZM470.68 627.177C470.314 624.024 469.057 620.369 465.473 617.927C463.896 616.839 461.109 617.671 460.279 619.337C457.997 623.844 461.298 630.47 466.319 631.37C468.281 631.712 470.441 630.092 470.68 627.177ZM298.841 618.501C297.683 618.603 297.105 618.538 296.554 618.675C292.665 619.841 289.853 625.063 290.962 628.947C291.794 631.846 295.743 632.848 297.853 630.621C300.314 628.023 301.654 624.862 301.033 621.272C300.845 620.144 299.468 619.231 298.841 618.472L298.841 618.501ZM443.094 594.196C442.721 591.621 440.966 588.508 438.134 585.989C437.019 584.993 435.433 584.627 434.264 585.653C433.299 586.479 432.125 587.908 432.227 588.978C432.581 593.142 434.593 596.46 438.502 598.357C440.83 599.512 443.337 597.926 443.123 594.197L443.094 594.196ZM340.993 631.066C341.505 631.737 342.318 633.798 343.529 634.073C344.856 634.378 347.383 633.485 347.917 632.394C349.252 629.666 350.042 626.556 350.455 623.528C350.582 622.635 348.983 620.968 347.86 620.608C346.765 620.248 344.909 620.716 344.06 621.543C341.66 623.824 340.9 626.906 341.021 631.096L340.993 631.066ZM430.469 619.027C429.915 619.367 428.754 619.728 428.079 620.499C425.498 623.472 426.559 628.886 429.947 630.806C432.158 632.075 435.438 631.076 436.507 628.865C438.199 625.304 434.944 619.544 430.44 619.026L430.469 619.027ZM329.623 591.613C325.658 591.853 322.105 596.228 322.869 599.964C323.496 603.034 327.034 604.551 329.514 602.761C331.995 600.972 333.211 598.445 333.393 595.443C333.533 593.481 331.533 591.492 329.623 591.613ZM401.501 590.217C400.505 591.245 398.816 592.235 398.481 593.559C397.601 596.928 400.094 601.147 403.313 602.718C405.067 603.577 407.772 602.282 407.969 600.349C408.332 596.743 407.156 593.638 404.409 591.235C403.837 590.737 402.855 590.667 401.53 590.189L401.501 590.217ZM388.042 621.71C384.833 621.613 382.9 623.611 382.516 626.61C382.101 629.754 384.745 633.426 387.378 633.343C389.461 633.253 391.633 630.622 391.639 627.82C391.656 626.463 391.386 624.929 390.676 623.822C390.024 622.774 388.643 622.18 388.07 621.739L388.042 621.71Z" fill="#1D262D"/>
<path fill-rule="evenodd" clip-rule="evenodd" d="M346.667 313.942C345.855 323.551 344.616 332.519 339.919 340.607C335.959 347.462 329.665 351.313 322.18 353.3C319.424 354.046 316.584 354.473 313.396 355.098C312.84 357.922 312.487 360.749 311.731 363.426C308.345 375.372 301.495 384.502 289.866 389.529C285.301 391.495 280.547 392.447 275.589 391.144C274.869 390.962 274.269 390.376 272.92 389.551C274.232 388.643 274.965 387.872 275.865 387.565C279.146 386.508 282.509 385.77 285.762 384.597C298.369 380.015 306.137 369.163 306.533 355.851C306.68 350.943 307.591 349.741 312.143 348.844C314.404 348.409 316.718 348.293 318.951 347.83C328.431 345.867 334.976 340.431 338.126 331.197C339.146 328.206 339.907 325.153 340.927 322.162C341.767 319.717 342.693 317.302 343.791 315.004C344.029 314.487 345.215 314.444 346.638 313.942L346.667 313.942Z" fill="#1D262D"/>
<path fill-rule="evenodd" clip-rule="evenodd" d="M473.059 563.196C478.091 553.755 478.888 550.096 478.462 542.436C478.156 536.771 476.164 531.864 472.34 527.687C471.37 526.635 470.253 525.725 469.312 524.645C467.117 522.134 466.907 520.369 468.531 517.674C469.268 516.47 470.236 515.384 471.089 514.239C474.94 509.174 475.238 503.747 472.589 498.082C471.378 495.496 469.963 492.994 468.722 490.408C468.102 489.13 467.424 487.792 467.181 486.432C466.991 485.418 467.098 483.802 467.711 483.29C469.113 482.181 470.4 483.323 471.194 484.575C473.521 488.185 475.994 491.711 477.942 495.519C481.472 502.351 481.619 509.227 477.372 515.934C476.458 517.367 475.573 518.801 474.511 520.521C475.933 522.416 477.328 524.166 478.636 525.973C485.288 535.299 486.233 545.478 483.121 556.243C482.215 559.409 480.476 562.016 477.252 563.19C476.323 563.525 475.17 563.222 473.088 563.196L473.059 563.196Z" fill="#1D262D"/>
<path fill-rule="evenodd" clip-rule="evenodd" d="M298.953 518.673C297.893 517.852 296.658 517.172 295.803 516.179C289.246 508.53 285.539 499.617 285.432 489.563C285.357 483.872 286.237 478.192 286.885 472.51C287.307 468.789 287.754 465.357 285.194 461.917C279.22 453.899 279.187 444.829 281.874 435.676C282.991 431.877 284.886 428.29 286.636 424.73C286.962 424.069 288.266 423.854 290.448 422.783C289.429 425.717 288.716 427.239 288.379 428.795C287.276 433.808 286.086 438.819 285.358 443.894C284.567 449.488 285.773 454.847 289.275 459.309C292.378 463.247 293.107 467.474 292.21 472.2C291.839 474.159 291.612 476.15 291.327 478.139C289.741 489.53 291.66 500.357 296.71 510.644C297.838 512.94 298.908 515.264 300.008 517.589C299.656 517.96 299.304 518.331 298.953 518.702L298.953 518.673Z" fill="#1D262D"/>
<path fill-rule="evenodd" clip-rule="evenodd" d="M455.044 384.864C453.568 380.282 452.245 377.406 451.732 374.396C449.898 363.656 444.72 354.436 438.727 345.638C433.245 337.569 427.384 329.785 421.698 321.858C420.874 320.721 419.817 319.61 421.403 317.637C422.437 318.198 423.85 318.533 424.678 319.41C436.728 331.864 447.027 345.567 454.148 361.427C456.906 367.527 457.519 374.12 457.061 380.787C457.023 381.538 456.349 382.223 455.016 384.835L455.044 384.864Z" fill="#1D262D"/>
<path fill-rule="evenodd" clip-rule="evenodd" d="M246.873 499.053C248.205 501.265 246.364 502.86 245.62 504.555C242.495 511.767 241.014 519.317 240.889 527.085C240.664 540.63 244.817 548.538 256.168 556.708C252.501 558.599 251.139 558.842 248.158 556.667C245.665 554.846 243.38 552.565 241.472 550.115C238.426 546.206 236.98 541.567 236.202 536.675C234.185 524.316 236.583 512.792 242.386 501.858C243.274 500.164 243.36 500.223 246.873 499.053Z" fill="#1D262D"/>
<path fill-rule="evenodd" clip-rule="evenodd" d="M268.625 341.461C269.46 339.449 269.979 337.26 271.128 335.484C278.025 324.939 287.518 317.286 298.578 311.5C299.975 310.767 301.723 309.748 303.252 312.396C302.067 314.634 299.286 315.062 297.359 316.54C295.316 318.104 293.187 319.551 291.143 321.114C289.128 322.707 287.141 324.358 285.212 326.067C283.516 327.577 281.848 329.174 280.295 330.831C278.537 332.686 276.893 334.688 275.163 336.602C273.491 338.488 271.82 340.374 270.148 342.289C269.631 342.022 269.114 341.727 268.597 341.461L268.625 341.461Z" fill="#1D262D"/>
<path fill-rule="evenodd" clip-rule="evenodd" d="M423.864 368.968C422.895 367.887 421.807 367.007 421.155 365.902C416.056 357.289 411.016 348.619 405.975 339.977C405.692 339.483 405.236 338.899 405.329 338.41C405.454 337.66 405.811 336.856 406.309 336.313C406.514 336.084 407.496 336.183 407.869 336.477C408.756 337.181 409.644 337.943 410.268 338.875C415.492 346.767 420.278 354.914 423.755 363.738C424.26 365.045 424.445 366.462 424.688 367.852C424.714 368.054 424.393 368.31 423.893 368.968L423.864 368.968Z" fill="#1D262D"/>
<path fill-rule="evenodd" clip-rule="evenodd" d="M450.009 532.871C448.773 532.306 447.936 532.181 447.882 531.862C446.294 524.592 441.945 518.53 439.194 511.795C439.138 511.621 439.373 511.306 439.521 511.077C439.668 510.876 439.93 510.735 440.134 510.564C444.61 513.422 447.289 516.632 449.537 521.888C450.999 525.315 452.084 528.794 450.038 532.871L450.009 532.871Z" fill="#1D262D"/>
<path fill-rule="evenodd" clip-rule="evenodd" d="M361.579 429.611C361.355 431.37 361.06 434.198 360.621 436.994C360.15 439.964 358.648 442.227 356.025 443.87C354.364 444.918 352.758 446.169 351.467 447.627C349.708 449.569 349.854 451.853 351.826 453.726C353.684 455.482 355.864 456.896 357.751 458.652C358.752 459.589 359.633 460.784 360.225 462.033C360.394 462.411 359.451 463.872 358.988 463.895C352.796 464.137 344.863 457.915 343.806 452.125C343.212 448.767 344.518 445.981 346.43 443.376C347.107 442.46 347.786 441.284 348.745 440.921C355.429 438.23 355.472 432.424 355.803 426.651C355.95 424.111 356.213 421.544 356.822 419.096C357.005 418.347 358.371 417.757 359.33 417.423C359.562 417.339 360.589 418.507 360.667 419.172C361.062 422.297 361.226 425.418 361.579 429.669L361.579 429.611Z" fill="#1D262D"/>
<path fill-rule="evenodd" clip-rule="evenodd" d="M362.3 486.092C354.12 485.76 347.88 485.278 342.162 482.262C341.186 481.73 340.269 481.025 339.469 480.235C339.155 479.914 338.992 479.074 339.199 478.672C339.555 477.983 340.291 476.895 340.782 476.93C342.718 477.069 344.65 477.526 346.553 478.012C355.547 480.289 364.532 480.978 373.534 477.94C374.318 477.69 375.246 477.441 375.996 477.624C376.716 477.806 377.576 478.423 377.886 479.091C378.196 479.731 378.212 480.829 377.857 481.431C376.497 483.84 374.142 484.938 371.535 485.281C367.857 485.727 364.153 485.941 362.329 486.092L362.3 486.092Z" fill="#1D262D"/>
<path fill-rule="evenodd" clip-rule="evenodd" d="M316.499 438.79C316.864 437.292 317.089 435.533 317.772 434.01C318.487 432.373 319.887 431.35 321.825 431.345C323.734 431.34 325.197 432.253 325.928 433.938C327.222 436.929 327.531 439.995 325.932 443.037C324.925 444.96 323.378 446.125 321.208 446.214C319.53 446.28 317.615 444.407 317.12 442.35C316.845 441.249 316.743 440.093 316.528 438.79L316.499 438.79Z" fill="#1D262D"/>
<path fill-rule="evenodd" clip-rule="evenodd" d="M393.278 438.581C394.02 437.059 394.769 434.931 395.949 433.097C396.951 431.578 400.332 431.764 401.239 433.249C403.11 436.276 403.851 439.52 402.391 442.969C401.558 444.923 399.518 446.197 397.671 445.886C395.795 445.574 394.683 444.318 394.096 442.606C393.734 441.533 393.632 440.405 393.25 438.581L393.278 438.581Z" fill="#1D262D"/>
<path fill-rule="evenodd" clip-rule="evenodd" d="M390.567 407.582C393.341 402.995 396.75 403.297 399.981 403.943C402.692 404.496 405.515 405.427 405.288 409.728C400.641 409.064 396.282 408.404 390.538 407.582L390.567 407.582Z" fill="#1D262D"/>
</g>
</g>
<defs>
<clipPath id="clip0_23_5">
<rect width="517.619" height="706.351" fill="white"/>
</clipPath>
<clipPath id="clip1_23_5">
<rect width="265" height="448" fill="white" transform="translate(126.31)"/>
</clipPath>
<clipPath id="clip2_23_5">
<rect width="270" height="460" fill="white" transform="translate(0 246.369) rotate(-0.502635)"/>
</clipPath>
<clipPath id="clip3_23_5">
<rect width="314.342" height="427.881" fill="white" transform="translate(203.301 259.313) rotate(0.70649)"/>
</clipPath>
</defs>
</svg>
