<svg width="605" height="553" viewBox="0 0 605 553" fill="none" xmlns="http://www.w3.org/2000/svg">
<path d="M549.276 360.19C544.307 345.368 529.756 315.004 518.948 302.193C519.285 283.965 518.546 274.346 509.993 257.755C503.256 244.683 494.61 234.755 479.853 232.762C479.049 229.861 477.813 231.573 477.018 228.673C476.4 226.417 473.771 225.379 471.75 226.52C469.747 227.653 469.738 219.53 467.735 220.663C461.943 205.897 458.275 201.124 443.996 182.185C441.114 178.358 427.723 169.964 425.337 165.819C423.541 162.694 424.795 160.57 421.622 158.708C418.796 157.051 420.593 149.247 417.496 150.361C414.296 133.555 422.446 135.632 389.003 96.3407C390.415 83.0626 390.977 70.271 382.836 53.2313C378.335 43.8178 366.068 36.4816 360.884 27.433C361.66 17.5703 364.879 3.82437 354.783 1.67217C345.772 -0.24609 337.752 4.61974 333.504 12.4986C310.7 4.7601 287.672 8.01647 265.504 17.3925C242.953 26.9371 229.235 42.7791 219.428 65.1806C214.198 77.1206 209.182 88.6583 208.911 101.684C204.7 103.929 203.212 105.071 199.235 107.326C198.318 107.841 203.175 110.227 202.099 110.433C193.639 112.052 191.777 114.195 193.565 115.636C195.483 117.17 195.165 117.488 197.074 119.023C147.676 143.811 110.284 191.393 82.9979 238.61C69.1022 262.659 59.4267 286.398 51.5104 313.029C49.4892 319.841 50.2378 329.255 48.6471 336.179C48.3383 337.517 49.5828 342.636 48.9371 343.843C48.3289 344.957 39.299 351.984 38.3352 352.976C35.659 355.746 31.5698 364.925 29.2024 367.957C20.2568 379.401 15.0728 394.869 10.1976 408.521C-2.57519 444.313 0.718602 462.906 2.88951 500.251C2.88951 500.308 3.24511 503.124 3.25446 503.171C0.915121 516.122 4.88266 526.068 15.3723 534.097C30.0727 545.354 49.9197 546.411 67.6519 547.909C110.658 551.549 153.843 552.915 196.989 552.69C240.192 552.466 283.367 550.65 326.486 547.946C369.708 545.242 412.873 541.639 456.011 537.849C499.158 534.06 542.286 530.064 585.461 526.574C590.775 526.143 596.091 525.722 601.405 525.301C603.286 525.151 605.055 523.785 604.999 521.727C603.857 482.922 606.412 427.919 562.207 396.347C557.95 393.306 556.35 381.254 549.294 360.181L549.276 360.19Z" fill="white"/>
<path d="M417.645 134.369C414.969 131.917 410.74 133.143 408.672 135.726C407.465 137.223 406.8 138.982 406.08 140.751C405.743 141.583 405.312 142.688 404.657 143.492C402.374 140.685 399.502 138.168 395.628 138.533C391.538 138.926 388.974 142.435 389.049 146.421C389.124 150.342 391.314 153.888 394.907 155.498C398.566 157.135 403.104 157.304 406.922 155.919C406.969 157.547 408.943 158.567 410.328 157.725C412.34 156.508 412.939 154.019 413.949 152.017C414.979 150.005 415.924 147.946 416.803 145.869C418.226 142.519 421.023 137.457 417.636 134.369H417.645Z" fill="#DE5004"/>
<path d="M254.425 130.907C250.074 128.081 245.76 131.019 243.729 135.08C241.268 139.983 240.211 145.542 240.595 151.006C240.763 153.383 244.487 153.402 244.319 151.006C244.3 150.716 244.282 150.426 244.272 150.146C245.358 150.136 246.527 149.706 247.538 149.397C248.82 149.004 250.046 148.527 251.225 147.881C253.321 146.721 255.192 145.149 256.493 143.109C259.076 139.057 258.664 133.649 254.434 130.897L254.425 130.907Z" fill="#DE5004"/>
<path d="M310.925 176.187C305.61 174.091 297.123 175.841 294.924 181.727C292.201 185.516 291.967 190.756 293.978 195.042C296.57 200.554 302.812 202.996 308.604 201.92C314.48 200.825 318.729 196.006 319.262 190.111C319.795 184.197 316.492 178.377 310.925 176.178V176.187Z" fill="#ED91B4"/>
<path d="M305.544 134.977C306.929 135.015 308.183 133.508 307.715 132.142C305.572 125.947 298.638 122.13 292.247 123.786C286.249 125.339 280.888 132.554 283.704 138.692C284.181 139.74 286.034 139.534 286.268 138.402C286.745 138.926 287.513 139.188 288.317 138.767C293.651 135.997 299.555 134.818 305.544 134.977Z" fill="#ED91B4"/>
<path d="M256.998 103.621C261.462 104.369 266.094 102.189 267.656 97.8002C268.442 95.6013 268.255 92.5788 267.151 90.1272C267.357 89.7436 267.375 89.2663 267.067 88.8172C264.681 85.3643 260.189 83.549 256.081 84.6812C251.739 85.879 249.035 90.2208 249.213 94.6281C249.391 99.1196 252.525 102.872 256.998 103.621Z" fill="#FAF1E6"/>
<path d="M227.073 217.013C230.03 218.463 232.641 220.382 235.065 222.599C239.977 227.11 244.057 232.443 249.016 236.907C260.657 247.368 276.883 251.682 292.182 248.36C294.325 247.892 294.708 245.207 293.408 243.756C284.144 233.398 276.087 222.01 268.508 210.379C264.681 204.502 261.003 198.532 257.344 192.534C253.789 186.705 250.092 180.95 246.883 174.924C243.823 169.178 241.474 163.133 239.388 156.986C241.278 154.16 242.775 150.913 242.485 147.422C242.223 144.316 240.707 141.2 237.769 139.834C231.396 136.886 226.25 143.352 224.406 148.714C223.302 151.923 222.975 155.535 222.806 158.913C222.619 162.516 222.844 166.109 223.368 169.665C224.416 176.814 226.989 183.72 230.723 189.905C232.304 192.534 234.868 195.744 234.391 199.019C234.241 200.058 233.745 201.293 232.856 201.938C231.883 202.65 230.582 202.416 229.488 202.191C226.596 201.592 223.499 200.619 220.86 202.519C218.072 204.53 217.903 208.292 219.354 211.174C220.888 214.234 224.173 215.581 227.073 217.004V217.013Z" fill="#FAF1E6"/>
<path d="M184.525 337.798C168.496 325.587 158.081 306.077 156.107 286.089C155.555 280.447 155.611 274.711 156.406 269.096C156.584 267.871 156.107 266.673 154.825 266.308C154.058 266.093 153.038 266.373 152.467 267.01L152.327 266.888C152.364 266.813 152.402 266.738 152.439 266.663C153.103 265.325 151.363 263.716 150.249 264.97C142.698 273.476 141.032 286.595 143.802 297.337C144.991 301.922 147.685 308.397 142.249 311.261C140.19 312.346 137.823 312.748 135.624 313.45C133.125 314.236 130.889 315.387 128.849 317.034C125.041 320.122 122.542 324.688 121.878 329.526C116.123 328.123 108.993 327.739 106.083 333.812C104.969 336.133 104.642 339.024 105.849 341.373C107.336 344.255 110.668 345.125 113.662 344.348C115.524 343.862 117.218 342.842 118.874 341.906C120.596 340.933 122.346 340.016 124.133 339.164C127.792 337.424 131.609 336.011 135.521 334.944C142.988 332.904 150.736 332.315 158.428 333.204C166.887 334.177 175.103 337.05 182.401 341.429C184.797 342.86 186.631 339.389 184.535 337.789L184.525 337.798Z" fill="#FAF1E6"/>
<path d="M420.715 297.777C387.131 296.738 357.843 315.977 331.052 333.849C305.937 350.618 278.904 368.172 247.51 367.573C232.594 367.292 217.473 362.707 206.534 352.208C203.998 349.776 200.133 353.612 202.651 356.054L200.321 358.356C199.02 357.168 197.382 358.918 198.421 360.246C203.306 366.46 209.014 371.653 215.657 375.939C222.217 380.159 229.544 383.406 236.992 385.708C252.057 390.358 268.349 391.21 283.77 387.841C300.781 384.136 315.828 374.909 329.34 364.242C343.301 353.228 355.775 340.502 369.492 329.189C382.883 318.138 397.92 307.995 415.007 303.868C417.112 303.363 419.236 302.951 421.37 302.614C424.205 302.175 423.391 297.851 420.724 297.777H420.715Z" fill="#FAF1E6"/>
<path d="M408.981 382.788C408.822 382.526 408.616 382.349 408.372 382.236C408.148 382.068 407.895 381.937 407.586 381.853C406.463 381.544 404.854 382.236 404.658 383.509C401.616 403.431 394.224 422.623 383.332 439.559C380.272 444.313 376.95 448.898 373.357 453.259C372.244 454.606 372.356 457.31 374.517 457.666C377.081 458.087 378.579 460.426 378.672 462.944C378.803 466.406 376.239 469.4 373.825 471.571C371.224 473.91 368.014 476.109 364.486 476.624C361.651 477.036 358.46 476.081 356.944 473.527C356.392 472.591 355.054 471.908 353.969 472.31C336.629 478.692 318.055 481.05 299.649 479.618C284.864 478.467 270.192 474.846 256.577 468.895C246.574 463.075 236.908 456.655 227.354 450.133C225.408 448.805 223.471 447.466 221.524 446.138C219.017 444.407 216.004 448.309 218.259 450.358C228.496 459.678 240.211 467.257 252.797 472.956C257.775 475.866 262.837 478.636 268.012 481.2C285.117 489.668 303.373 495.797 322.472 497.379C340.803 498.895 359.92 495.994 376.08 486.87C383.734 482.547 390.593 476.774 395.628 469.531C401.046 461.746 404.657 452.482 407.858 443.602C413.996 426.609 418.244 406.603 412.031 389.002C411.264 386.821 410.15 384.781 408.981 382.788Z" fill="#FAF1E6"/>
<path d="M171.472 418.337C169.394 416.466 166.99 415.081 164.398 414.042C158.858 411.824 152.785 411.469 146.881 411.609C140.331 411.759 133.612 412.526 127.146 411.085C121.84 409.897 115.936 407.099 113.802 401.728C112.146 397.545 112.605 391.743 116.666 389.105C118.266 388.066 117.91 385.811 116.16 385.193C110.247 383.107 107.458 375.789 109.657 370.128C110.022 369.192 109.414 368.079 108.628 367.592C107.701 367.021 106.784 366.441 105.858 365.87C107.43 365.103 107.14 362.623 105.203 362.558C100.113 362.399 95.7052 366.404 94.3952 371.195C93.263 375.349 94.4701 379.626 97.1744 382.76C93.9929 385.755 91.1295 389.619 92.0559 394.158C92.7202 397.377 95.4245 400.137 98.5218 400.661C97.6516 406.004 97.3053 411.441 99.495 416.55C100.608 419.151 102.33 421.406 104.651 423.044C107.131 424.794 110.144 425.467 113.101 425.795C116.235 426.141 119.426 426.113 122.58 426.207C126.145 426.31 129.71 426.431 133.275 426.515C140.302 426.693 147.339 426.871 154.367 427.049C157.932 427.142 161.497 427.096 165.062 427.096C167.635 427.096 171.547 427.779 173.512 425.626C175.776 423.137 173.418 420.096 171.472 418.346V418.337Z" fill="#FAF1E6"/>
<path d="M512.024 300.808C506.138 300.322 500.767 296.701 498.371 291.264C498.053 290.543 497.071 290.272 496.369 290.441C491.999 291.489 486.946 288.7 485.271 284.555C484.738 283.235 483.372 282.449 482.005 283.226C479.675 284.545 476.559 283.469 475.062 281.355C474.061 279.942 474.248 278.454 474.37 276.816C474.529 274.701 474.37 272.512 472.845 270.874C471.507 269.424 469.672 268.993 467.932 268.235C466.416 267.58 465.405 266.392 464.872 264.839C463.469 260.731 465.63 256.492 467.417 252.871C468.231 251.224 467.211 249.708 465.49 249.493C463.768 249.277 462.037 249.053 460.315 248.838C459.108 248.688 458.088 249.97 458.069 251.074C458.069 251.111 458.069 251.14 458.069 251.177C456.479 253.282 455.721 255.65 455.926 258.335C456.095 260.431 456.731 262.415 457.817 264.174C453.802 267.113 451.781 272.474 452.932 277.368C454.083 282.29 458.341 285.958 463.178 286.932C463.197 290.534 464.563 294.071 467.324 296.523C470.234 299.105 474.248 300.182 478.047 299.573C481.397 305.029 487.096 309.08 493.431 310.166C496.987 310.774 500.645 310.568 504.089 309.492C505.764 308.968 507.514 308.285 508.992 307.321C510.545 306.311 511.846 304.963 513.231 303.747C514.438 302.68 513.39 300.921 512.024 300.808Z" fill="#FAF1E6"/>
<path d="M351.985 218.707C356.804 219.315 361.67 217.004 363.672 212.475C365.553 208.226 364.833 202.743 360.912 199.87C357.262 197.204 351.882 197.475 348.85 200.769C347.381 200.769 345.743 201.499 344.752 202.266C342.721 203.838 341.57 206.355 341.795 208.928C342.263 214.234 346.904 218.061 351.975 218.707H351.985Z" fill="#FAF1E6"/>
<path d="M247.36 73.1437C258.832 70.1961 268.919 77.8318 276.639 85.4019C277.219 85.9633 278.09 85.0931 277.528 84.5129C269.49 76.2129 258.645 68.1656 246.387 71.1974C241.119 72.4981 236.665 76.1194 234.625 81.1817C232.407 86.7119 233.099 93.1311 235.364 98.5209C237.582 103.798 241.484 108.552 246.836 110.845C252.254 113.165 258.916 112.763 263.436 108.73C267.591 105.015 269.256 98.7923 267.226 93.5708C265.27 88.5366 260.432 84.5503 254.902 84.5036C252.029 84.4755 249.147 85.6171 247.519 88.0781C246.059 90.2677 245.872 93.234 246.874 95.6388C249.007 100.785 256.502 101.599 259.731 97.0799C260.189 96.4436 259.188 95.695 258.654 96.2471C255.361 99.6906 249.063 99.0543 247.996 93.8984C246.864 88.3681 252.591 85.7013 257.251 86.9458C261.77 88.1529 265.308 92.3731 265.719 97.0331C266.14 101.796 263.427 106.643 259.094 108.683C249.044 113.427 239.416 104.425 236.59 95.3207C235.158 90.7169 234.971 85.4206 237.114 80.9945C239.126 76.8305 242.962 74.2572 247.351 73.1344L247.36 73.1437Z" fill="#292823"/>
<path d="M333.747 124.104C333.579 124.591 334.281 125.002 334.617 124.609C335.469 123.627 336.199 122.579 336.901 121.493C337.247 120.969 337.649 120.427 337.977 119.856C338.894 120.146 339.848 120.324 340.812 120.398C340.775 120.623 340.747 120.838 340.7 121.053C340.531 121.952 340.279 122.878 340.475 123.786C340.522 124.01 340.803 124.048 340.962 123.917C341.692 123.281 342.047 122.298 342.45 121.437C342.618 121.072 342.805 120.726 342.936 120.389C343.722 120.314 344.611 120.165 345.509 119.921C345.509 120.754 345.631 121.606 345.903 122.289C346.024 122.597 346.37 122.635 346.576 122.373C347.241 121.512 347.671 120.202 347.821 119.079C349.299 118.368 350.544 117.348 351.04 115.954C351.311 115.196 350.413 114.756 349.823 115.009C348.616 115.533 347.68 116.581 346.473 117.161C345.135 117.806 343.647 118.153 342.169 118.218C340.896 118.274 339.642 118.134 338.426 117.778C338.23 117.479 337.818 117.311 337.481 117.423C336.508 116.974 335.563 116.319 334.496 116.403C334.206 116.431 334.065 116.646 334.103 116.918C334.243 117.937 335.104 118.602 336.04 119.07C335.778 119.556 335.553 120.071 335.31 120.539C334.72 121.699 334.178 122.859 333.747 124.085V124.104Z" fill="#292823"/>
<path d="M295.887 166.98C293.277 165.66 290.834 164.612 289.047 162.16C287.288 159.756 286.689 157.061 286.596 154.132C286.567 153.187 285.136 152.915 284.893 153.898C284.687 154.759 284.612 155.648 284.649 156.527C283.526 156.836 282.31 156.527 281.543 155.545C280.859 154.665 279.727 155.788 280.111 156.64C280.906 158.436 283.227 159.035 284.874 158.268C284.986 158.801 285.136 159.335 285.323 159.849C284.705 160.345 284.041 160.832 283.377 161.215C282.572 161.683 281.496 161.861 280.822 162.507C280.354 162.956 280.569 163.817 281.206 163.976C282.366 164.266 283.667 163.424 284.537 162.722C285.108 162.263 285.548 161.767 285.875 161.187C286.259 161.992 286.717 162.75 287.222 163.452C287.297 163.555 287.372 163.648 287.447 163.751C287.269 163.77 287.11 163.845 286.904 163.966C286.483 164.219 286.09 164.519 285.697 164.809C284.977 165.342 284.032 165.875 283.648 166.708C283.32 167.41 283.863 168.318 284.696 168.074C285.604 167.812 286.259 167.026 286.914 166.39C287.428 165.885 288.074 165.407 288.28 164.734C290.142 166.783 292.725 168.57 295.476 168.505C296.252 168.486 296.655 167.354 295.897 166.97L295.887 166.98Z" fill="#292823"/>
<path d="M604.624 472.076C604.372 468.324 603.904 464.572 603.258 460.866C601.976 453.568 599.908 446.418 597.138 439.541C591.552 425.664 583.28 412.9 572.669 402.345C568.776 398.471 564.659 395 560.196 391.987C558.764 380.121 555.068 368.481 550.642 357.439C545.851 345.499 539.843 334.065 532.601 323.435C528.708 317.717 524.422 312.384 519.856 307.209C521.129 305.628 521.372 303.316 520.174 301.566C519.426 300.472 518.303 299.845 517.105 299.676C517.161 299.639 517.217 299.601 517.273 299.564C520.67 297.187 522.747 293.266 522.242 289.084C521.737 284.929 519.22 281.888 515.664 279.988C517.348 261.461 505.539 243.345 489.08 235.485C485.056 233.557 480.798 232.219 476.4 231.508C477.364 229.44 476.952 226.782 475.09 225.276C474.735 224.986 474.211 224.901 473.865 225.276C472.826 226.371 471.768 227.456 470.72 228.542C470.608 228.42 470.487 228.308 470.365 228.205C470.515 228.008 470.58 227.737 470.505 227.419C467.548 214.702 461.41 202.35 453.709 191.851C447.561 183.476 440.01 176.243 431.99 169.665C430.259 168.243 428.463 166.867 426.526 165.744C426.048 165.473 425.515 165.164 424.963 164.93C425.777 163.686 425.955 162.076 425.047 160.682C424.27 159.484 422.97 158.932 421.669 158.998C422.006 157.145 421.005 154.899 419.423 153.935C417.271 152.625 415.203 153.374 413.584 154.88C418.656 148.396 418.815 138.467 415.97 131.028C411.47 119.276 401.523 111.135 393.522 101.843C391.931 99.9994 390.125 97.8659 388.806 95.5546C392.418 86.6277 392.437 76.7089 390.284 67.4077C388.123 58.0503 383.547 49.638 377.512 42.227C372.899 36.5658 367.509 31.597 361.698 27.1803C363.504 22.3987 364.87 17.299 364.009 12.1618C363.288 7.85738 360.931 3.5717 356.944 1.52244C347.699 -3.24982 338.332 4.09572 332.737 11.1512C331.763 10.7956 330.79 10.4587 329.817 10.1406C311.598 4.19865 292.07 4.87238 274.178 11.6565C256.652 18.3002 241.633 30.0718 230.433 45.0342C219.251 59.9592 211.905 77.7569 208.705 96.0973C208.377 97.9969 208.143 99.9058 207.975 101.824C207.928 101.843 207.881 101.852 207.825 101.88C204.7 103.368 201.668 105.024 198.618 106.671C198.009 106.999 197.794 108.037 198.374 108.505C198.88 108.908 199.404 109.31 199.909 109.703C196.521 109.974 193.228 111.443 190.944 113.97C190.617 114.335 190.598 114.868 190.944 115.233C192.526 116.908 194.322 118.256 196.325 119.322C180.923 126.041 166.662 134.781 153.684 145.486C140.059 156.733 127.941 169.702 117.124 183.664C105.409 198.785 95.2187 215.02 85.9549 231.742C76.7472 248.351 67.9794 265.381 60.7274 282.945C53.5784 300.275 47.833 318.906 48.095 337.826C48.123 339.557 48.1885 341.288 48.3008 343.02C44.1087 345.509 40.4594 349.102 37.4089 352.901C30.8774 361.032 25.4969 370.352 20.8276 379.644C11.2176 398.752 4.8452 419.497 1.88827 440.664C0.222659 452.557 -0.357477 464.572 0.213322 476.577C0.297538 478.327 3.02987 478.346 2.94566 476.577C1.97249 455.879 4.38668 435.068 10.1227 415.155C15.8214 395.374 24.7015 376.407 36.3327 359.423C39.6827 354.52 43.8654 349.102 49.0026 345.509C49.3207 345.565 49.6576 345.406 49.7138 345.022C52.9421 342.917 56.526 341.55 60.5216 341.476C61.7287 341.457 61.7287 339.623 60.5216 339.604C56.6195 339.52 53.0076 340.53 49.7231 342.234C49.9009 324.342 54.2334 306.666 60.559 290.001C67.2776 272.334 75.9705 255.36 84.9255 238.741C93.8244 222.235 103.528 206.121 114.635 191C125.134 176.711 136.953 163.339 150.268 151.605C163.162 140.245 177.479 130.299 192.966 122.803C194.912 121.858 196.896 120.979 198.889 120.136C199.469 119.893 199.469 118.854 198.889 118.611C196.615 117.647 194.594 116.319 192.835 114.606C194.089 113.408 195.576 112.51 197.251 111.996C199.329 111.369 201.116 111.5 203.156 112.145C204.204 112.482 205.205 110.947 204.279 110.218C203.287 109.422 202.286 108.646 201.294 107.86C203.82 106.465 206.328 105.062 208.789 103.536C209.257 103.246 209.341 102.788 209.191 102.414C211.11 93.8235 213.206 85.3177 216.247 77.0457C219.363 68.568 223.405 60.4177 228.318 52.8382C238.143 37.6606 251.758 25.1872 268.096 17.3457C284.49 9.48556 303.186 6.70642 321.012 10.6833C339.268 14.7538 356.692 24.8504 369.895 38.0442C383.014 51.1446 392.296 69.7564 388.628 88.6582C388.338 90.1461 388.011 91.6058 387.618 93.0656C386.71 90.5765 386.616 87.9471 388.132 85.3364C388.338 84.9902 387.908 84.4849 387.543 84.7469C383.454 87.7319 385.185 93.3744 387.009 97.1734C389.592 102.535 394.233 107.017 398.248 111.312C404.124 117.591 410.805 124.722 413.641 133.087C413.641 133.087 413.622 133.096 413.622 133.106C409.879 136.24 407.203 140.47 405.939 145.158C403.263 142.678 399.801 141.134 396.133 140.826C392.147 140.489 387.468 141.939 387.243 146.608C387.019 151.081 391.127 154.45 394.729 156.303C395.768 156.836 396.863 157.285 397.995 157.65C397.958 157.809 397.958 157.987 397.995 158.146C370.147 143.474 339.577 128.689 307.182 132.067C298.985 132.919 289.814 134.556 282.965 139.422C282.871 139.487 282.815 139.572 282.796 139.665C280.803 140.152 278.81 140.638 276.77 140.938C273.28 141.462 269.528 141.396 266.084 140.554C263.08 139.824 260.198 138.449 257.971 136.269C256.006 134.341 254.846 131.412 252.422 129.962C246.611 126.499 243.009 136.596 241.671 140.348C240.698 143.099 239.565 146.206 239.977 149.182C239.191 151.165 239.21 153.514 239.303 155.601C239.406 157.95 239.687 160.317 240.211 162.61C241.278 167.307 243.187 171.864 245.928 175.831C247.744 178.461 249.915 180.772 252.357 182.728C252.9 189.184 257.962 194.967 264.072 197.045C262.154 200.151 263.277 205.148 266.889 206.383C267.768 208.348 268.283 210.538 269.097 212.531C269.865 214.393 270.716 216.227 271.624 218.033C273.608 221.963 275.909 225.734 278.492 229.299C280.99 232.752 283.742 236.027 286.727 239.069C289.103 241.483 291.639 243.916 294.39 245.974C289.216 246.377 283.994 246.321 278.698 245.684C272.054 244.889 265.41 243.205 259.3 240.444C253.031 237.618 247.594 233.735 242.532 229.122C242.167 228.785 241.474 229.234 241.802 229.683C248.679 239.012 260.067 244.533 271.147 247.06C283.433 249.858 296.177 249.221 308.426 246.583C327.637 242.437 345.313 233.791 363.457 226.483C367.106 225.734 370.681 224.537 373.788 222.534C379.402 220.522 385.091 218.735 390.921 217.35C398.444 215.553 406.529 214.103 414.296 214.552C419.255 214.842 426.236 216.639 427.162 222.394C427.162 222.431 427.181 222.459 427.19 222.487C419.199 223.17 411.367 225.566 404.059 228.766C403.647 228.944 403.946 229.58 404.358 229.477C412.415 227.353 420.546 224.958 428.912 224.583C432.823 224.406 437.025 224.424 440.805 225.566C444.183 226.586 446.999 229.262 446.56 232.958C443.322 232.799 439.963 233.426 436.903 234.034C431.597 235.092 426.469 236.767 421.557 239.031C421.023 239.274 421.398 240.173 421.959 239.986C426.03 238.582 430.194 237.459 434.423 236.636C438.438 235.85 442.733 235.12 446.84 235.419C450.611 235.7 454.205 237.628 454.981 241.614C455.655 245.085 453.512 248.304 450.518 249.867C447.486 248.697 443.79 249.109 440.702 249.455C435.537 250.026 430.54 251.168 425.712 253.086C424.982 253.376 425.244 254.499 426.039 254.293C430.109 253.273 434.283 252.45 438.456 252.019C441.965 251.664 446.485 250.952 449.807 252.496C453.016 253.994 453.437 257.877 452.212 260.881C450.864 264.184 447.645 266.532 445.044 268.816C445.044 268.816 445.044 268.816 445.034 268.825C442.255 267.683 439.158 267.094 436.341 266.888C430.409 266.467 424.336 267.337 418.74 269.33C418.038 269.583 418.31 270.64 419.049 270.463C424.635 269.096 430.315 268.554 436.061 268.984C440.159 269.293 444.67 270.21 447.879 272.961C451.351 275.927 452.081 280.774 449.9 284.751C447.477 289.187 442.246 291.264 437.371 290.497C436.519 290.366 435.986 291.236 436.547 291.91C437.23 292.752 436.922 294.286 435.92 294.782C434.451 295.503 433.291 293.688 433.647 292.415C433.965 291.283 432.252 290.824 431.897 291.928C431.7 292.546 431.7 293.192 431.859 293.8C397.611 292.228 366.405 310.428 338.211 327.702C310.625 344.601 281.627 362.53 248.352 363.868C231.658 364.532 214.637 360.92 200.873 351.114C200.059 350.534 198.945 351.675 199.488 352.489C201.893 356.054 196.877 360.668 193.284 359.124C190.551 357.954 189.475 354.894 189.737 352.031C190.664 350.908 191.197 349.485 191.019 347.951C190.916 347.081 189.831 346.669 189.316 347.483C188.605 348.615 188.137 349.944 187.931 351.329C187.333 351.909 186.575 352.339 185.723 352.517C183.468 352.995 181.597 351.357 180.932 349.317C179.388 344.592 184.245 341.195 188.568 342.14C189.691 342.383 190.785 340.933 189.775 340.063C172.567 325.175 160.561 305.141 155.845 282.842C154.516 276.564 153.702 270.172 153.496 263.763C153.478 263.173 152.598 263.173 152.579 263.763C151.962 286.782 160.149 309.661 174.354 327.692C177.741 331.987 181.475 336.03 185.545 339.688C185.208 339.744 184.872 339.819 184.535 339.913C182.888 337.957 180.258 336.61 178.031 335.459C175.58 334.196 173.025 333.148 170.424 332.24C165.315 330.453 160.009 329.283 154.638 328.703C149.276 328.123 143.643 328.216 138.599 330.322C134.426 332.053 130.449 335.159 129.12 339.613C129.12 339.623 129.12 339.632 129.12 339.642C128.886 339.642 128.662 339.642 128.428 339.642C124.311 339.67 119.529 339.904 115.955 342.187C113.241 343.908 111.182 347.296 112.202 350.449C111.416 350.571 110.64 350.739 109.891 350.992C105.83 352.33 102.957 355.998 103.004 360.34C103.041 363.793 105.063 366.862 108.076 368.275C107.982 368.35 107.889 368.415 107.795 368.5C104.838 370.951 104.454 375.209 105.792 378.624C107.243 382.339 110.396 384.884 113.662 386.962C110.668 388.599 108.169 391.238 107.374 394.635C106.466 398.518 107.748 402.897 110.565 405.714C113.559 408.708 117.826 409.859 121.971 409.635C121.597 411.328 122.364 413.256 124.17 413.864C125.359 414.257 126.519 413.892 127.38 413.134C127.567 413.387 127.867 413.565 128.297 413.565C163.284 413.321 194.032 431.774 222.947 449.366C250.719 466.275 279.839 483.857 313.32 484.643C329.078 485.008 345.004 481.499 358.123 472.619C358.161 476.633 362.708 480.47 366.788 479.45C370.409 478.542 372.234 475.239 372.44 471.768C372.955 472.058 373.497 472.282 374.068 472.432C376.96 473.181 379.729 471.627 381.049 469.026C382.406 466.34 382.059 463.075 380.104 460.782C378.719 459.163 376.81 458.199 374.77 457.863C391.145 443.331 402.365 422.8 406.445 401.381C407.661 395.009 408.138 388.534 407.979 382.059C407.97 381.469 407.081 381.469 407.062 382.059C406.267 404.759 398.145 427.077 383.809 444.725C379.814 449.647 375.331 454.11 370.531 458.246C369.53 459.107 370.615 460.567 371.738 460.323C376.071 459.388 380.908 462.803 379.355 467.529C378.709 469.484 376.969 471.075 374.798 470.748C373.853 470.607 373.001 470.158 372.346 469.512C372.15 468.128 371.682 466.789 370.98 465.657C370.466 464.834 369.38 465.245 369.277 466.116C369.099 467.65 369.623 469.073 370.55 470.205C370.793 473.078 369.708 476.128 366.975 477.288C363.373 478.823 358.367 474.191 360.79 470.635C361.342 469.821 360.229 468.68 359.415 469.25C333.766 487.394 299.453 483.829 271.82 472.535C240.249 459.622 213.608 437.454 182.588 423.437C165.633 415.773 147.377 410.383 128.606 411.179C128.765 410.57 128.774 409.934 128.578 409.307C128.222 408.203 126.51 408.652 126.828 409.784C127.174 411.057 126.014 412.872 124.545 412.142C123.553 411.646 123.244 410.112 123.927 409.27C124.479 408.587 123.955 407.716 123.104 407.847C118.228 408.605 112.988 406.509 110.593 402.065C108.431 398.069 109.17 393.231 112.651 390.274C115.88 387.533 120.381 386.625 124.489 386.335C130.225 385.923 135.914 386.485 141.491 387.869C142.23 388.057 142.501 386.999 141.8 386.747C133.79 383.864 123.571 382.714 115.459 386.101C112.932 383.864 109.844 381.581 108.45 378.418C107.121 375.387 107.496 371.326 110.789 369.81C114.036 368.313 118.434 368.996 121.859 369.342C126.135 369.772 130.393 370.624 134.548 371.681C135.352 371.887 135.614 370.764 134.885 370.474C130.056 368.537 125.069 367.386 119.903 366.797C116.815 366.441 113.119 366.02 110.088 367.18C107.168 365.646 105.053 362.53 105.605 359.133C106.27 355.034 109.966 353.013 113.812 352.742C117.826 352.461 122.018 353.182 125.948 353.949C130.271 354.791 134.52 355.951 138.674 357.392C139.226 357.589 139.619 356.691 139.077 356.438C134.258 354.192 129.223 352.517 124.021 351.441C120.877 350.796 117.414 350.122 114.083 350.272C112.904 341.625 126.22 341.691 131.759 341.953C140.125 342.346 148.256 344.779 156.294 346.931C156.706 347.043 157.005 346.407 156.594 346.22C148.715 342.748 140.209 340.184 131.553 339.726C133.762 336.404 136.719 333.831 140.546 332.483C145.468 330.761 150.82 330.939 155.929 331.585C160.87 332.202 165.754 333.41 170.443 335.085C172.819 335.936 175.168 336.919 177.461 337.967C179.229 338.781 181.082 339.838 182.972 340.484C181.924 340.98 180.96 341.681 180.174 342.598C178.209 344.882 177.854 348.157 179.201 350.842C180.511 353.453 183.271 355.016 186.172 354.276C186.743 354.136 187.286 353.902 187.8 353.621C187.997 357.084 189.803 360.396 193.424 361.313C197.504 362.342 202.061 358.525 202.117 354.51C219.672 366.516 241.427 368.659 262.182 365.197C262.266 365.524 262.5 365.805 262.912 365.898C266.851 366.871 270.997 366.853 275.039 366.731C279.119 366.609 283.208 366.179 287.222 365.43C295.055 363.961 302.728 361.164 309.428 356.803C312.824 354.595 317.194 351.516 318.841 347.651C319.019 347.24 318.645 346.772 318.205 347.015C316.614 347.885 315.201 349.242 313.779 350.384C312.3 351.572 310.766 352.695 309.194 353.762C306.04 355.923 302.634 357.739 299.088 359.17C291.892 362.081 284.153 363.587 276.415 363.943C273.898 364.055 271.39 363.961 268.882 363.868C275.002 362.483 280.981 360.639 286.68 358.45C318.775 346.107 345.856 324.118 376.903 309.67C394.205 301.623 412.901 295.999 432.14 296.195C432.561 296.195 432.861 296.027 433.057 295.774C433.909 296.532 435.078 296.906 436.267 296.513C438.073 295.915 438.849 293.987 438.484 292.293C442.049 292.499 445.68 291.694 448.59 289.523C451.819 287.109 453.737 282.973 453.381 278.931C452.988 274.505 450.312 271.557 446.822 269.677C450.125 267.599 453.306 265.054 454.775 261.33C456.123 257.924 455.749 253.666 452.801 251.205C452.707 251.13 452.614 251.055 452.52 250.98C454.785 249.932 456.497 247.949 457.227 245.553C457.199 246.283 457.246 247.004 457.386 247.724C458.21 251.823 462.271 252.833 465.901 252.047C466.519 251.916 467.127 251.738 467.726 251.542C466.491 252.983 465.368 254.536 464.376 256.193C462.065 260.038 460.081 265.381 463.309 269.33C466.042 272.68 470.823 272.998 474.594 271.445C472.854 273.691 471.628 276.264 471.984 279.249C472.377 282.534 474.622 285.21 477.963 285.715C480.967 286.174 484.092 285.06 486.703 283.544C486.282 284.62 486.244 285.865 486.534 287.062C487.143 289.617 489.098 291.47 491.587 292.209C494.423 293.061 497.08 292.546 499.466 291.311C499.457 295.091 502.077 298.572 505.333 300.359C508.019 301.838 511.126 302.053 513.961 301.183C514.129 301.454 514.429 301.641 514.794 301.52C517.919 300.509 520.361 304.186 517.9 306.526C517.517 306.891 517.582 307.462 517.9 307.845C534.201 327.149 546.702 349.897 553.982 374.086C555.657 379.644 557.061 385.268 558.474 390.892C556.518 389.647 554.497 388.487 552.401 387.42C551.549 386.99 550.894 388.141 551.662 388.684C554.3 390.564 556.883 392.529 559.41 394.569C559.41 394.588 559.419 394.616 559.428 394.635C559.494 394.887 559.728 395.009 559.952 395C568.552 402.036 576.337 410.028 582.653 419.217C590.906 431.213 596.717 444.79 599.684 459.051C600.516 463.056 601.115 467.108 601.452 471.187C601.789 475.267 601.686 479.347 601.873 483.427C601.958 485.223 604.372 485.13 604.596 483.427C605.073 479.703 604.877 475.829 604.615 472.095L604.624 472.076ZM334.805 11.8998C337.481 9.31713 340.092 6.67835 343.367 4.83495C347.035 2.77633 351.938 1.82188 355.803 3.92728C363.756 8.25974 362.156 18.3657 359.639 25.627C358.6 24.8784 357.552 24.1392 356.504 23.4187C349.72 18.8055 342.45 14.8754 334.805 11.8998ZM410.917 158.923C410.403 158.829 409.888 158.745 409.383 158.651C410.496 157.959 411.488 157.154 412.359 156.256C411.741 157.098 411.254 158.034 410.917 158.923ZM407.539 158.099C407.586 158.183 407.652 158.268 407.717 158.352C407.483 158.314 407.259 158.268 407.025 158.23C407.193 158.193 407.362 158.146 407.539 158.109V158.099ZM389.76 147.797C388.881 143.474 393.784 142.809 396.919 143.277C400.437 143.811 403.544 145.673 405.79 148.405C406.332 149.06 407.633 148.733 407.773 147.881C408.569 143.09 410.852 138.814 414.361 135.511C414.848 137.55 415.091 139.647 415.035 141.836C414.876 147.731 412.452 152.878 407.867 156.565C407.82 156.565 407.773 156.555 407.717 156.555C404.124 156.621 400.606 156.293 397.275 154.843C394.364 153.58 390.444 151.165 389.76 147.797ZM241.783 146.159C242.326 143.099 243.486 140.04 244.749 137.214C245.713 135.061 247.304 131.056 250.158 130.982C252.844 130.907 253.807 134.874 255.173 136.605C255.286 136.736 255.398 136.867 255.51 136.998C255.454 137.055 255.398 137.12 255.351 137.204C254.079 139.778 253.339 142.454 251.73 144.887C250.195 147.198 247.959 149.93 245.367 151.072C241.905 152.588 241.353 148.592 241.783 146.169V146.159ZM457.648 243.055C457.723 238.722 454.832 235.017 450.789 233.669C450.041 233.417 449.264 233.239 448.478 233.117C449.517 229.964 447.458 226.586 444.754 224.845C441.198 222.553 436.398 222.3 432.29 222.263C431.298 222.253 430.297 222.281 429.305 222.328C429.314 222.253 429.323 222.169 429.314 222.085C428.893 217.013 424.813 214.056 420.228 212.746C414.277 211.043 407.783 211.754 401.738 212.55C393.887 213.579 386.223 215.525 378.709 217.958C381.096 214.683 382.228 210.66 381.751 206.421C380.974 199.524 376.791 193.433 370.915 189.849C363.99 185.629 355.952 184.786 348.036 185.441C347.4 185.498 347.381 186.405 348.036 186.443C358.469 187.014 370.962 189.362 376.688 199.15C379.093 203.258 380.15 208.339 378.597 212.943C377.624 215.815 375.668 218.089 373.273 219.811C369.305 221.224 365.375 222.749 361.483 224.331C358.544 224.873 355.541 225.126 352.621 225.135C347.025 225.154 341.027 223.61 337.771 218.679C330.425 207.562 348.775 198.289 357.758 202.303C362.821 204.568 365.272 212.306 359.433 215.254C357.103 216.433 354.259 216.442 351.779 215.787C350.45 215.441 348.953 214.889 348.027 213.822C347.447 213.149 347.156 212.363 347.428 211.502C347.699 210.66 348.429 209.93 349.365 210.154C350.263 210.36 350.637 209.031 349.748 208.769C347.39 208.086 345.407 210.472 345.631 212.728C345.912 215.582 348.981 217.135 351.442 217.752C356.448 218.988 363.251 217.416 364.467 211.651C365.721 205.71 360.612 200.619 355.091 199.74C348.869 198.757 341.355 201.424 337.163 206.159C332.868 210.996 333.401 217.752 337.78 222.366C341.888 226.698 347.811 227.765 353.566 227.634C335.647 235.185 317.194 243.392 297.937 245.637C294.718 242.914 291.424 240.369 288.439 237.375C285.454 234.381 282.694 231.171 280.214 227.746C277.725 224.312 275.498 220.681 273.561 216.901C272.616 215.048 271.745 213.158 270.922 211.24C270.52 210.295 270.127 209.34 269.762 208.386C269.369 207.366 269.135 206.187 268.695 205.195C268.358 204.446 267.544 204.306 266.936 203.81C266.29 203.277 265.86 202.547 265.616 201.742C265.13 200.095 265.495 198.345 266.833 197.232C267.507 196.68 267.085 195.604 266.346 195.379C260.657 193.667 256.596 189.531 254.406 184.234C258.72 187.154 263.735 189.016 269.041 189.577C273.982 190.101 278.885 189.334 283.264 187.014C283.367 187.247 283.47 187.481 283.564 187.706C284.163 189.082 284.808 190.42 285.585 191.702C286.1 192.544 287.644 191.992 287.251 191C286.698 189.615 286.053 188.295 285.323 187.004C284.705 185.909 284.088 184.684 283.03 183.972C282.834 183.841 282.6 184.019 282.581 184.225C282.563 184.599 282.609 184.974 282.684 185.339C274.824 188.239 266.009 187.809 258.551 183.907C250.626 179.762 245.17 172.098 242.756 163.592C242.083 161.206 241.577 158.754 241.325 156.293C241.175 154.852 241.184 153.346 241.091 151.867C241.849 152.784 242.943 153.355 244.319 153.29C247.631 153.121 250.579 149.696 252.451 147.292C254.359 144.84 256.39 141.546 256.755 138.346C259.852 141.162 264.044 142.697 268.152 143.193C271.549 143.605 274.974 143.109 278.296 142.407C281.851 141.658 285.323 140.592 288.579 138.982C288.776 138.889 288.757 138.683 288.635 138.561C290.469 137.99 292.303 137.41 294.166 136.905C297.74 135.941 301.389 135.211 305.058 134.753C312.515 133.826 320.104 133.929 327.562 134.771C343.226 136.549 358.217 141.948 372.562 148.302C380.815 151.961 388.928 155.966 397.059 159.896C397.92 160.308 398.697 159.465 398.547 158.773C398.547 158.773 398.556 158.773 398.566 158.773C402.767 159.812 407.09 160.467 411.339 161.281C411.928 161.393 412.546 161.122 412.714 160.504C413.304 158.286 415.194 154.983 417.954 155.283C419.536 155.46 421.257 158.052 420.144 159.325C419.77 159.494 419.414 159.718 419.096 159.999C418.422 160.607 419.283 161.683 420.05 161.243C420.939 160.663 422.324 160.626 423.082 161.477C423.962 162.469 423.391 164.116 422.212 164.556C420.902 165.042 421.388 167.007 422.792 166.68C423.587 166.493 425.15 167.662 425.861 168.14C427.452 169.206 428.93 170.442 430.4 171.667C432.889 173.745 435.265 175.962 437.68 178.115C447.14 186.555 454.897 196.736 460.596 208.058C463.73 214.281 466.117 220.794 468.39 227.372C467.857 227.306 467.296 227.353 466.744 227.522C466.397 227.634 466.154 227.933 466.154 228.298C466.135 229.777 466.687 231.04 467.717 231.985C464.872 232.893 462.392 234.839 460.568 237.206C459.286 238.872 458.163 240.912 457.592 243.055H457.648ZM506.456 298.469C503.378 296.878 501.553 293.856 500.711 290.59C503.34 288.925 505.614 286.464 507.439 284.143C508.187 283.189 506.952 281.832 506.063 282.767C502.807 286.174 499.251 290.422 494.105 290.403C491.934 290.403 489.856 289.467 488.818 287.493C487.938 285.818 487.901 283.806 488.808 282.15C491.363 280.278 493.515 277.911 495.115 275.16C495.705 274.14 494.189 273.27 493.543 274.243C490.614 278.697 485.43 283.114 479.881 283.553C476.831 283.797 474.529 281.963 474.042 278.94C473.574 276.021 474.913 273.026 476.363 270.537C480.602 268.058 483.493 263.772 487.049 260.478C487.685 259.889 486.768 259.047 486.123 259.552C482.614 262.303 479.844 266.018 475.979 268.301C472.76 270.201 467.801 271.192 465.069 267.871C462.158 264.343 465.012 259.168 467.062 255.977C468.652 253.498 470.524 251.205 472.573 249.081C474.07 248.005 475.399 246.704 476.466 245.207C476.999 244.458 475.848 243.616 475.221 244.243C472.751 246.695 469.897 248.753 466.538 249.783C465.022 250.251 463.281 250.597 461.737 250.082C459.922 249.483 459.239 247.78 459.23 245.993C459.192 239.564 464.872 234.876 470.112 232.322C470.477 232.144 470.318 231.48 469.897 231.536C469.803 231.545 469.719 231.564 469.626 231.573C469.569 231.433 469.467 231.302 469.317 231.199C468.475 230.656 468.007 229.889 467.876 228.972C468.746 228.935 469.485 229.412 469.906 230.263C470.14 230.75 470.861 230.797 471.207 230.432C472.293 229.337 473.369 228.242 474.454 227.147C475.418 228.513 475.24 230.404 473.865 231.555C473.303 232.032 473.574 233.164 474.323 233.286C491.934 236.14 506.578 248.267 511.949 265.381C513.484 270.266 514.176 275.254 514.354 280.353C514.354 280.559 514.466 280.812 514.672 280.905C517.713 282.243 519.772 285.818 520.081 289.028C520.417 292.508 518.855 295.746 515.963 297.73C513.156 299.658 509.525 300.06 506.466 298.478L506.456 298.469Z" fill="#292823"/>
</svg>
