<?xml version="1.0" encoding="UTF-8"?>
<svg id="Layer_2" data-name="Layer 2" xmlns="http://www.w3.org/2000/svg" viewBox="0 0 213.59 182.65">
  <defs>
    <style>
      .cls-1 {
        fill: #130f28;
      }

      .cls-1, .cls-2 {
        stroke-width: 0px;
      }

      .cls-2 {
        fill: #fff;
      }
    </style>
  </defs>
  <path class="cls-1" d="M42.73,153.93C10.32,139.04,6.15,118.66,2.41,85.51-.24,61.81-5.17,31.5,16.82,15.41,27.34,7.53,42.09,5,55.65,3.73c11.01-1.02,22.04-1.5,33.05-2.14,27.38-1.3,55.24-3.03,82.49.5,37.52,5.2,42.8,33.68,42.37,66.7-.45,20.16-1.14,42.06-12.68,59.32-16.71,24.5-50.07,25.34-77.04,25.76-15.14.11-30.6-.51-43.55,7.75-8.33,4.88-14.36,13.67-21.64,19.59-10.89,7.94-10.64-19.3-11.8-26.07"/>
  <path class="cls-2" d="M51.85,70.4c3.99,6.16,10.2,10.72,17.3,12.62s15.07.84,21.64-2.8c3.73-2.07,6.87-4.93,9.41-8.33.81-1.08.18-2.79-.9-3.42-1.28-.75-2.61-.19-3.42.9-4.7,6.28-12.64,9.93-20.44,9.61s-15.1-4.65-19.28-11.1c-1.74-2.69-6.07-.19-4.32,2.52h0Z"/>
  <path class="cls-2" d="M130.67,72.23c4.72,6.66,12.56,10.97,20.82,10.76,8.44-.21,15.81-5.1,21.43-11.09,2.2-2.35-1.33-5.89-3.54-3.54-4.59,4.89-10.54,9.3-17.49,9.61-6.55.29-13.11-2.92-16.9-8.27-.78-1.1-2.18-1.62-3.42-.9-1.09.64-1.68,2.31-.9,3.42h0Z"/>
  <path class="cls-2" d="M97.89,103.24c4.47,4.83,11.61,7.06,18.09,6.72,6.8-.36,12.67-4.96,15.92-10.76,1.57-2.81-2.74-5.34-4.32-2.52-2.42,4.34-6.78,8.15-11.97,8.29s-10.61-1.41-14.18-5.27c-2.19-2.37-5.72,1.18-3.54,3.54h0Z"/>
</svg>